<svg width="96" height="96" viewBox="0 0 96 96" fill="none" xmlns="http://www.w3.org/2000/svg">
<g id="Group 235">
<g id="right">
<g id="Group 111">
<path id="Rectangle 12" d="M71.5948 1C84.5211 1 95.0001 11.4795 95.0001 24.4068C95.0001 37.334 84.5211 47.8136 71.5948 47.8136H48.1895V24.4068C48.1895 11.4795 58.6684 1 71.5948 1Z" stroke="#1F69F8" stroke-width="2"/>
<path id="Rectangle 13" d="M69.1542 5.88062C80.7327 5.88062 90.119 15.2674 90.119 26.8467C90.119 38.426 80.7327 47.8128 69.1542 47.8128H48.1895V26.8467C48.1895 15.2674 57.5758 5.88062 69.1542 5.88062Z" stroke="#1F69F8" stroke-width="2"/>
<path id="Rectangle 14" d="M66.7137 10.7637C76.9443 10.7637 85.2379 19.0577 85.2379 29.2891C85.2379 39.5205 76.9443 47.8145 66.7137 47.8145H48.1895V29.2891C48.1895 19.0577 56.4831 10.7637 66.7137 10.7637Z" stroke="#1F69F8" stroke-width="2"/>
<path id="Rectangle 15" d="M64.2732 15.6443C73.1559 15.6443 80.3569 22.8456 80.3569 31.729C80.3569 40.6124 73.1559 47.8138 64.2732 47.8138H48.1895V31.729C48.1895 22.8456 55.3904 15.6443 64.2732 15.6443Z" stroke="#1F69F8" stroke-width="2"/>
<path id="Rectangle 16" d="M61.8326 20.5249C69.3675 20.5249 75.4758 26.6335 75.4758 34.169C75.4758 41.7044 69.3675 47.813 61.8326 47.813H48.1895V34.169C48.1895 26.6335 54.2978 20.5249 61.8326 20.5249Z" stroke="#1F69F8" stroke-width="2"/>
<path id="Rectangle 17" d="M59.3921 25.4053C65.5791 25.4053 70.5948 30.4211 70.5948 36.6087C70.5948 42.7962 65.5791 47.8121 59.3921 47.8121H48.1895V36.6087C48.1895 30.4211 53.2051 25.4053 59.3921 25.4053Z" stroke="#1F69F8" stroke-width="2"/>
<path id="Rectangle 18" d="M56.9516 30.2886C61.7907 30.2886 65.7137 34.2117 65.7137 39.0513C65.7137 43.8909 61.7907 47.814 56.9516 47.814H48.1895V39.0513C48.1895 34.2117 52.1124 30.2886 56.9516 30.2886Z" stroke="#1F69F8" stroke-width="2"/>
</g>
<g id="Group 112">
<path id="Rectangle 12_2" d="M71.5948 95C84.5211 95 95.0001 84.5205 95.0001 71.5932C95.0001 58.666 84.5211 48.1864 71.5948 48.1864H48.1895V71.5932C48.1895 84.5205 58.6684 95 71.5948 95Z" stroke="#1F69F8" stroke-width="2"/>
<path id="Rectangle 13_2" d="M69.1542 90.1194C80.7327 90.1194 90.119 80.7326 90.119 69.1533C90.119 57.574 80.7327 48.1872 69.1542 48.1872H48.1895V69.1533C48.1895 80.7326 57.5758 90.1194 69.1542 90.1194Z" stroke="#1F69F8" stroke-width="2"/>
<path id="Rectangle 14_2" d="M66.7137 85.2363C76.9443 85.2363 85.2379 76.9423 85.2379 66.7109C85.2379 56.4795 76.9443 48.1855 66.7137 48.1855H48.1895V66.7109C48.1895 76.9423 56.4831 85.2363 66.7137 85.2363Z" stroke="#1F69F8" stroke-width="2"/>
<path id="Rectangle 15_2" d="M64.2732 80.3557C73.1559 80.3557 80.3569 73.1544 80.3569 64.271C80.3569 55.3876 73.1559 48.1862 64.2732 48.1862H48.1895V64.271C48.1895 73.1544 55.3904 80.3557 64.2732 80.3557Z" stroke="#1F69F8" stroke-width="2"/>
<path id="Rectangle 16_2" d="M61.8326 75.4751C69.3675 75.4751 75.4758 69.3665 75.4758 61.831C75.4758 54.2956 69.3675 48.187 61.8326 48.187H48.1895V61.831C48.1895 69.3665 54.2978 75.4751 61.8326 75.4751Z" stroke="#1F69F8" stroke-width="2"/>
<path id="Rectangle 17_2" d="M59.3921 70.5947C65.5791 70.5947 70.5948 65.5789 70.5948 59.3913C70.5948 53.2038 65.5791 48.1879 59.3921 48.1879H48.1895V59.3913C48.1895 65.5789 53.2051 70.5947 59.3921 70.5947Z" stroke="#1F69F8" stroke-width="2"/>
<path id="Rectangle 18_2" d="M56.9516 65.7114C61.7907 65.7114 65.7137 61.7883 65.7137 56.9487C65.7137 52.1091 61.7907 48.186 56.9516 48.186H48.1895V56.9487C48.1895 61.7883 52.1124 65.7114 56.9516 65.7114Z" stroke="#1F69F8" stroke-width="2"/>
</g>
</g>
<g id="left">
<g id="Group 111_2">
<path id="Rectangle 12_3" d="M24.4052 1C11.4789 1 0.999935 11.4795 0.999935 24.4068C0.999935 37.334 11.4789 47.8136 24.4052 47.8136H47.8105V24.4068C47.8105 11.4795 37.3316 1 24.4052 1Z" stroke="#1F69F8" stroke-width="2"/>
<path id="Rectangle 13_3" d="M26.8458 5.88062C15.2673 5.88062 5.881 15.2674 5.881 26.8467C5.881 38.426 15.2673 47.8128 26.8458 47.8128H47.8105V26.8467C47.8105 15.2674 38.4242 5.88062 26.8458 5.88062Z" stroke="#1F69F8" stroke-width="2"/>
<path id="Rectangle 14_3" d="M29.2863 10.7637C19.0557 10.7637 10.7621 19.0577 10.7621 29.2891C10.7621 39.5205 19.0557 47.8145 29.2863 47.8145H47.8105V29.2891C47.8105 19.0577 39.5169 10.7637 29.2863 10.7637Z" stroke="#1F69F8" stroke-width="2"/>
<path id="Rectangle 15_3" d="M31.7268 15.6443C22.8441 15.6443 15.6431 22.8456 15.6431 31.729C15.6431 40.6124 22.8441 47.8138 31.7268 47.8138H47.8105V31.729C47.8105 22.8456 40.6096 15.6443 31.7268 15.6443Z" stroke="#1F69F8" stroke-width="2"/>
<path id="Rectangle 16_3" d="M34.1674 20.5249C26.6325 20.5249 20.5242 26.6335 20.5242 34.169C20.5242 41.7044 26.6325 47.813 34.1674 47.813H47.8105V34.169C47.8105 26.6335 41.7022 20.5249 34.1674 20.5249Z" stroke="#1F69F8" stroke-width="2"/>
<path id="Rectangle 17_3" d="M36.6079 25.4053C30.4209 25.4053 25.4052 30.4211 25.4052 36.6087C25.4052 42.7962 30.4209 47.8121 36.6079 47.8121H47.8105V36.6087C47.8105 30.4211 42.7949 25.4053 36.6079 25.4053Z" stroke="#1F69F8" stroke-width="2"/>
<path id="Rectangle 18_3" d="M39.0484 30.2886C34.2093 30.2886 30.2863 34.2117 30.2863 39.0513C30.2863 43.8909 34.2093 47.814 39.0484 47.814H47.8105V39.0513C47.8105 34.2117 43.8876 30.2886 39.0484 30.2886Z" stroke="#1F69F8" stroke-width="2"/>
</g>
<g id="Group 112_2">
<path id="Rectangle 12_4" d="M24.4052 95C11.4789 95 0.999935 84.5205 0.999935 71.5932C0.999935 58.666 11.4789 48.1864 24.4052 48.1864H47.8105V71.5932C47.8105 84.5205 37.3316 95 24.4052 95Z" stroke="#1F69F8" stroke-width="2"/>
<path id="Rectangle 13_4" d="M26.8458 90.1194C15.2673 90.1194 5.881 80.7326 5.881 69.1533C5.881 57.574 15.2673 48.1872 26.8458 48.1872H47.8105V69.1533C47.8105 80.7326 38.4242 90.1194 26.8458 90.1194Z" stroke="#1F69F8" stroke-width="2"/>
<path id="Rectangle 14_4" d="M29.2863 85.2363C19.0557 85.2363 10.7621 76.9423 10.7621 66.7109C10.7621 56.4795 19.0557 48.1855 29.2863 48.1855H47.8105V66.7109C47.8105 76.9423 39.5169 85.2363 29.2863 85.2363Z" stroke="#1F69F8" stroke-width="2"/>
<path id="Rectangle 15_4" d="M31.7268 80.3557C22.8441 80.3557 15.6431 73.1544 15.6431 64.271C15.6431 55.3876 22.8441 48.1862 31.7268 48.1862H47.8105V64.271C47.8105 73.1544 40.6096 80.3557 31.7268 80.3557Z" stroke="#1F69F8" stroke-width="2"/>
<path id="Rectangle 16_4" d="M34.1674 75.4751C26.6325 75.4751 20.5242 69.3665 20.5242 61.831C20.5242 54.2956 26.6325 48.187 34.1674 48.187H47.8105V61.831C47.8105 69.3665 41.7022 75.4751 34.1674 75.4751Z" stroke="#1F69F8" stroke-width="2"/>
<path id="Rectangle 17_4" d="M36.6079 70.5947C30.4209 70.5947 25.4052 65.5789 25.4052 59.3913C25.4052 53.2038 30.4209 48.1879 36.6079 48.1879H47.8105V59.3913C47.8105 65.5789 42.7949 70.5947 36.6079 70.5947Z" stroke="#1F69F8" stroke-width="2"/>
<path id="Rectangle 18_4" d="M39.0484 65.7114C34.2093 65.7114 30.2863 61.7883 30.2863 56.9487C30.2863 52.1091 34.2093 48.186 39.0484 48.186H47.8105V56.9487C47.8105 61.7883 43.8876 65.7114 39.0484 65.7114Z" stroke="#1F69F8" stroke-width="2"/>
</g>
</g>
</g>
</svg>
