<svg width="236" height="200" viewBox="0 0 236 200" fill="none" xmlns="http://www.w3.org/2000/svg">
<g id="edu10 1" clip-path="url(#clip0_12_4313)">
<g id="Group" opacity="0.1">
<path id="Vector" opacity="0.08" d="M14.3314 124.642C14.3314 124.642 21.4209 163.232 57.3784 184.143C93.3298 205.055 138.023 200.066 174.351 196.987C210.679 193.906 235.192 169.091 234.663 137.374C234.135 105.657 205.285 100.766 185.037 67.6807C164.789 34.6011 164.364 22.7646 129.536 5.86586C94.7088 -11.0267 47.3851 9.93404 27.1435 51.1931C6.90182 92.452 14.3314 124.642 14.3314 124.642Z" fill="#184AFB"/>
<path id="Vector_2" opacity="0.7" d="M14.3314 124.642C14.3314 124.642 21.4209 163.232 57.3784 184.143C93.3298 205.055 138.023 200.066 174.351 196.987C210.679 193.906 235.192 169.091 234.663 137.374C234.135 105.657 205.285 100.766 185.037 67.6807C164.789 34.6011 164.364 22.7646 129.536 5.86586C94.7088 -11.0267 47.3851 9.93404 27.1435 51.1931C6.90182 92.452 14.3314 124.642 14.3314 124.642Z" fill="#184AFB"/>
</g>
<g id="Clip path group">
<mask id="mask0_12_4313" style="mask-type:luminance" maskUnits="userSpaceOnUse" x="8" y="0" width="233" height="200">
<g id="clip0">
<path id="Vector_3" d="M240.178 0H8V199.038H240.178V0Z" fill="white"/>
</g>
</mask>
<g mask="url(#mask0_12_4313)">
<g id="Group_2">
<path id="Vector_4" d="M206.611 146.264L203.314 197.401C203.24 197.922 202.801 198.368 202.288 198.368C201.701 198.368 201.262 197.922 201.262 197.326C201.262 197.326 201.262 197.326 201.262 197.252L202.654 146.189H206.611V146.264Z" fill="#2E3038" stroke="#2E3038" stroke-linecap="round" stroke-linejoin="round"/>
<path id="Vector_5" d="M215.187 146.264L218.484 197.401C218.484 197.922 218.924 198.368 219.51 198.368C220.097 198.368 220.536 197.922 220.536 197.326L219.144 146.338L215.187 146.264Z" fill="#2E3038" stroke="#2E3038" stroke-linecap="round" stroke-linejoin="round"/>
<path id="Vector_6" d="M181.768 146.264L185.065 197.401C185.065 197.922 185.505 198.368 186.091 198.368C186.678 198.368 187.117 197.922 187.117 197.326L185.725 146.338L181.768 146.264Z" fill="#2E3038" stroke="#2E3038" stroke-linecap="round" stroke-linejoin="round"/>
<path id="Vector_7" d="M168.135 146.264L164.837 197.401C164.764 197.922 164.324 198.368 163.811 198.368C163.225 198.368 162.785 197.922 162.785 197.326L164.177 146.338L168.135 146.264Z" fill="#2E3038" stroke="#2E3038" stroke-linecap="round" stroke-linejoin="round"/>
<path id="Vector_8" d="M226.18 94.6807C226.18 94.6807 192.907 93.4153 190.122 93.4153C187.337 93.4153 186.678 94.6807 186.678 94.6807L181.914 128.697C181.914 128.697 167.182 124.381 164.251 124.976C161.319 125.571 165.717 146.859 165.717 146.859H182.427L182.72 145.594H220.464L230.504 97.1373C229.844 94.9039 226.18 94.6807 226.18 94.6807Z" fill="white" stroke="#2E3038" stroke-linecap="round" stroke-linejoin="round"/>
<path id="Vector_9" d="M213.574 115.969C213.574 115.969 216.946 138.3 213.061 140.905C212.475 141.277 209.177 143.212 206.172 142.914C203.754 142.691 186.458 142.914 186.458 142.914C186.458 142.914 184.039 138.3 183.599 134.876C183.16 131.452 186.898 116.788 186.898 116.788L213.574 115.969Z" fill="white" stroke="#2E3038" stroke-linecap="round" stroke-linejoin="round"/>
<path id="Vector_10" d="M185.212 127.879C185.212 127.879 160.147 130.484 158.974 131.229C157.801 131.973 152.378 136.736 153.331 139.862C154.283 142.989 151.938 143.212 154.063 143.733C156.189 144.255 186.677 144.18 186.677 144.18" fill="#184AFB"/>
<path id="Vector_11" d="M185.212 127.879C185.212 127.879 160.147 130.484 158.974 131.229C157.801 131.973 152.378 136.736 153.331 139.862C154.283 142.989 151.938 143.212 154.063 143.733C156.189 144.255 186.677 144.18 186.677 144.18" stroke="#2E3038" stroke-linecap="round" stroke-linejoin="round"/>
<path id="Vector_12" d="M221.929 142.319H162.419V146.859H221.929V142.319Z" fill="white" stroke="#2E3038" stroke-linecap="round" stroke-linejoin="round"/>
<path id="Vector_13" d="M207.858 128.846H172.02C172.02 128.846 170.115 131.005 169.894 135.545C169.674 140.086 170.115 141.054 173.412 142.244C176.71 143.436 206.099 142.84 206.099 142.84" fill="#184AFB"/>
<path id="Vector_14" d="M207.858 128.846H172.02C172.02 128.846 170.115 131.005 169.894 135.545C169.674 140.086 170.115 141.054 173.412 142.244C176.71 143.436 206.099 142.84 206.099 142.84" stroke="#2E3038" stroke-linecap="round" stroke-linejoin="round"/>
<path id="Vector_15" d="M179.641 186.608L175.903 177.601L169.747 178.792L174.438 186.831L171.726 192.339L165.863 196.209C165.863 196.209 165.203 196.88 168.136 196.657C171.067 196.433 177.149 196.657 177.149 196.657L180.961 192.115C180.961 192.115 182.353 189.809 179.641 186.608Z" fill="white" stroke="#2E3038" stroke-linecap="round" stroke-linejoin="round"/>
<path id="Vector_16" d="M181.328 190.553L181.474 196.434H180.521L179.275 193.531L181.328 190.553Z" fill="#2E3038" stroke="#2E3038" stroke-linecap="round" stroke-linejoin="round"/>
<path id="Vector_17" d="M177.15 196.731L180.961 192.19C180.961 192.19 181.987 190.479 180.594 188.022C177.882 192.785 174.218 194.2 174.218 194.2L170.407 193.307L165.79 196.359C165.79 196.359 165.131 197.029 168.062 196.806C170.993 196.582 177.15 196.731 177.15 196.731Z" fill="#2E3038" stroke="#2E3038" stroke-linecap="round" stroke-linejoin="round"/>
<path id="Vector_18" d="M164.91 140.608L177.443 179.238L168.501 180.877L150.912 140.682C150.912 140.682 149.519 134.653 153.257 132.791C156.995 130.931 168.135 129.888 168.135 129.888" fill="#184AFB"/>
<path id="Vector_19" d="M164.91 140.608L177.443 179.238L168.501 180.877L150.912 140.682C150.912 140.682 149.519 134.653 153.257 132.791C156.995 130.931 168.135 129.888 168.135 129.888" stroke="#2E3038" stroke-linecap="round" stroke-linejoin="round"/>
<path id="Vector_20" d="M205.219 146.786C205.219 146.786 200.895 125.422 203.753 124.902C206.611 124.381 221.416 128.623 221.416 128.623L226.179 94.6811C226.179 94.6811 231.163 93.8622 231.75 98.4029C232.263 102.943 221.929 146.786 221.929 146.786H205.219Z" fill="#2E3038" stroke="#2E3038" stroke-linecap="round" stroke-linejoin="round"/>
<path id="Vector_21" d="M154.211 83.8879L152.012 80.166C151.572 79.4217 150.767 78.9751 149.96 79.0496L147.835 79.124L144.244 78.0075C143.804 77.8586 143.291 78.0075 142.998 78.4541L142.851 78.603L146.149 80.0916L142.851 81.357L139.334 79.5706C139.04 79.4217 138.674 79.4961 138.527 79.7939C138.308 80.0916 138.38 80.5382 138.674 80.7615L143.584 84.6322C143.877 84.8555 144.318 85.0043 144.683 84.9299L150.107 83.8133L151.646 85.5254L154.211 83.8879Z" fill="white" stroke="#2E3038" stroke-linecap="round" stroke-linejoin="round"/>
<path id="Vector_22" d="M192.101 76.2209L171.946 97.6585L152.745 81.878L150.106 83.8134L171.214 108.154L189.537 98.1046L192.101 76.2209Z" fill="white" stroke="#2E3038" stroke-linecap="round" stroke-linejoin="round"/>
<path id="Vector_23" d="M222.223 81.7292L232.776 114.63L223.689 114.927L214.601 99.4451C214.601 99.4451 219.731 83.8879 222.223 81.7292Z" fill="white" stroke="#2E3038" stroke-linecap="round" stroke-linejoin="round"/>
<path id="Vector_24" d="M210.717 76.0721L222.222 81.7291L212.622 109.047L213.722 116.639L186.824 116.713L190.049 104.432L187.85 96.5421C187.557 95.4996 187.557 94.4575 187.777 93.4154L192.101 76.221L203.387 74.3601L210.717 76.0721Z" fill="white" stroke="#2E3038" stroke-linecap="round" stroke-linejoin="round"/>
<path id="Vector_25" d="M210.204 74.4347C210.204 74.4347 212.476 75.9978 212.549 77.3377C212.549 78.1565 212.549 79.5707 212.476 80.6872C212.402 81.5061 212.256 82.3993 211.889 83.1436L207.859 88.1307L203.168 84.3345L199.284 86.3443C199.284 86.3443 198.551 80.2406 200.236 75.9978C201.922 71.7551 209.325 73.3926 210.204 74.4347Z" fill="white" stroke="#2E3038" stroke-linecap="round" stroke-linejoin="round"/>
<path id="Vector_26" d="M213.427 62.6738C213.427 62.6738 212.475 66.0235 212.035 68.2565C211.595 70.4895 210.716 74.9556 210.789 76.5932C210.862 78.2308 203.899 85.3764 203.094 84.3344C202.288 83.2923 201.335 77.1142 201.335 77.1142L202.214 67.14C202.14 67.14 211.229 56.9424 213.427 62.6738Z" fill="white" stroke="#2E3038" stroke-linecap="round" stroke-linejoin="round"/>
<path id="Vector_27" d="M198.917 57.4636C198.917 57.4636 197.671 59.5477 197.671 60.441C197.671 61.3341 198.111 63.1206 198.037 63.6416C197.964 64.1627 196.718 65.8747 196.572 66.4702C196.425 66.9911 196.645 67.5122 197.085 67.7356C197.378 67.8844 197.671 68.0333 197.964 68.2565C197.964 68.2565 198.331 72.8715 198.917 74.0625C199.503 75.2535 200.016 75.7745 201.775 75.9234C203.534 76.0722 207.638 74.2113 208.225 72.7227C208.811 71.2339 208.884 69.4475 208.957 67.3634C209.031 65.2792 207.565 62.153 206.466 59.25C205.366 56.347 200.823 54.5606 198.917 57.4636Z" fill="white" stroke="#2E3038" stroke-linecap="round" stroke-linejoin="round"/>
<path id="Vector_28" d="M217.679 72.5738C220.754 72.5738 223.248 70.0411 223.248 66.9168C223.248 63.7926 220.754 61.2598 217.679 61.2598C214.602 61.2598 212.108 63.7926 212.108 66.9168C212.108 70.0411 214.602 72.5738 217.679 72.5738Z" fill="#2E3038" stroke="#2E3038" stroke-linecap="round" stroke-linejoin="round"/>
<path id="Vector_29" d="M198.844 57.1658C198.844 57.1658 201.116 55.2306 205.146 59.1011C209.177 62.9717 207.638 68.7032 210.349 69.8941C213.061 71.0851 218.045 65.2048 218.631 62.2274C219.218 59.25 217.459 53.2207 212.036 52.0298C206.612 50.8388 200.09 51.6577 198.844 57.1658Z" fill="#2E3038" stroke="#2E3038" stroke-linecap="round" stroke-linejoin="round"/>
<path id="Vector_30" d="M198.844 57.1657C198.696 55.4538 199.869 53.965 201.482 53.8162C201.701 53.8162 201.995 53.8162 202.214 53.8162C205.879 54.0394 206.246 59.9198 208.151 62.2273C210.056 64.5347 211.082 64.1626 211.082 64.1626C211.082 64.1626 207.785 65.1302 205.659 63.9392C203.534 62.7483 202.58 56.1237 198.844 57.1657Z" fill="#2E3038" stroke="#2E3038" stroke-linecap="round" stroke-linejoin="round"/>
<path id="Vector_31" d="M207.344 67.6611C207.344 67.6611 211.229 62.525 212.108 66.3212C212.988 70.1174 209.91 71.085 208.444 70.6385C206.978 70.1918 207.198 69.373 207.198 69.373" fill="white"/>
<path id="Vector_32" d="M207.344 67.6611C207.344 67.6611 211.229 62.525 212.108 66.3212C212.988 70.1174 209.91 71.085 208.444 70.6385C206.978 70.1918 207.198 69.373 207.198 69.373" stroke="#2E3038" stroke-linecap="round" stroke-linejoin="round"/>
<path id="Vector_33" d="M198.697 111.727C198.697 111.727 191.294 112.768 190.048 112.768C188.802 112.768 185.725 116.713 185.725 116.713H199.283L198.697 111.727Z" fill="white" stroke="#2E3038" stroke-linecap="round" stroke-linejoin="round"/>
<path id="Vector_34" d="M230.137 106.665L232.776 112.768C233.215 114.033 232.556 115.374 231.31 115.82C231.089 115.895 230.869 115.969 230.577 115.969L198.55 116.118L198.77 111.727L223.615 107.706" fill="white"/>
<path id="Vector_35" d="M230.137 106.665L232.776 112.768C233.215 114.033 232.556 115.374 231.31 115.82C231.089 115.895 230.869 115.969 230.577 115.969L198.55 116.118L198.77 111.727L223.615 107.706" stroke="#2E3038" stroke-linecap="round" stroke-linejoin="round"/>
<path id="Vector_36" d="M187.263 190.553L187.41 196.434H186.457L185.284 193.531L187.263 190.553Z" fill="#2E3038" stroke="#2E3038" stroke-linecap="round" stroke-linejoin="round"/>
<path id="Vector_37" d="M185.578 186.607L184.405 178.048L178.249 178.42L180.374 186.906L177.663 192.413L171.8 196.284C171.8 196.284 171.14 196.954 174.071 196.731C177.003 196.507 183.086 196.731 183.086 196.731L186.897 192.19C186.97 192.19 188.289 189.808 185.578 186.607Z" fill="white" stroke="#2E3038" stroke-linecap="round" stroke-linejoin="round"/>
<path id="Vector_38" d="M183.086 196.731L186.897 192.19C186.897 192.19 187.923 190.479 186.53 188.022C183.819 192.785 180.155 194.2 180.155 194.2L176.417 193.307L171.8 196.359C171.8 196.359 171.14 197.029 174.071 196.806C177.003 196.582 183.086 196.731 183.086 196.731Z" fill="#2E3038" stroke="#2E3038" stroke-linecap="round" stroke-linejoin="round"/>
<path id="Vector_39" d="M182.794 133.983L185.432 179.612L177.077 179.835L168.941 138.374C168.941 138.374 169.089 130.485 171.58 129.591C174.072 128.698 180.668 129.665 180.668 129.665" fill="#184AFB"/>
<path id="Vector_40" d="M182.794 133.983L185.432 179.612L177.077 179.835L168.941 138.374C168.941 138.374 169.089 130.485 171.58 129.591C174.072 128.698 180.668 129.665 180.668 129.665" stroke="#2E3038" stroke-linecap="round" stroke-linejoin="round"/>
<path id="Vector_41" d="M146.369 35.7285L156.703 65.2047C156.703 65.2047 155.31 71.8294 151.206 71.6061C147.102 71.3827 146.003 65.5025 144.903 64.6836C143.804 63.8649 142.191 57.4635 142.191 57.4635L146.369 35.7285Z" fill="white" stroke="#2E3038" stroke-linecap="round" stroke-linejoin="round"/>
<path id="Vector_42" d="M119.618 29.8481L102.835 35.9518L109.284 83.2923H139.553L146.368 35.7285L128.193 29.9227L119.618 29.8481Z" fill="white" stroke="#2E3038" stroke-linecap="round" stroke-linejoin="round"/>
<path id="Vector_43" d="M121.231 37.9616L123.65 41.6089L121.525 73.1693L124.676 81.357L127.827 73.3925L125.115 42.1299L127.314 36.7707L124.236 32.6768L121.231 37.9616Z" fill="#184AFB" stroke="#2E3038" stroke-linecap="round" stroke-linejoin="round"/>
<path id="Vector_44" d="M124.602 36.3983L120.278 39.6734L117.42 31.1134L119.399 26.7218L128.266 26.4985L130.392 28.5082L129.952 39.4502L124.602 36.3983Z" fill="white" stroke="#2E3038" stroke-linecap="round" stroke-linejoin="round"/>
<path id="Vector_45" d="M129.146 24.4889L128.486 29.997L123.65 36.324L119.985 29.8481V19.5762C119.985 19.5762 126.361 21.2137 129.146 24.4889Z" fill="white" stroke="#2E3038" stroke-linecap="round" stroke-linejoin="round"/>
<path id="Vector_46" d="M117.493 13.0259C117.493 7.96431 121.084 3.94482 125.554 3.94482C130.025 3.94482 132.517 8.26204 132.517 13.2492C132.517 14.8868 132.151 17.6408 132.077 19.1296C131.858 21.6603 131.125 22.7023 129.586 25.0098C124.748 32.4533 120.79 21.5114 118.739 17.8642C117.933 16.3754 117.493 14.7378 117.493 13.0259Z" fill="white" stroke="#2E3038" stroke-linecap="round" stroke-linejoin="round"/>
<path id="Vector_47" d="M129.072 14.5889L129.805 19.7993L127.387 19.7248" fill="white"/>
<path id="Vector_48" d="M129.072 14.5889L129.805 19.7993L127.387 19.7248" stroke="#2E3038" stroke-linecap="round" stroke-linejoin="round"/>
<path id="Vector_49" d="M134.423 13.6958L122.917 13.7702C122.623 14.6634 122.843 15.7055 123.503 16.4498C124.236 17.1942 127.241 16.8965 127.681 16.7476C128.12 16.5987 128.413 14.4401 128.413 14.4401H129.292C129.292 14.4401 129.366 16.6731 130.612 16.8221C131.858 16.9709 133.47 16.9709 133.763 16.7476C135.083 15.7799 134.423 13.6958 134.423 13.6958Z" fill="white" stroke="#2E3038" stroke-linecap="round" stroke-linejoin="round"/>
<path id="Vector_50" d="M118.959 18.683C118.959 18.683 121.523 24.0423 122.183 25.9776C122.843 27.9129 125.848 29.3271 128.925 28.285C132.004 27.243 131.197 22.628 131.197 22.628C131.197 22.628 127.9 19.7995 127.313 20.395C126.727 20.9905 123.429 23.7445 123.209 23.0746C122.989 22.4047 121.597 18.683 121.597 18.683L120.937 16.0033L122.33 15.1101C122.769 14.7379 122.843 14.1424 122.476 13.6959L121.816 12.7282C121.67 12.5049 121.597 12.2071 121.67 11.9094C121.816 11.0906 122.33 9.37862 123.356 8.93201C124.821 8.33653 126.58 9.22974 128.266 9.60192C129.951 9.97413 131.71 8.4854 131.71 8.4854L132.443 10.9417C134.056 9.37862 135.228 7.36888 135.741 5.21027C136.548 1.63741 128.192 0.223145 125.481 0.223145C122.769 0.223145 118.518 1.71184 117.272 5.65688C116.026 9.60192 118.225 18.0131 118.959 18.683Z" fill="#2E3038" stroke="#2E3038" stroke-linecap="round" stroke-linejoin="round"/>
<path id="Vector_51" d="M119.326 17.0453C119.326 17.0453 117.054 14.5146 117.054 17.2686C117.054 20.0227 117.713 20.0227 119.105 20.9903C120.498 21.958 120.938 20.7671 120.938 20.7671" fill="white"/>
<path id="Vector_52" d="M119.326 17.0453C119.326 17.0453 117.054 14.5146 117.054 17.2686C117.054 20.0227 117.713 20.0227 119.105 20.9903C120.498 21.958 120.938 20.7671 120.938 20.7671" stroke="#2E3038" stroke-linecap="round" stroke-linejoin="round"/>
<path id="Vector_53" d="M149.593 188.617H149.667L149.447 187.575L139.553 83.3667H109.211L99.2441 188.692H99.3174L105.767 189.287C105.767 189.287 112.876 164.947 112.876 163.161C112.876 161.374 114.928 144.552 114.928 144.552L125.042 108.451L134.056 144.403C134.056 144.403 136.108 161.225 136.108 163.012C136.108 164.798 143.291 189.212 143.291 189.212L149.373 188.692L149.593 188.617Z" fill="#2E3038" stroke="#2E3038" stroke-linecap="round" stroke-linejoin="round"/>
<path id="Vector_54" d="M99.3907 188.617C99.3907 188.617 95.5065 191.669 93.3078 192.562C91.1091 193.456 86.9316 195.688 86.9316 195.688C86.9316 195.688 86.9316 197.103 90.5229 197.103H104.667L104.447 188.617H99.3907Z" fill="#2E3038" stroke="#2E3038" stroke-linecap="round" stroke-linejoin="round"/>
<path id="Vector_55" d="M104.667 195.54C99.0243 195.837 93.3077 195.688 87.6646 195.242L86.9316 195.614C86.9316 195.614 86.9316 197.029 90.5229 197.029H104.741L104.667 195.54Z" fill="white" stroke="#2E3038" stroke-linecap="round" stroke-linejoin="round"/>
<path id="Vector_56" d="M149.008 188.617C149.008 188.617 152.891 191.669 155.09 192.562C157.289 193.456 161.467 195.688 161.467 195.688C161.467 195.688 161.467 197.103 157.875 197.103H143.73L144.024 188.617H149.008Z" fill="#2E3038" stroke="#2E3038" stroke-linecap="round" stroke-linejoin="round"/>
<path id="Vector_57" d="M143.73 195.54C149.373 195.837 155.09 195.688 160.734 195.242L161.467 195.614C161.467 195.614 161.467 197.029 157.875 197.029H143.73V195.54Z" fill="white" stroke="#2E3038" stroke-linecap="round" stroke-linejoin="round"/>
<path id="Vector_58" d="M102.835 35.9519L91.6221 66.2469H102.322L106.353 57.9846L102.835 35.9519Z" fill="white" stroke="#2E3038" stroke-linecap="round" stroke-linejoin="round"/>
<path id="Vector_59" d="M151.646 61.5575C147.175 59.6966 132.81 58.729 132.078 58.729C131.345 58.729 108.039 56.7936 106.134 56.4959C104.228 56.1982 102.029 60.6643 102.029 60.6643L112.143 60.3665L124.456 62.8973C124.456 62.8973 149.373 72.0528 151.28 71.5317C151.499 71.4573 151.793 71.3084 151.939 71.0852" fill="white"/>
<path id="Vector_60" d="M151.646 61.5575C147.175 59.6966 132.81 58.729 132.078 58.729C131.345 58.729 108.039 56.7936 106.134 56.4959C104.228 56.1982 102.029 60.6643 102.029 60.6643L112.143 60.3665L124.456 62.8973C124.456 62.8973 149.373 72.0528 151.28 71.5317C151.499 71.4573 151.793 71.3084 151.939 71.0852" stroke="#2E3038" stroke-linecap="round" stroke-linejoin="round"/>
<path id="Vector_61" d="M99.5372 60.1431L138.087 56.2725L138.38 59.6221L105.034 69.8941C105.034 69.8941 99.0241 71.3083 94.3336 70.4151C89.6432 69.5219 91.8419 64.8325 92.9412 62.0784" fill="white"/>
<path id="Vector_62" d="M99.5372 60.1431L138.087 56.2725L138.38 59.6221L105.034 69.8941C105.034 69.8941 99.0241 71.3083 94.3336 70.4151C89.6432 69.5219 91.8419 64.8325 92.9412 62.0784" stroke="#2E3038" stroke-linecap="round" stroke-linejoin="round"/>
<path id="Vector_63" d="M138.088 56.2724L145.49 55.9746L147.688 60.4408L138.381 59.6219L138.088 56.2724Z" fill="white" stroke="#2E3038" stroke-linecap="round" stroke-linejoin="round"/>
<path id="Vector_64" d="M187.265 121.552L193.567 197.699C193.64 198.145 194.08 198.443 194.52 198.443C194.52 198.443 194.519 198.443 194.593 198.443C194.96 198.368 195.252 197.996 195.18 197.55L190.855 121.626L187.265 121.552Z" fill="#2E3038" stroke="#2E3038" stroke-linecap="round" stroke-linejoin="round"/>
<path id="Vector_65" d="M229.552 121.552L235.928 197.996C236.001 198.443 236.441 198.74 236.88 198.74H236.954C237.321 198.666 237.613 198.294 237.54 197.847L233.216 121.626L229.552 121.552Z" fill="#2E3038" stroke="#2E3038" stroke-linecap="round" stroke-linejoin="round"/>
<path id="Vector_66" d="M54.9782 121.552L51.6803 197.029C51.607 197.401 51.9001 197.847 52.2666 197.922C52.7063 197.996 53.146 197.773 53.2193 197.327C53.2193 197.327 53.2193 197.252 53.2193 197.178L58.5694 121.552H54.9782Z" fill="#2E3038" stroke="#2E3038" stroke-linecap="round" stroke-linejoin="round"/>
<path id="Vector_67" d="M15.9884 121.552L12.6904 196.731C12.6904 197.178 12.9103 197.55 13.35 197.624C13.7898 197.699 14.2295 197.475 14.3028 197.029V196.955L19.5795 121.552H15.9884Z" fill="#2E3038" stroke="#2E3038" stroke-linecap="round" stroke-linejoin="round"/>
<path id="Vector_68" d="M237.832 117.384H13.6426V123.934H237.832V117.384Z" fill="#184AFB" stroke="#2E3038" stroke-linecap="round" stroke-linejoin="round"/>
<path id="Vector_69" d="M237.832 117.384H13.6426V119.616H237.832V117.384Z" fill="#2E3038" stroke="#2E3038" stroke-linecap="round" stroke-linejoin="round"/>
<path id="Vector_70" d="M237.76 117.384H181.694V123.934H237.76V117.384Z" fill="#2E3038" stroke="#2E3038" stroke-linecap="round" stroke-linejoin="round"/>
<path id="Vector_71" d="M239.812 115.225H11.6641V117.756H239.812V115.225Z" fill="#184AFB" stroke="#2E3038" stroke-linecap="round" stroke-linejoin="round"/>
<path id="Vector_72" d="M239.812 115.225H184.04V117.756H239.812V115.225Z" fill="#2E3038" stroke="#2E3038" stroke-linecap="round" stroke-linejoin="round"/>
<path id="Vector_73" d="M62.4533 114.927H93.0879C93.3077 114.927 93.5276 114.778 93.6742 114.555L102.176 94.9042C102.322 94.6065 102.176 94.2343 101.883 94.0854C101.809 94.0854 101.736 94.011 101.663 94.011H70.9547C70.7349 94.011 70.515 94.1598 70.4417 94.3831L62.0136 114.034C61.867 114.332 62.0136 114.704 62.3067 114.853C62.3067 114.927 62.38 114.927 62.4533 114.927Z" fill="white" stroke="#2E3038" stroke-linecap="round" stroke-linejoin="round"/>
<path id="Vector_74" d="M65.3117 113.438H91.4024C91.6222 113.438 91.7688 113.289 91.8421 113.14L99.0977 96.3931C99.2443 96.169 99.0977 95.7973 98.8778 95.7229C98.8045 95.6484 98.7313 95.6484 98.6579 95.6484H72.5672C72.3473 95.6484 72.2008 95.7973 72.1275 95.9462L64.872 112.694C64.7254 112.917 64.872 113.289 65.1651 113.364C65.2384 113.438 65.2384 113.438 65.3117 113.438Z" fill="#184AFB" stroke="#2E3038" stroke-linecap="round" stroke-linejoin="round"/>
<path id="Vector_75" d="M93.5271 113.661H47.502V115.15H93.5271V113.661Z" fill="white" stroke="#2E3038" stroke-linecap="round" stroke-linejoin="round"/>
<path id="Vector_76" d="M93.5278 113.661H71.248V115.15H93.5278V113.661Z" fill="white" stroke="#2E3038" stroke-linecap="round" stroke-linejoin="round"/>
<path id="Vector_77" d="M108.332 103.017H100.197V115.225H108.332V103.017Z" fill="white" stroke="#2E3038" stroke-linecap="round" stroke-linejoin="round"/>
<path id="Vector_78" d="M107.965 113.587H107.086C106.719 113.587 106.426 113.289 106.426 112.917C106.426 112.545 106.719 112.247 107.086 112.247H107.965C108.698 112.247 109.211 111.652 109.211 110.982V108.005C109.211 107.26 108.624 106.739 107.965 106.739H106.866C106.499 106.739 106.206 106.441 106.206 106.069C106.206 105.697 106.499 105.399 106.866 105.399H107.965C109.431 105.399 110.53 106.59 110.53 108.005V110.982C110.53 112.396 109.357 113.587 107.965 113.587Z" fill="white" stroke="#2E3038" stroke-linecap="round" stroke-linejoin="round"/>
<path id="Vector_79" d="M171.653 114.927H141.018C140.799 114.927 140.579 114.778 140.505 114.555L132.004 94.9042C131.857 94.6065 132.004 94.2343 132.297 94.0854C132.371 94.0854 132.444 94.011 132.517 94.011H163.152C163.372 94.011 163.591 94.1598 163.737 94.3831L172.239 114.034C172.386 114.332 172.239 114.704 171.946 114.853C171.873 114.927 171.726 114.927 171.653 114.927Z" fill="white" stroke="#2E3038" stroke-linecap="round" stroke-linejoin="round"/>
<path id="Vector_80" d="M186.678 113.661H140.652V115.15H186.678V113.661Z" fill="white" stroke="#2E3038" stroke-linecap="round" stroke-linejoin="round"/>
<path id="Vector_81" d="M172.387 113.661H140.652V115.15H172.387V113.661Z" fill="white" stroke="#2E3038" stroke-linecap="round" stroke-linejoin="round"/>
<path id="Vector_82" d="M152.672 102.273C153.111 103.166 152.818 104.283 151.939 104.73C151.06 105.176 149.96 104.879 149.521 103.985C149.08 103.092 149.374 102.05 150.254 101.529C151.06 101.008 152.159 101.38 152.672 102.273Z" fill="white" stroke="#2E3038" stroke-linecap="round" stroke-linejoin="round"/>
<path id="Vector_83" d="M21.9983 97.3604C21.9983 97.3604 24.2703 102.199 24.4901 103.464C24.71 104.73 25.0031 107.334 24.0503 108.526C22.8778 109.94 21.7784 108.824 21.7784 108.824C21.7784 108.824 18.7736 108.079 18.7736 105.474C18.7736 102.869 18.5537 99.37 18.5537 99.37L21.9983 97.3604Z" fill="white" stroke="#2E3038" stroke-linecap="round" stroke-linejoin="round"/>
<path id="Vector_84" d="M19.5068 104.953L23.7575 106.069" stroke="#2E3038" stroke-linecap="round" stroke-linejoin="round"/>
<path id="Vector_85" d="M20.5328 102.05L21.7054 103.986C21.7054 103.986 18.9204 108.824 20.3862 107.559C21.852 106.293 24.7103 104.73 24.4171 103.464C23.9773 102.125 23.4643 100.86 22.7314 99.5942" fill="white"/>
<path id="Vector_86" d="M20.5328 102.05L21.7054 103.986C21.7054 103.986 18.9204 108.824 20.3862 107.559C21.852 106.293 24.7103 104.73 24.4171 103.464C23.9773 102.125 23.4643 100.86 22.7314 99.5942" stroke="#2E3038" stroke-linecap="round" stroke-linejoin="round"/>
<path id="Vector_87" d="M63.186 51.5088C63.186 51.5088 65.0183 57.3147 65.0183 58.4312C65.0183 59.25 64.9449 60.0688 64.8717 60.8875L66.484 63.4183C66.704 63.7905 66.5573 64.1627 66.2642 64.386L63.7724 65.8747C63.7724 65.8747 63.406 71.8295 63.0395 72.5738C62.673 73.3181 56.4435 73.1693 56.4435 73.1693L54.3914 77.1144L43.9111 72.946L46.6961 65.2792L46.1099 53.7419C46.1099 53.7419 52.5592 47.9359 63.186 51.5088Z" fill="white" stroke="#2E3038" stroke-linecap="round" stroke-linejoin="round"/>
<path id="Vector_88" d="M56.0043 65.5767C56.0043 65.5767 54.1721 67.2888 52.7796 67.4376C51.3871 67.5864 46.9898 66.5444 46.6234 66.0234C46.2569 65.5023 43.1788 59.0264 43.3254 55.9002C43.4719 52.7739 43.5452 48.159 46.8432 46.5959C50.1412 45.0328 55.418 45.5539 58.1297 43.8418C60.8414 42.1298 65.2387 40.7156 67.5106 43.6929C69.7825 46.6703 68.0969 50.9131 66.2647 52.6251C64.4325 54.3371 62.1606 54.8582 62.3804 55.6025C62.6003 56.3468 63.9928 57.2401 63.1865 58.3565C62.3804 59.4731 59.5222 60.5896 59.5222 61.0363C59.5222 61.4828 60.1818 63.1204 59.4489 63.3437C58.716 63.567 57.8365 61.7806 57.0304 61.7806C56.2242 61.7806 54.5385 64.0881 56.0043 65.5767Z" fill="#2E3038" stroke="#2E3038" stroke-linecap="round" stroke-linejoin="round"/>
<path id="Vector_89" d="M55.8574 65.8748L57.3232 66.2469C57.1766 67.6611 57.5431 69.0754 58.4225 70.1919" fill="white"/>
<path id="Vector_90" d="M55.8574 65.8748L57.3232 66.2469C57.1766 67.6611 57.5431 69.0754 58.4225 70.1919" stroke="#2E3038" stroke-linecap="round" stroke-linejoin="round"/>
<path id="Vector_91" d="M57.543 61.8552L67.8767 59.25" stroke="#2E3038" stroke-linecap="round" stroke-linejoin="round"/>
<path id="Vector_92" d="M65.2383 59.0266L67.5836 59.1011C67.5836 59.1011 68.3897 61.7807 65.9712 62.153" stroke="#2E3038" stroke-linecap="round" stroke-linejoin="round"/>
<path id="Vector_93" d="M54.8315 187.724C54.8315 187.724 64.3591 193.828 66.0447 193.828C67.7303 193.828 68.5365 195.391 67.7303 195.54C66.9241 195.688 61.7206 195.912 58.2028 196.061C54.685 196.21 52.3397 195.912 50.3609 195.912C48.3822 195.912 46.0369 196.061 45.0109 195.54C43.9848 195.019 45.6704 189.212 45.6704 188.245C45.6704 187.278 53.6589 187.055 54.8315 187.724Z" fill="#2E3038" stroke="#2E3038" stroke-linecap="round" stroke-linejoin="round"/>
<path id="Vector_94" d="M67.0709 194.126C63.3333 195.391 57.3969 194.572 53.7325 194.2C50.8742 193.902 46.4036 193.902 44.5714 193.828C44.4981 194.721 44.5714 195.391 44.8645 195.54C45.8906 196.061 48.2358 195.912 50.2146 195.912C52.1934 195.912 54.5386 196.285 58.0565 196.061C61.5743 195.838 66.7778 195.688 67.5839 195.54C68.3169 195.465 68.0237 194.572 67.0709 194.126Z" fill="white" stroke="#2E3038" stroke-linecap="round" stroke-linejoin="round"/>
<path id="Vector_95" d="M62.3069 145.743L54.7582 184.077L56.2973 188.022C55.1979 189.66 53.439 190.851 51.5335 191.297C49.4081 191.744 47.2095 191.967 45.0108 191.967C45.0108 191.967 44.2046 187.724 44.7177 187.204C45.2307 186.683 45.3773 184.673 45.3773 184.673L49.7013 146.115L62.3069 145.743Z" fill="#184AFB" stroke="#2E3038" stroke-linecap="round" stroke-linejoin="round"/>
<path id="Vector_96" d="M85.2465 186.46C85.2465 186.46 91.1096 191.372 93.7479 192.266C96.3864 193.159 99.2446 193.977 99.2446 194.796C99.2446 195.615 92.8685 196.508 88.0315 195.987C83.1944 195.466 75.7922 193.307 74.1799 193.307C72.5675 193.307 72.8607 188.916 72.8607 188.171C72.8607 187.427 81.069 182.067 85.2465 186.46Z" fill="#2E3038" stroke="#2E3038" stroke-linecap="round" stroke-linejoin="round"/>
<path id="Vector_97" d="M99.3174 194.795C99.3174 194.498 98.951 194.2 98.3647 193.903C93.6009 194.572 88.6906 194.498 83.9269 193.828C79.0898 193.158 75.0589 192.19 73.0068 191.669C73.1534 192.562 73.5198 193.307 74.1795 193.307C75.8651 193.307 83.1939 195.54 88.031 195.987C92.868 196.434 99.3174 195.614 99.3174 194.795Z" fill="white" stroke="#2E3038" stroke-linecap="round" stroke-linejoin="round"/>
<path id="Vector_98" d="M56.1509 128.623C61.1345 128.251 66.1914 128.325 71.175 128.995C79.6765 130.037 98.7315 131.229 99.098 133.387C99.4645 135.545 84.2937 181.546 84.2937 182.737C84.2937 183.928 85.6129 185.119 85.9793 185.789C86.1993 186.236 86.2725 186.757 86.3458 187.352C86.3458 187.352 82.2416 191.818 79.0902 193.01C75.9388 194.2 73.2271 193.084 72.5675 193.084C71.908 193.084 71.908 188.468 72.421 186.311C72.934 184.152 73.7402 178.494 73.96 177.973C74.1799 177.452 83.2677 144.776 83.2677 144.776C83.2677 144.776 58.3495 148.869 43.472 147.158C28.5944 145.445 27.0554 143.063 26.2491 139.49C25.443 135.917 27.0554 128.772 27.0554 128.772L56.1509 128.623Z" fill="#184AFB" stroke="#2E3038" stroke-linecap="round" stroke-linejoin="round"/>
<path id="Vector_99" d="M54.2449 139.639C53.8784 140.161 53.5119 140.607 53.1455 141.054" stroke="#2E3038" stroke-linecap="round" stroke-linejoin="round"/>
<path id="Vector_100" d="M58.7892 130.485C57.8364 132.94 56.7371 135.322 55.4912 137.63" stroke="#2E3038" stroke-linecap="round" stroke-linejoin="round"/>
<path id="Vector_101" d="M56.8103 132.196C54.7581 135.545 51.7533 138.225 48.0889 139.64" stroke="#2E3038" stroke-linecap="round" stroke-linejoin="round"/>
<path id="Vector_102" d="M94.7734 141.575C95.3597 141.352 95.8727 141.129 96.3858 140.905L94.7734 141.575Z" fill="white"/>
<path id="Vector_103" d="M94.7734 141.575C95.3597 141.352 95.8727 141.129 96.3858 140.905" stroke="#2E3038" stroke-linecap="round" stroke-linejoin="round"/>
<path id="Vector_104" d="M83.1943 144.775C86.419 144.18 89.5704 143.36 92.7219 142.319L83.1943 144.775Z" fill="white"/>
<path id="Vector_105" d="M83.1943 144.775C86.419 144.18 89.5704 143.36 92.7219 142.319" stroke="#2E3038" stroke-linecap="round" stroke-linejoin="round"/>
<path id="Vector_106" d="M102.542 88.3541C102.909 86.9399 103.495 87.0143 102.982 86.5678C102.323 85.8978 101.81 86.7166 99.9774 87.7586C98.1451 88.8008 96.2396 90.1406 96.2396 90.1406C96.3129 89.7685 96.4595 89.3962 96.6793 89.0985C97.1191 88.2797 97.4123 87.3865 97.4123 86.4933C97.4123 85.7489 96.826 85.8978 96.606 86.6422C96.3862 87.3865 94.2608 88.6519 94.1876 89.2474C94.1143 89.8429 93.6746 92.1504 93.6746 92.1504C93.0149 93.1924 93.0149 97.9567 93.0149 97.9567L79.4566 108.303L72.5674 116.49C72.5674 116.49 75.5722 121.403 77.2579 120.734C78.9435 120.063 79.7497 119.393 83.7805 115.969C87.1519 113.066 95.7266 99.8173 95.7266 99.8173C97.1924 98.849 98.5849 97.8077 99.9041 96.6163C101.443 94.9044 102.323 92.6713 102.469 90.3639C102.396 89.6195 102.396 88.9496 102.542 88.3541Z" fill="white" stroke="#2E3038" stroke-linecap="round" stroke-linejoin="round"/>
<path id="Vector_107" d="M39.7336 72.5737C39.7336 72.5737 41.0528 67.661 46.4761 68.6287C51.8996 69.5963 56.1502 74.2113 57.103 75.8489C58.0557 77.4864 39.3672 75.1789 39.3672 75.1789L39.7336 72.5737Z" fill="white" stroke="#2E3038" stroke-linecap="round" stroke-linejoin="round"/>
<path id="Vector_108" d="M71.3213 115.523C71.3213 115.523 70.0754 116.937 71.3213 119.095C72.2008 120.585 73.7398 121.775 76.6714 121.254C79.4563 120.733 83.5606 113.811 83.5606 108.898C83.5606 103.986 80.0426 103.687 78.7235 104.655C77.4043 105.623 71.3213 115.523 71.3213 115.523Z" fill="white" stroke="#2E3038" stroke-linecap="round" stroke-linejoin="round"/>
<path id="Vector_109" d="M42.0798 72.0524C42.0798 72.0524 29.0343 78.3049 27.2021 79.4959C25.3699 80.6868 24.1973 95.4249 24.1973 98.0306C24.1973 100.635 26.0296 125.571 26.5426 129.814C27.0555 134.057 43.1057 136.959 48.4559 135.396C53.8059 133.833 59.0094 130.037 59.0094 128.623C59.0094 127.208 58.4964 115.746 58.8628 113.512C59.2292 111.28 62.2341 101.975 62.2341 101.975L71.3952 116.787C71.3952 116.787 72.3479 118.574 75.7191 117.159C80.5562 115.15 80.996 107.26 80.996 107.26C80.996 107.26 75.6458 97.7325 74.1068 92.9686C72.5677 88.2048 71.9082 84.6319 71.2486 83.8131C70.5889 82.9943 55.4915 75.8486 52.8531 73.9877C49.775 71.5313 45.7442 70.8614 42.0798 72.0524Z" fill="white" stroke="#2E3038" stroke-linecap="round" stroke-linejoin="round"/>
<path id="Vector_110" d="M62.1599 101.901L57.8359 95.4998" stroke="#2E3038" stroke-linecap="round" stroke-linejoin="round"/>
<path id="Vector_111" d="M61.4277 101.008L53.8057 97.2114" stroke="#2E3038" stroke-linecap="round" stroke-linejoin="round"/>
<path id="Vector_112" d="M38.7812 149.762L45.4505 197.996C45.5238 198.443 45.8903 198.74 46.33 198.666H46.4033C46.7697 198.591 47.0628 198.219 46.9896 197.773L42.2991 148.944L38.7812 149.762Z" fill="#2E3038" stroke="#2E3038" stroke-linecap="round" stroke-linejoin="round"/>
<path id="Vector_113" d="M19.5796 150.135L8.36643 197.55C8.29314 197.996 8.513 198.443 8.95274 198.517H9.02603C9.39247 198.591 9.8322 198.294 9.90549 197.922L22.8776 151.921L19.5796 150.135Z" fill="#2E3038" stroke="#2E3038" stroke-linecap="round" stroke-linejoin="round"/>
<path id="Vector_114" d="M39.8078 149.539L32.6987 197.699C32.6254 198.145 32.9186 198.592 33.3584 198.666H33.4317C33.7981 198.666 34.1645 198.443 34.2378 197.996L43.2523 151.028L39.8078 149.539Z" fill="#2E3038" stroke="#2E3038" stroke-linecap="round" stroke-linejoin="round"/>
<path id="Vector_115" d="M65.0186 149.762L71.6878 197.996C71.7611 198.443 72.1275 198.74 72.5672 198.666H72.6406C73.007 198.591 73.3001 198.219 73.2269 197.773L68.4631 148.944L65.0186 149.762Z" fill="#2E3038" stroke="#2E3038" stroke-linecap="round" stroke-linejoin="round"/>
<path id="Vector_116" d="M8.95312 99.6681L17.0882 153.409H74.9129C74.9129 153.409 75.7923 137.928 73.2272 132.493C70.6621 127.059 39.2213 138.746 38.0487 138.448C37.2425 138.225 38.4884 110.535 40.0275 99.6681C40.4672 96.7652 38.4151 94.0108 35.5569 93.5642C35.337 93.5642 35.0439 93.4897 34.824 93.4897H14.2299C11.2984 93.4897 8.95312 95.8717 8.95312 98.8489C8.95312 99.147 8.95312 99.37 8.95312 99.6681Z" fill="#184AFB" stroke="#2E3038" stroke-linecap="round" stroke-linejoin="round"/>
<path id="Vector_117" d="M73.3004 132.419C70.7352 126.911 39.2945 138.672 38.1219 138.374C37.3156 138.151 38.5616 110.461 40.1006 99.5931C40.6137 96.7652 38.7814 94.0853 35.9965 93.5642C33.2115 93.0432 30.5731 94.904 30.0601 97.7325C29.9136 98.4027 29.9136 98.9979 30.0601 99.6681L38.1951 153.409H75.0593C74.986 153.409 75.7921 137.928 73.3004 132.419Z" fill="#2E3038" stroke="#2E3038" stroke-linecap="round" stroke-linejoin="round"/>
<path id="Vector_118" d="M102.543 88.354C102.543 88.354 101.59 89.3216 100.197 90.9592L102.543 88.354Z" fill="white"/>
<path id="Vector_119" d="M102.543 88.354C102.543 88.354 101.59 89.3216 100.197 90.9592" stroke="#2E3038" stroke-linecap="round" stroke-linejoin="round"/>
<path id="Vector_120" d="M102.396 90.2148C102.396 90.2148 101.223 92.5223 100.563 93.6388L102.396 90.2148Z" fill="white"/>
<path id="Vector_121" d="M102.396 90.2148C102.396 90.2148 101.223 92.5223 100.563 93.6388" stroke="#2E3038" stroke-linecap="round" stroke-linejoin="round"/>
</g>
</g>
</g>
</g>
<defs>
<clipPath id="clip0_12_4313">
<rect width="236" height="200" fill="white"/>
</clipPath>
</defs>
</svg>
