<svg width="255" height="240" viewBox="0 0 255 240" fill="none" xmlns="http://www.w3.org/2000/svg">
<g id="edu2 2" clip-path="url(#clip0_101_1973)">
<g id="Group">
<path id="Vector" opacity="0.08" d="M1.52971 147.556C1.52971 147.556 9.68518 191.358 51.0496 215.094C92.4069 238.83 143.82 233.168 185.611 229.672C227.402 226.175 255.6 198.009 254.992 162.008C254.385 126.007 221.196 120.456 197.904 82.9021C174.611 45.3549 174.122 31.9197 134.058 12.7387C93.9933 -6.43541 39.5537 17.3494 16.2683 64.1807C-7.01712 111.012 1.52971 147.556 1.52971 147.556Z" fill="white"/>
<path id="Vector_2" d="M1.52971 147.556C1.52971 147.556 9.68518 191.358 51.0496 215.094C92.4069 238.83 143.82 233.168 185.611 229.672C227.402 226.175 255.6 198.009 254.992 162.008C254.385 126.007 221.196 120.456 197.904 82.9021C174.611 45.3549 174.122 31.9197 134.058 12.7387C93.9933 -6.43541 39.5537 17.3494 16.2683 64.1807C-7.01712 111.012 1.52971 147.556 1.52971 147.556Z" fill="white"/>
</g>
<path id="Vector_3" d="M254.306 94.4783C258.778 68.3497 241.171 43.5534 214.983 39.0922C188.795 34.6312 163.939 52.1955 159.467 78.322C154.996 104.451 172.602 129.247 198.79 133.707C224.978 138.169 249.834 120.605 254.306 94.4783Z" fill="#184AFB"/>
<path id="Vector_4" d="M218.997 119.025C237.056 112.352 246.277 92.3363 239.589 74.3176C232.899 56.299 212.837 47.102 194.775 53.7751C176.714 60.4483 167.496 80.4639 174.184 98.4826C180.872 116.501 200.936 125.698 218.997 119.025Z" fill="white"/>
<path id="Vector_5" d="M215.582 105.534C226.798 101.637 232.534 89.91 228.398 79.3415C224.26 68.775 211.814 63.3683 200.6 67.2652C189.384 71.164 183.645 82.8909 187.783 93.4594C191.921 104.026 204.366 109.433 215.582 105.534Z" fill="#184AFB"/>
<path id="Vector_6" d="M206.885 97.2001C212.864 97.2001 217.711 92.365 217.711 86.401C217.711 80.4352 212.864 75.6001 206.885 75.6001C200.908 75.6001 196.061 80.4352 196.061 86.401C196.061 92.365 200.908 97.2001 206.885 97.2001Z" fill="#111111"/>
<path id="Vector_7" d="M151.908 57.2855C151.342 57.2855 150.874 56.8327 150.859 56.2686C150.859 56.1294 150.336 42.2206 145.15 32.3445C143.941 30.0392 142.767 28.1656 141.656 26.2922C137.771 20.0238 135.045 7.63342 134.863 0.522359C134.863 0.236803 135.101 0 135.387 0C135.673 0 135.912 0.236803 135.912 0.522359C136.086 7.36876 139.72 19.2159 143.438 25.2404C144.598 27.114 145.793 29.0502 147.03 31.4182C152.438 41.7261 152.956 55.6557 152.977 56.2477C152.991 56.8188 152.537 57.2994 151.964 57.3203L151.908 57.2855Z" fill="#2E3038"/>
<path id="Vector_8" d="M132.572 138C132.313 138 132.096 137.812 132.055 137.561C131.53 134.288 134.318 118.359 140.077 109.528C145.835 100.697 146.43 93.3908 146.436 93.3143C146.472 92.7362 146.974 92.2973 147.554 92.3392C148.134 92.374 148.575 92.8754 148.534 93.4535C148.534 93.7669 147.981 101.268 141.845 110.677C135.856 119.858 132.669 134.727 133.103 137.409C133.145 137.694 132.949 137.958 132.662 138H132.572Z" fill="#2E3038"/>
<path id="Vector_9" d="M150.272 54.8478L149.399 63.902L150.097 66.862C150.097 66.862 149.922 73.6528 149.748 77.1351C149.628 79.3151 149.272 81.4742 148.699 83.5775L146.777 87.0599L146.254 94.1988L148.874 94.373C148.874 94.373 152.193 75.394 152.543 71.0409C152.892 66.6879 152.892 54.4995 152.892 54.4995L150.272 54.8478Z" fill="#184AFB" stroke="#2E3038" stroke-linecap="round" stroke-linejoin="round"/>
<path id="Vector_10" d="M69.3813 225.137C68.962 227.568 68.3191 229.963 67.4595 232.276C66.2366 235.236 65.7123 237.499 67.11 238.37C68.5077 239.24 69.7307 241.156 73.5743 237.499C77.418 233.843 77.418 231.579 77.418 229.664C77.4529 228.152 77.5717 226.642 77.7674 225.137C77.7674 225.137 72.5261 222.525 69.3813 225.137Z" fill="white" stroke="#2E3038" stroke-linecap="round" stroke-linejoin="round"/>
<path id="Vector_11" d="M103.1 211.709C103.1 211.709 103.331 211.952 103.722 212.315C104.875 213.422 106.196 214.334 107.642 215.017C110.089 216.062 112.36 216.584 112.36 217.804C112.36 219.022 109.913 219.196 106.769 219.196C103.624 219.196 101.178 218.325 99.2565 218.152C97.3346 217.977 94.0151 217.977 93.491 217.977C92.9668 217.977 91.7439 215.54 92.4427 212.928C93.1416 210.316 98.2081 209.097 99.7806 209.968C101.353 210.838 103.1 211.709 103.1 211.709Z" fill="white" stroke="#2E3038" stroke-linecap="round" stroke-linejoin="round"/>
<path id="Vector_12" d="M78.8145 120.665C78.8145 120.665 76.718 131.461 76.3686 135.291C76.0192 139.122 76.718 154.967 76.3686 157.753C76.0192 160.538 73.5732 179.343 73.3985 183C73.2238 186.657 70.6032 191.183 70.6032 196.93V218.172C70.6032 218.172 68.6814 220.262 69.0307 221.655C69.2614 222.804 69.3802 223.967 69.3802 225.137C70.5892 224.42 72.0428 224.232 73.3985 224.615C75.495 225.311 77.941 226.356 77.941 226.356C78.7656 224.74 79.185 222.943 79.164 221.132C79.164 217.998 78.9892 215.386 79.3387 214.864C79.6881 214.342 81.2605 198.323 83.5317 193.447C85.8029 188.571 89.8213 160.017 90.3454 158.449L94.0144 147.479C94.0144 147.479 94.189 173.423 94.189 176.906C94.189 180.388 93.4901 185.611 93.4901 189.268C93.4901 192.925 93.3155 204.591 93.3155 205.114C93.3155 205.635 91.9178 208.074 91.9178 208.77C91.9178 209.466 92.7913 214.515 92.7913 214.515C92.7913 214.515 96.635 212.426 98.2073 212.078C99.8287 211.835 101.464 211.722 103.099 211.73C102.687 210.47 102.163 209.244 101.527 208.074C100.828 207.028 102.226 200.063 102.051 197.452C101.876 194.84 105.196 183.697 106.244 177.428C107.292 171.159 107.467 145.913 107.118 142.43C106.768 138.947 106.593 134.594 106.593 134.594V120.665C106.593 120.665 101.876 124.322 92.2672 121.884C82.6582 119.446 79.1639 118.575 78.8145 120.665Z" fill="#2E3038" stroke="#2E3038" stroke-linecap="round" stroke-linejoin="round"/>
<path id="Vector_13" d="M128.957 72.2597L146.254 72.0855L149.748 70.3443C149.748 70.3443 153.417 69.9961 153.941 71.7373C154.465 73.4785 154.815 75.2197 153.766 75.0455C153.124 74.9062 152.593 74.4466 152.369 73.8267C151.824 74.565 151.103 75.164 150.273 75.5679C149.301 76.0763 148.148 76.146 147.127 75.7421L127.734 80.4433C128.329 77.7479 128.741 75.0107 128.957 72.2597Z" fill="white" stroke="#2E3038" stroke-linecap="round" stroke-linejoin="round"/>
<path id="Vector_14" d="M121.619 72.956C122.339 72.5799 123.101 72.2875 123.89 72.0855C124.415 72.0855 128.782 70.1702 130.18 73.3043C131.578 76.4384 131.229 79.3985 128.433 81.1397C125.637 82.8809 122.842 81.662 122.667 80.6173C122.493 79.5727 121.619 72.956 121.619 72.956Z" fill="#184AFB" stroke="#2E3038" stroke-linecap="round" stroke-linejoin="round"/>
<path id="Vector_15" d="M49.3945 48.9068C50.0794 53.4062 51.2045 57.8219 52.7629 62.0982C55.2928 68.9376 64.6432 75.1712 69.6121 79.8515C72.2886 82.317 74.7415 85.0054 76.9499 87.8889C76.9499 87.8889 79.8431 105.398 79.2421 109.716C78.641 114.034 78.033 120.86 78.2777 121.829C78.5222 122.797 90.3117 125.91 96.3287 125.185C102.346 124.461 106.811 122.072 107.398 119.913C107.986 117.754 107.88 115.595 108.097 112.949C108.314 110.301 110.019 99.2763 110.019 94.7143C110.019 90.1525 109.536 84.2672 109.536 84.2672C109.536 84.2672 125.904 81.6275 126.868 80.4295C127.833 79.2316 127.714 74.9135 126.386 73.7085C125.058 72.5036 114.352 72.629 113.632 72.629C112.912 72.629 109.781 71.1942 106.644 71.1942C103.506 71.1942 93.6452 69.9963 92.3243 69.5157C90.2628 68.861 88.1592 68.3456 86.0348 67.9556C83.1486 67.3566 75.5522 65.6782 75.5522 65.6782C75.5522 65.6782 69.0529 61.4993 66.4044 58.7133C63.7557 55.9274 60.5062 52.3544 56.1734 50.3138C51.8405 48.2731 49.8767 46.7478 49.3945 48.9068Z" fill="#184AFB" stroke="#2E3038" stroke-linecap="round" stroke-linejoin="round"/>
<path id="Vector_16" d="M53.7539 62.0982L60.8541 57.78C60.8541 57.78 56.661 62.8156 55.4381 64.3757" stroke="#2E3038" stroke-linecap="round" stroke-linejoin="round"/>
<path id="Vector_17" d="M61.7849 57.4177C61.7849 57.4177 60.8275 63.5398 59.3809 66.0541" stroke="#2E3038" stroke-linecap="round" stroke-linejoin="round"/>
<path id="Vector_18" d="M83.707 80.6175L76.3691 66.3396L81.7852 82.3587" stroke="#2E3038" stroke-linecap="round" stroke-linejoin="round"/>
<path id="Vector_19" d="M109.739 76.0902L109.564 84.2878L112.186 74.8713" stroke="#2E3038" stroke-linecap="round" stroke-linejoin="round"/>
<path id="Vector_20" d="M86.8027 111.562C86.9353 111.939 87.0677 112.287 87.2002 112.607" stroke="#2E3038" stroke-linecap="round" stroke-linejoin="round"/>
<path id="Vector_21" d="M77.0684 74.2866C77.0684 74.2866 82.0511 96.6158 85.6921 108.247" stroke="#2E3038" stroke-linecap="round" stroke-linejoin="round"/>
<path id="Vector_22" d="M94.1907 78.0058L97.6849 82.8811L92.793 115.442L97.1607 122.921L101.354 113.874L99.432 82.707L101.528 76.961L96.986 72.9563L94.1907 78.0058Z" fill="#2E3038" stroke="#2E3038" stroke-linecap="round" stroke-linejoin="round"/>
<path id="Vector_23" d="M90.1928 65.2183L87.9006 66.1794L86.0977 67.9763L90.9127 80.8124L97.2022 77.1281L103.694 79.2175C103.694 79.2175 99.9695 70.9364 98.0407 68.1783C96.1119 65.4202 90.1928 65.2183 90.1928 65.2183Z" fill="#184AFB" stroke="#2E3038" stroke-linecap="round" stroke-linejoin="round"/>
<path id="Vector_24" d="M103.771 43.8576C103.771 43.8576 104.547 45.4038 106.287 42.7014C108.027 39.9991 107.685 36.5167 106.483 37.1296C105.281 37.7425 105.127 39.4489 105.127 39.4489C103.708 38.4877 102.136 37.7843 100.473 37.3594C98.3762 36.9694 89.9901 37.3594 87.0899 40.2569C84.1898 43.1542 83.5957 47.9878 84.7628 50.307C85.9298 52.6263 89.6127 61.5134 89.6127 61.5134C89.6127 61.5134 93.1069 60.1622 95.2384 59.4239C97.3698 58.6856 101.234 52.4591 101.626 48.9767C102.017 45.4944 101.828 45.4944 101.828 45.4944L103.771 43.8576Z" fill="#2E3038" stroke="#2E3038" stroke-linecap="round" stroke-linejoin="round"/>
<path id="Vector_25" d="M103.77 43.8573C104.525 45.6195 105.175 47.4303 105.706 49.2691C106.097 51.0103 105.321 51.7833 106.097 52.9395L108.033 55.8438L106.481 58.1631C106.481 58.1631 106.481 63.7349 106.286 64.9259C106.229 66.0542 105.266 66.9247 104.133 66.8691C104.077 66.8691 104.014 66.8621 103.959 66.8551C102.512 66.7437 101.086 66.486 99.6956 66.0821L97.1728 77.1003L89.6113 66.4721V61.4435L92.9099 57.9611C92.9099 57.9611 90.9671 54.4787 91.9385 53.3226C92.9099 52.1664 93.2942 50.4252 94.4613 51.9714C95.1322 52.8002 95.5376 53.81 95.6214 54.8687L96.9772 54.6737L97.3684 51.3864C97.3684 51.3864 100.667 50.0352 100.471 48.294C100.276 46.5527 98.3749 45.5916 98.1442 44.2404C97.9136 42.8892 103.77 43.8573 103.77 43.8573Z" fill="white" stroke="#2E3038" stroke-linecap="round" stroke-linejoin="round"/>
<path id="Vector_26" d="M105.113 50.223C105.113 50.223 103.547 48.7813 102.107 50.1045" stroke="#2E3038" stroke-linecap="round" stroke-linejoin="round"/>
<path id="Vector_27" d="M104.393 53.2251C104.393 53.7543 104.232 54.1792 104.029 54.1792C103.827 54.1792 103.666 53.7543 103.666 53.2251C103.666 52.6957 103.834 52.2639 104.029 52.2639C104.225 52.2639 104.393 52.6957 104.393 53.2251Z" fill="#2E3038"/>
<path id="Vector_28" d="M135.832 6.79102L101.121 64.5988L133.037 132.15" stroke="#2E3038" stroke-linecap="round" stroke-linejoin="round"/>
<path id="Vector_29" d="M113.284 64.5985C113.284 64.5985 110.782 66.2631 109.789 66.4303C108.797 66.5973 102.801 65.2671 102.801 65.2671L104.471 60.7678C104.471 60.7678 109.649 61.4643 110.816 61.7707C111.984 62.0772 113.284 64.5985 113.284 64.5985Z" fill="white" stroke="#2E3038" stroke-linecap="round" stroke-linejoin="round"/>
<path id="Vector_30" d="M157.358 70.4979H157.316L106.482 63.6933C106.203 63.6305 106.021 63.352 106.091 63.0665C106.147 62.8157 106.378 62.6485 106.629 62.6624L157.393 69.9755C157.54 69.9965 157.638 70.1287 157.617 70.275C157.595 70.4004 157.483 70.4979 157.358 70.4979Z" fill="#2E3038"/>
<path id="Vector_31" d="M98.9761 58.4834C98.9761 58.4834 104.392 60.8864 105.832 61.0048C107.272 61.1231 107.041 61.9659 106.531 63.1639C106.021 64.3618 105.329 68.1994 104.245 68.3248C103.162 68.4501 100.514 67.3637 100.514 67.0015C100.514 66.6393 101.471 66.4025 101.471 66.4025C101.471 66.4025 98.8294 66.2841 97.865 65.3229C96.9006 64.3618 94.6154 61.8405 94.6154 61.8405C94.6154 61.8405 75.3553 59.5561 72.1127 59.5561C68.8701 59.5561 57.6677 58.9571 54.9002 58.6019C52.1328 58.2467 51.2872 57.0418 50.0852 54.5205C48.8832 51.9993 48.6386 47.4443 49.9665 46.9638C51.2942 46.4831 60.7984 47.5627 64.2856 49.0044C67.7729 50.4462 84.5032 54.8827 87.5151 56.1991C90.5271 57.5153 98.9761 58.4834 98.9761 58.4834Z" fill="white" stroke="#2E3038" stroke-linecap="round" stroke-linejoin="round"/>
<path id="Vector_32" d="M62.2045 59.1797C61.6104 57.7102 61.1142 56.1989 60.7019 54.6666C60.1987 52.6607 60.8068 49.7285 61.226 48.1336C56.9772 47.1864 51.023 46.6222 49.9957 46.9914C48.6679 47.4719 48.9125 52.0269 50.1145 54.5482C51.3165 57.0694 52.1621 58.2673 54.9295 58.6295C56.1595 58.7828 59.0736 58.9847 62.2045 59.1797Z" fill="#184AFB" stroke="#2E3038" stroke-linecap="round" stroke-linejoin="round"/>
<path id="Vector_33" d="M56.6125 46.7478C55.9417 49.0183 55.9417 51.442 56.6125 53.7125C57.1157 55.8716 57.9753 57.9402 59.1423 59.8277L64.5584 60.3082L65.0336 59.4655C65.0336 59.4655 62.0285 56.4706 61.784 53.7125C61.6512 52.0549 62.2731 50.4252 63.4751 49.269C63.4751 49.269 58.5413 44.8255 56.6125 46.7478Z" fill="#184AFB" stroke="#2E3038" stroke-linecap="round" stroke-linejoin="round"/>
</g>
<defs>
<clipPath id="clip0_101_1973">
<rect width="255" height="240" fill="white"/>
</clipPath>
</defs>
</svg>
