<svg width="213" height="200" viewBox="0 0 213 200" fill="none" xmlns="http://www.w3.org/2000/svg">
<g id="edu2 1" clip-path="url(#clip0_1_893)">
<g id="Group">
<path id="Vector" opacity="0.08" d="M1.27541 122.964C1.27541 122.964 8.07164 159.465 42.542 179.245C77.0064 199.025 119.851 194.306 154.676 191.393C189.502 188.479 213.001 165.008 212.494 135.007C211.988 105.006 184.331 100.38 164.921 69.0849C145.51 37.7956 145.103 26.5996 111.716 10.6154C78.3284 -5.36301 32.962 14.4576 13.5576 53.4838C-5.84695 92.5098 1.27541 122.964 1.27541 122.964Z" fill="white"/>
<path id="Vector_2" d="M1.27541 122.964C1.27541 122.964 8.07164 159.465 42.542 179.245C77.0064 199.025 119.851 194.306 154.676 191.393C189.502 188.479 213.001 165.008 212.494 135.007C211.988 105.006 184.331 100.38 164.921 69.0849C145.51 37.7956 145.103 26.5996 111.716 10.6154C78.3284 -5.36301 32.962 14.4576 13.5576 53.4838C-5.84695 92.5098 1.27541 122.964 1.27541 122.964Z" fill="white"/>
</g>
<path id="Vector_3" d="M211.922 78.732C215.648 56.9582 200.976 36.2946 179.153 32.5769C157.33 28.8594 136.617 43.4963 132.89 65.2684C129.163 87.0422 143.835 107.706 165.659 111.423C187.482 115.141 208.195 100.504 211.922 78.732Z" fill="#184AFB"/>
<path id="Vector_4" d="M182.498 99.1875C197.547 93.6265 205.231 76.9469 199.657 61.9313C194.082 46.9157 177.364 39.2516 162.313 44.8125C147.262 50.3735 139.58 67.0531 145.153 82.0687C150.727 97.0843 167.447 104.748 182.498 99.1875Z" fill="white"/>
<path id="Vector_5" d="M179.651 87.9448C188.997 84.6974 193.778 74.925 190.331 66.1179C186.883 57.3125 176.51 52.8069 167.165 56.0543C157.819 59.3034 153.037 69.0758 156.485 77.8828C159.934 86.6883 170.304 91.1939 179.651 87.9448Z" fill="#184AFB"/>
<path id="Vector_6" d="M172.405 81C177.388 81 181.427 76.9708 181.427 72.0008C181.427 67.0292 177.388 63 172.405 63C167.424 63 163.385 67.0292 163.385 72.0008C163.385 76.9708 167.424 81 172.405 81Z" fill="#111111"/>
<path id="Vector_7" d="M126.589 47.7379C126.118 47.7379 125.728 47.3606 125.716 46.8905C125.716 46.7745 125.279 35.1838 120.958 26.9538C119.95 25.0326 118.972 23.4713 118.047 21.9101C114.809 16.6865 112.537 6.36119 112.386 0.4353C112.386 0.197336 112.583 0 112.822 0C113.061 0 113.259 0.197336 113.259 0.4353C113.405 6.14063 116.433 16.0132 119.531 21.0337C120.498 22.595 121.494 24.2085 122.525 26.1818C127.032 34.7718 127.463 46.3797 127.48 46.8731C127.492 47.349 127.114 47.7495 126.636 47.7669L126.589 47.7379Z" fill="#2E3038"/>
<path id="Vector_8" d="M110.476 115C110.26 115 110.08 114.843 110.045 114.635C109.608 111.906 111.932 98.6328 116.73 91.2735C121.529 83.9141 122.024 77.8257 122.03 77.7619C122.059 77.2801 122.478 76.9144 122.962 76.9493C123.445 76.9783 123.812 77.3962 123.778 77.8779C123.778 78.1391 123.317 84.39 118.204 92.2311C113.213 99.8813 110.557 112.273 110.919 114.507C110.954 114.745 110.791 114.965 110.551 115H110.476Z" fill="#2E3038"/>
<path id="Vector_9" d="M125.227 45.7065L124.498 53.2517L125.08 55.7183C125.08 55.7183 124.935 61.3773 124.789 64.2793C124.69 66.0959 124.393 67.8951 123.916 69.6479L122.314 72.5499L121.878 78.499L124.061 78.6441C124.061 78.6441 126.827 62.8283 127.119 59.2008C127.41 55.5732 127.41 45.4163 127.41 45.4163L125.227 45.7065Z" fill="#184AFB" stroke="#2E3038" stroke-linecap="round" stroke-linejoin="round"/>
<path id="Vector_10" d="M57.8178 187.615C57.4684 189.64 56.9326 191.636 56.2163 193.564C55.1971 196.03 54.7603 197.916 55.925 198.641C57.0898 199.367 58.1089 200.964 61.3119 197.916C64.515 194.869 64.515 192.983 64.515 191.387C64.5441 190.127 64.6431 188.868 64.8061 187.615C64.8061 187.615 60.4384 185.438 57.8178 187.615Z" fill="white" stroke="#2E3038" stroke-linecap="round" stroke-linejoin="round"/>
<path id="Vector_11" d="M85.9167 176.424C85.9167 176.424 86.1088 176.627 86.435 176.929C87.3958 177.852 88.4966 178.612 89.7019 179.181C91.7407 180.052 93.6332 180.486 93.6332 181.503C93.6332 182.518 91.5944 182.663 88.9739 182.663C86.3535 182.663 84.3152 181.938 82.7137 181.793C81.1121 181.647 78.3459 181.647 77.9091 181.647C77.4724 181.647 76.4532 179.616 77.0356 177.44C77.618 175.263 81.8401 174.247 83.1505 174.973C84.4608 175.699 85.9167 176.424 85.9167 176.424Z" fill="white" stroke="#2E3038" stroke-linecap="round" stroke-linejoin="round"/>
<path id="Vector_12" d="M65.6797 100.554C65.6797 100.554 63.9327 109.551 63.6415 112.743C63.3503 115.935 63.9327 129.139 63.6415 131.461C63.3503 133.782 61.312 149.453 61.1664 152.501C61.0208 155.547 58.8369 159.32 58.8369 164.108V181.81C58.8369 181.81 57.2354 183.552 57.5266 184.713C57.7188 185.67 57.8178 186.639 57.8178 187.614C58.8253 187.017 60.0366 186.86 61.1664 187.179C62.9135 187.759 64.9518 188.63 64.9518 188.63C65.6389 187.283 65.9884 185.786 65.9709 184.277C65.9709 181.665 65.8253 179.488 66.1165 179.054C66.4077 178.618 67.7181 165.269 69.6107 161.206C71.5034 157.143 74.852 133.347 75.2888 132.041L78.3463 122.9C78.3463 122.9 78.4918 144.52 78.4918 147.422C78.4918 150.324 77.9094 154.676 77.9094 157.724C77.9094 160.771 77.7639 170.493 77.7639 170.928C77.7639 171.363 76.5992 173.395 76.5992 173.975C76.5992 174.555 77.3271 178.763 77.3271 178.763C77.3271 178.763 80.5301 177.022 81.8404 176.732C83.1915 176.529 84.5542 176.436 85.917 176.442C85.5735 175.391 85.1366 174.37 84.6067 173.395C84.0243 172.524 85.189 166.72 85.0434 164.544C84.8979 162.367 87.6643 153.081 88.5378 147.857C89.4113 142.633 89.5568 121.594 89.2659 118.692C88.9741 115.79 88.8287 112.162 88.8287 112.162V100.554C88.8287 100.554 84.8979 103.602 76.8903 101.57C68.8828 99.5386 65.9709 98.8131 65.6797 100.554Z" fill="#2E3038" stroke="#2E3038" stroke-linecap="round" stroke-linejoin="round"/>
<path id="Vector_13" d="M107.463 60.2165L121.878 60.0714L124.789 58.6204C124.789 58.6204 127.847 58.3302 128.283 59.7812C128.72 61.2322 129.011 62.6831 128.138 62.538C127.602 62.4219 127.16 62.0389 126.973 61.5224C126.519 62.1376 125.919 62.6367 125.226 62.9734C124.416 63.397 123.456 63.4551 122.605 63.1185L106.444 67.0361C106.94 64.79 107.283 62.509 107.463 60.2165Z" fill="white" stroke="#2E3038" stroke-linecap="round" stroke-linejoin="round"/>
<path id="Vector_14" d="M101.35 60.7969C101.95 60.4835 102.585 60.2398 103.242 60.0715C103.679 60.0715 107.319 58.4753 108.484 61.0871C109.648 63.6989 109.358 66.1656 107.028 67.6166C104.698 69.0676 102.369 68.0519 102.223 67.1813C102.078 66.3108 101.35 60.7969 101.35 60.7969Z" fill="#184AFB" stroke="#2E3038" stroke-linecap="round" stroke-linejoin="round"/>
<path id="Vector_15" d="M41.1621 40.7557C41.7328 44.5051 42.6704 48.1848 43.9691 51.7485C46.0773 57.448 53.8694 62.6426 58.0101 66.5428C60.2405 68.5975 62.2846 70.8378 64.1249 73.2407C64.1249 73.2407 66.5359 87.832 66.0351 91.4303C65.5342 95.0286 65.0275 100.717 65.2314 101.524C65.4352 102.331 75.2597 104.925 80.274 104.321C85.2881 103.718 89.0091 101.726 89.4986 99.9273C89.988 98.1281 89.9 96.329 90.0812 94.1238C90.2615 91.9177 91.6828 82.7302 91.6828 78.9286C91.6828 75.127 91.2804 70.2226 91.2804 70.2226C91.2804 70.2226 104.92 68.0228 105.723 67.0246C106.527 66.0263 106.428 62.4279 105.322 61.4237C104.215 60.4196 95.2935 60.5241 94.6935 60.5241C94.0934 60.5241 91.4842 59.3285 88.8698 59.3285C86.2549 59.3285 78.0377 58.3302 76.9369 57.9297C75.219 57.3841 73.466 56.9546 71.6957 56.6296C69.2905 56.1305 62.9602 54.7318 62.9602 54.7318C62.9602 54.7318 57.5441 51.2493 55.337 48.9277C53.1298 46.6061 50.4218 43.6286 46.8111 41.9281C43.2005 40.2275 41.5639 38.9564 41.1621 40.7557Z" fill="#184AFB" stroke="#2E3038" stroke-linecap="round" stroke-linejoin="round"/>
<path id="Vector_16" d="M44.7959 51.7486L50.7127 48.1501C50.7127 48.1501 47.2185 52.3464 46.1994 53.6465" stroke="#2E3038" stroke-linecap="round" stroke-linejoin="round"/>
<path id="Vector_17" d="M51.4877 47.8481C51.4877 47.8481 50.6899 52.9499 49.4844 55.0451" stroke="#2E3038" stroke-linecap="round" stroke-linejoin="round"/>
<path id="Vector_18" d="M69.7565 67.1812L63.6416 55.283L68.155 68.6322" stroke="#2E3038" stroke-linecap="round" stroke-linejoin="round"/>
<path id="Vector_19" d="M91.4492 63.4086L91.3037 70.2398L93.4879 62.3928" stroke="#2E3038" stroke-linecap="round" stroke-linejoin="round"/>
<path id="Vector_20" d="M72.3359 92.9688C72.4464 93.2822 72.5567 93.5722 72.6671 93.8389" stroke="#2E3038" stroke-linecap="round" stroke-linejoin="round"/>
<path id="Vector_21" d="M64.2236 61.9055C64.2236 61.9055 68.3759 80.5131 71.4101 90.206" stroke="#2E3038" stroke-linecap="round" stroke-linejoin="round"/>
<path id="Vector_22" d="M78.4919 65.0048L81.4038 69.0675L77.3271 96.2016L80.9669 102.435L84.4611 94.8951L82.8596 68.9224L84.6068 64.1341L80.8214 60.7969L78.4919 65.0048Z" fill="#2E3038" stroke="#2E3038" stroke-linecap="round" stroke-linejoin="round"/>
<path id="Vector_23" d="M75.1607 54.3486L73.2505 55.1496L71.748 56.647L75.7606 67.3438L81.0018 64.2735L86.412 66.0147C86.412 66.0147 83.308 59.1137 81.7006 56.8153C80.0933 54.5169 75.1607 54.3486 75.1607 54.3486Z" fill="#184AFB" stroke="#2E3038" stroke-linecap="round" stroke-linejoin="round"/>
<path id="Vector_24" d="M86.4764 36.5479C86.4764 36.5479 87.123 37.8364 88.5731 35.5844C90.0231 33.3325 89.7375 30.4305 88.7359 30.9412C87.7344 31.452 87.6064 32.874 87.6064 32.874C86.4239 32.073 85.1136 31.4869 83.7275 31.1327C81.9805 30.8077 74.992 31.1328 72.5752 33.5473C70.1585 35.9618 69.6634 39.9897 70.636 41.9224C71.6085 43.8552 74.6776 51.2611 74.6776 51.2611C74.6776 51.2611 77.5894 50.1351 79.3656 49.5198C81.1418 48.9046 84.3623 43.7159 84.6885 40.8139C85.0146 37.9119 84.8574 37.9119 84.8574 37.9119L86.4764 36.5479Z" fill="#2E3038" stroke="#2E3038" stroke-linecap="round" stroke-linejoin="round"/>
<path id="Vector_25" d="M86.4756 36.5477C87.1047 38.0162 87.6464 39.5252 88.0888 41.0575C88.4145 42.5085 87.7683 43.1527 88.4145 44.1162L90.0283 46.5364L88.735 48.4692C88.735 48.4692 88.735 53.1124 88.5722 54.1048C88.5251 55.0451 87.7222 55.7705 86.7784 55.7241C86.7318 55.7241 86.6793 55.7183 86.6328 55.7125C85.4273 55.6196 84.2393 55.4049 83.0803 55.0683L80.978 64.2502L74.6768 55.3933V51.2028L77.4256 48.3008C77.4256 48.3008 75.8066 45.3989 76.6161 44.4354C77.4256 43.4719 77.7458 42.0209 78.7184 43.3094C79.2775 44.0001 79.6153 44.8416 79.6851 45.7239L80.815 45.5614L81.141 42.8219C81.141 42.8219 83.8898 41.6959 83.7267 40.2449C83.5637 38.7938 81.9797 37.9929 81.7875 36.8669C81.5953 35.7409 86.4756 36.5477 86.4756 36.5477Z" fill="white" stroke="#2E3038" stroke-linecap="round" stroke-linejoin="round"/>
<path id="Vector_26" d="M87.5945 41.8525C87.5945 41.8525 86.2895 40.6511 85.0898 41.7538" stroke="#2E3038" stroke-linecap="round" stroke-linejoin="round"/>
<path id="Vector_27" d="M86.9943 44.3542C86.9943 44.7952 86.8604 45.1493 86.6915 45.1493C86.5226 45.1493 86.3887 44.7952 86.3887 44.3542C86.3887 43.913 86.5284 43.5532 86.6915 43.5532C86.8545 43.5532 86.9943 43.913 86.9943 44.3542Z" fill="#2E3038"/>
<path id="Vector_28" d="M113.194 5.65918L84.2676 53.8323L110.864 110.125" stroke="#2E3038" stroke-linecap="round" stroke-linejoin="round"/>
<path id="Vector_29" d="M94.4029 53.8321C94.4029 53.8321 92.318 55.2193 91.4906 55.3586C90.6641 55.4978 85.667 54.3893 85.667 54.3893L87.0589 50.6399C87.0589 50.6399 91.3739 51.2203 92.3467 51.4757C93.3195 51.7311 94.4029 53.8321 94.4029 53.8321Z" fill="white" stroke="#2E3038" stroke-linecap="round" stroke-linejoin="round"/>
<path id="Vector_30" d="M131.131 58.7482H131.096L88.7347 53.0777C88.5022 53.0254 88.3507 52.7933 88.409 52.5554C88.4552 52.3464 88.6476 52.2071 88.8575 52.2187L131.161 58.3129C131.283 58.3304 131.364 58.4406 131.347 58.5625C131.329 58.667 131.236 58.7482 131.131 58.7482Z" fill="#2E3038"/>
<path id="Vector_31" d="M82.4801 48.7361C82.4801 48.7361 86.9934 50.7385 88.1931 50.8372C89.3932 50.9358 89.2007 51.6382 88.7757 52.6364C88.3507 53.6347 87.7742 56.8327 86.8712 56.9372C85.9685 57.0416 83.7614 56.1363 83.7614 55.8344C83.7614 55.5326 84.5592 55.3353 84.5592 55.3353C84.5592 55.3353 82.3578 55.2366 81.5541 54.4357C80.7505 53.6347 78.8462 51.5337 78.8462 51.5337C78.8462 51.5337 62.7961 49.6299 60.0939 49.6299C57.3918 49.6299 48.0564 49.1308 45.7502 48.8348C43.444 48.5388 42.7394 47.5347 41.7376 45.4337C40.736 43.3326 40.5321 39.5368 41.6387 39.1363C42.7452 38.7358 50.6653 39.6355 53.5714 40.8369C56.4774 42.0383 70.4193 45.7355 72.9293 46.8325C75.4393 47.9293 82.4801 48.7361 82.4801 48.7361Z" fill="white" stroke="#2E3038" stroke-linecap="round" stroke-linejoin="round"/>
<path id="Vector_32" d="M51.8361 49.3166C51.341 48.092 50.9275 46.8325 50.584 45.5556C50.1646 43.884 50.6713 41.4406 51.0207 40.1115C47.48 39.3221 42.5182 38.852 41.6621 39.1596C40.5556 39.56 40.7594 43.3559 41.7611 45.4569C42.7628 47.558 43.4674 48.5562 45.7736 48.858C46.7986 48.9858 49.227 49.1541 51.8361 49.3166Z" fill="#184AFB" stroke="#2E3038" stroke-linecap="round" stroke-linejoin="round"/>
<path id="Vector_33" d="M47.1771 38.9564C46.6181 40.8485 46.6181 42.8683 47.1771 44.7604C47.5964 46.5596 48.3127 48.2834 49.2853 49.8563L53.7986 50.2568L54.1946 49.5545C54.1946 49.5545 51.6904 47.0588 51.4867 44.7604C51.376 43.379 51.8942 42.0209 52.8959 41.0575C52.8959 41.0575 48.7844 37.3545 47.1771 38.9564Z" fill="#184AFB" stroke="#2E3038" stroke-linecap="round" stroke-linejoin="round"/>
</g>
<defs>
<clipPath id="clip0_1_893">
<rect width="212.5" height="200" fill="white"/>
</clipPath>
</defs>
</svg>
