<svg width="200" height="200" viewBox="0 0 200 200" fill="none" xmlns="http://www.w3.org/2000/svg">
<g id="edu4 1" clip-path="url(#clip0_12_3998)">
<path id="Vector" d="M1.20033 111.742C1.20033 111.742 7.59678 146.341 40.0394 165.089C72.4766 183.837 112.801 179.365 145.578 176.603C178.355 173.841 200.471 151.594 199.995 123.158C199.518 94.7216 173.488 90.3371 155.22 60.674C136.951 31.0164 136.567 20.4044 105.144 5.2538C73.7208 -9.89128 31.0231 8.90113 12.76 45.8919C-5.50306 82.8828 1.20033 111.742 1.20033 111.742Z" fill="white"/>
<path id="Vector_2" d="M197.917 97.4776H114.785C114.631 97.4776 114.511 97.3569 114.511 97.2026V39.6866C114.511 39.5325 114.631 39.4115 114.785 39.4115H197.917C198.07 39.4115 198.191 39.5325 198.191 39.6866V97.2026C198.191 97.3569 198.07 97.4776 197.917 97.4776ZM115.059 96.9276H197.643V39.9616H115.059V96.9276Z" fill="#2E3038"/>
<path id="Vector_3" d="M189.816 47.9769C188.643 47.9769 187.689 47.0196 187.689 45.8424C187.689 44.6651 188.643 43.7079 189.816 43.7079C190.989 43.7079 191.943 44.6651 191.943 45.8424C191.943 47.0196 190.995 47.9769 189.816 47.9769ZM189.816 44.258C188.945 44.258 188.238 44.9676 188.238 45.8424C188.238 46.7171 188.945 47.4268 189.816 47.4268C190.688 47.4268 191.395 46.7171 191.395 45.8424C191.395 44.9676 190.688 44.258 189.816 44.258Z" fill="#2E3038"/>
<path id="Vector_4" d="M185.025 45.8424C185.025 46.8712 184.198 47.7019 183.173 47.7019C182.148 47.7019 181.32 46.8712 181.32 45.8424C181.32 44.8137 182.148 43.983 183.173 43.983C184.198 43.983 185.025 44.8192 185.025 45.8424Z" fill="#2E3038"/>
<path id="Vector_5" d="M178.383 45.8424C178.383 46.8712 177.555 47.7019 176.53 47.7019C175.505 47.7019 174.678 46.8712 174.678 45.8424C174.678 44.8137 175.505 43.983 176.53 43.983C177.555 43.983 178.383 44.8192 178.383 45.8424Z" fill="#2E3038"/>
<path id="Vector_6" d="M192.513 54.3724C192.513 53.2679 191.618 52.3724 190.513 52.3724H122.612C121.508 52.3724 120.612 53.2679 120.612 54.3724V90.3724C120.612 91.477 121.508 92.3724 122.612 92.3724H190.513C191.618 92.3724 192.513 91.477 192.513 90.3724V54.3724Z" fill="#184AFB"/>
<path id="Vector_7" d="M160.356 85.1493H160.274C152.244 84.9733 145.875 78.2946 146.05 70.2352C146.22 62.3904 152.534 56.0859 160.35 55.9539H160.438C168.474 55.9758 174.969 62.5334 174.941 70.5983C174.919 78.6632 168.386 85.1823 160.356 85.1548V85.1493ZM160.356 56.4985C152.627 56.6305 146.467 63.023 146.593 70.7854C146.719 78.3277 152.759 84.4286 160.279 84.5937H160.362C168.095 84.6157 174.376 78.3442 174.399 70.5818C174.42 62.8195 168.172 56.515 160.438 56.493L160.356 56.4985Z" fill="white"/>
<path id="Vector_8" d="M157.073 65L157 76L167 70.5045L157.073 65Z" fill="white"/>
<path id="Vector_9" d="M24.5776 95.3655C24.5228 97.0758 23.4211 98.6163 23.3827 100.316C23.3499 101.912 24.2487 103.364 24.5556 104.927C24.8845 106.609 24.5556 108.337 24.7694 110.026C24.9175 111.115 25.2189 112.177 25.6519 113.19C25.9698 113.987 26.4905 114.68 27.1647 115.209C28.2609 116.022 29.823 115.99 31.1439 115.99C32.5087 116.066 33.8625 115.682 34.9807 114.89C35.8194 114.13 36.499 113.211 36.9758 112.183C37.4966 111.39 37.82 110.483 37.9131 109.536C37.9076 109.003 37.7925 108.475 37.5843 107.979C36.4881 105.278 33.7475 103.353 33.2871 100.481C33.0898 99.2543 33.3419 98.006 33.4515 96.7732C33.5612 95.5413 33.4899 94.1931 32.7444 93.1974C31.5112 91.5474 28.6226 91.2008 26.7152 91.206C23.9308 91.212 24.6488 93.3241 24.5776 95.3655Z" fill="white"/>
<path id="Vector_10" d="M30.82 116.27C29.5374 116.27 28.1178 116.232 27.0326 115.44C26.3146 114.884 25.7609 114.147 25.4266 113.305C24.9827 112.271 24.6812 111.187 24.5278 110.07C24.44 109.278 24.4126 108.48 24.4509 107.688C24.5003 106.786 24.4509 105.878 24.314 104.987C24.1769 104.387 23.9906 103.799 23.7659 103.227C22.9108 101.494 22.8998 99.4638 23.7329 97.725C24.0509 96.9716 24.2427 96.1681 24.314 95.3543C24.314 94.9802 24.314 94.6009 24.314 94.2543C24.2756 93.1974 24.2372 92.2017 24.8621 91.5638C25.3773 91.1069 26.0624 90.8819 26.7476 90.9423C28.5125 90.9423 31.6312 91.2009 33.007 93.044C33.6757 93.9345 33.9168 95.1285 33.7689 96.8069C33.7415 97.1147 33.7085 97.4224 33.6702 97.725C33.5222 98.6276 33.5003 99.5405 33.599 100.448C33.851 102.016 34.8158 103.287 35.8407 104.629C36.6628 105.62 37.348 106.715 37.8796 107.886C38.099 108.409 38.2195 108.97 38.2305 109.536C38.1318 110.522 37.8029 111.462 37.2603 112.287C36.756 113.343 36.0545 114.295 35.194 115.082C34.032 115.918 32.6178 116.331 31.1872 116.248H30.82V116.27ZM24.8785 95.3655C24.8072 96.2345 24.6045 97.0923 24.2701 97.9017C23.4753 99.519 23.4863 101.422 24.303 103.028C24.5332 103.628 24.714 104.244 24.8511 104.872C24.999 105.801 25.0484 106.747 24.999 107.688C24.9607 108.453 24.9881 109.223 25.0703 109.988C25.2184 111.049 25.5089 112.089 25.9309 113.074C26.2269 113.828 26.7202 114.488 27.3559 114.983C28.3535 115.709 29.7677 115.709 31.0119 115.709H31.1708C32.4753 115.791 33.7689 115.417 34.8377 114.659C35.6434 113.916 36.2957 113.024 36.7615 112.028C37.2603 111.275 37.5672 110.411 37.6659 109.515C37.655 109.014 37.5509 108.519 37.3535 108.062C36.8438 106.934 36.1805 105.884 35.3858 104.937C34.3718 103.595 33.3194 102.187 33.0399 100.536C32.9302 99.5793 32.9577 98.6164 33.1111 97.6647C33.144 97.3621 33.1824 97.0595 33.2043 96.7569C33.3413 95.2224 33.133 94.1492 32.5521 93.3742C31.275 91.6629 28.0521 91.5086 26.7311 91.4923C26.194 91.4371 25.6568 91.6026 25.2402 91.9431C24.7963 92.4112 24.8237 93.2526 24.8621 94.2319C24.8621 94.6112 24.8949 95.0017 24.8621 95.3931L24.8785 95.3655Z" fill="#2E3038"/>
<path id="Vector_11" d="M28.1348 115.687L29.9655 130.271C29.9655 130.271 40.3138 127.718 43.3668 123.62L37.4966 110.659" fill="white"/>
<path id="Vector_12" d="M29.965 130.546C29.9101 130.546 29.8554 130.529 29.806 130.497C29.7403 130.453 29.7018 130.381 29.6909 130.304L27.8602 115.72C27.8383 115.572 27.948 115.434 28.0959 115.412C28.2439 115.39 28.3809 115.489 28.4029 115.637C28.4029 115.643 28.4029 115.648 28.4029 115.654L30.1952 129.924C31.8888 129.473 40.2694 127.097 43.0484 123.581L37.2439 110.774C37.1836 110.637 37.2439 110.472 37.3809 110.406C37.518 110.345 37.6824 110.406 37.7426 110.543L43.6184 123.504C43.6568 123.598 43.6458 123.703 43.5856 123.785C40.5106 127.911 30.4309 130.43 30.0253 130.535L29.965 130.546Z" fill="#2E3038"/>
<path id="Vector_13" d="M47.0055 124.627L50.2941 131.998L84.1345 112.028L90.5642 103.419L94.9927 114.229L85.9487 135.486C78.8891 140.443 71.4677 144.86 63.7448 148.69C60.0615 150.571 56.285 152.259 52.4263 153.74C48.7375 155.126 44.8953 156.072 41.0914 157.09C40.8338 157.184 40.5488 157.184 40.2911 157.09C40.1212 157.002 40.05 156.793 39.8965 156.666C37.1121 154.416 30.1292 134.359 29.4111 127.972L47.0055 124.627Z" fill="#2E3038"/>
<path id="Vector_14" d="M138.036 95.431L153.69 117.772C157.543 123.268 157.888 130.502 154.583 136.345C148.554 147.017 138.913 163.301 133.887 168.01C133.887 168.01 136.232 172.829 135.876 174.611C135.52 176.394 132.209 176.757 132.209 176.757L137.301 185.526C137.301 185.526 109.682 210.034 70.832 178.198L78.9167 149.757L74.636 146.687L91.8082 89.1155L109.457 87.212L114.824 101.472L120.617 94.5948L126.432 101.472L138.036 95.431Z" fill="#2E3038"/>
<path id="Vector_15" d="M63.1813 120.099C79.7911 120.099 93.2564 106.585 93.2564 89.9138C93.2564 73.2424 79.7911 59.7278 63.1813 59.7278C46.5714 59.7278 33.1064 73.2424 33.1064 89.9138C33.1064 106.585 46.5714 120.099 63.1813 120.099Z" fill="#184AFB"/>
<path id="Vector_16" d="M85.1986 130.552C85.1986 130.552 79.416 142.605 75.064 143.92L68.5525 135.574L63.0714 128.544L61.6737 126.81L61.6408 126.756L55.7815 116.144L55.1238 114.95L54.9264 114.081L54.4606 112.034L54.4277 111.885L54.5099 111.638L55.6061 108.574L57.5629 106.318V106.235L58.27 102.615L58.3467 102.225L60.2102 101.07C60.2102 101.07 60.2102 101.07 60.2102 101.042C60.0787 100.69 58.703 96.7569 59.7772 94.4681C60.002 93.9569 60.3857 93.5336 60.8735 93.2577C61.0872 93.137 61.3175 93.0379 61.5586 92.9724C61.6025 92.8784 61.6627 92.7957 61.734 92.7189C61.9039 92.5267 62.1999 92.3775 62.5452 92.8672C62.7042 93.1094 62.8302 93.3741 62.9179 93.6543C62.9783 93.8025 63.0385 93.9784 63.0988 94.1715C63.0988 94.2594 63.1482 94.3474 63.1756 94.4413C63.203 94.5344 63.2358 94.6388 63.2687 94.7431C63.3345 94.9638 63.4058 95.1836 63.477 95.4034C64.4855 98.5508 66.371 103.897 66.5135 104.283L71.0683 105.79L71.6164 105.966L71.885 106.703L73.4745 111.072L73.5787 111.358L73.628 111.709L74.6365 120.083L74.6749 120.121L83.2747 128.642L85.1986 130.552Z" fill="white"/>
<path id="Vector_17" d="M85.7084 131.222C85.6372 131.222 85.5714 131.195 85.522 131.146C77.8156 123.917 74.4557 120.314 74.4228 120.281C74.3844 120.236 74.357 120.182 74.3516 120.121L73.8363 114.823C73.6226 112.881 73.2279 110.967 72.6524 109.102C72.3784 107.979 71.8083 106.957 71.0081 106.126C70.1147 105.284 68.9855 105.075 67.7852 104.849C67.3412 104.767 66.8808 104.684 66.4314 104.564C66.2888 104.525 66.2011 104.382 66.2395 104.234V104.228C66.2779 104.079 66.4259 103.991 66.5739 104.03C67.0014 104.146 67.4509 104.228 67.8893 104.31C69.1117 104.536 70.3723 104.772 71.3863 105.729C72.2523 106.627 72.8661 107.732 73.1676 108.942C73.7541 110.846 74.1597 112.799 74.379 114.779L74.8887 119.984C75.382 120.506 78.7803 124.077 85.8948 130.755C86.0044 130.859 86.0154 131.03 85.9112 131.146C85.8564 131.206 85.7851 131.234 85.7084 131.234V131.222Z" fill="#2E3038"/>
<path id="Vector_18" d="M58.2258 110.175C58.1052 110.175 58.001 110.092 57.9627 109.977C57.5954 108.761 57.3707 107.507 57.294 106.236C57.1844 104.96 57.431 103.678 58.001 102.534L58.0449 102.451C58.4889 101.802 59.163 101.34 59.9304 101.164C60.0839 101.125 60.2373 101.213 60.2812 101.362C60.3196 101.516 60.2319 101.67 60.0784 101.714C59.4426 101.852 58.8835 102.231 58.5108 102.77L58.4724 102.836C57.9572 103.887 57.7379 105.064 57.8421 106.23C57.9188 107.457 58.1381 108.667 58.4944 109.845C58.5327 109.993 58.4505 110.141 58.3025 110.186L58.2258 110.175Z" fill="#2E3038"/>
<path id="Vector_19" d="M74.6363 143.21C74.554 143.21 74.4773 143.172 74.4225 143.111L61.4596 126.981L61.4268 126.932C59.2562 123.488 57.2885 119.923 55.5291 116.248C55.1674 115.461 54.8824 114.779 54.6631 114.163C54.4603 113.624 54.2904 113.074 54.1533 112.513C54.1533 112.485 54.1533 112.463 54.1533 112.435C54.1533 112.287 54.1533 112.139 54.1862 111.985C54.2191 111.83 54.1863 111.715 54.2411 111.578C54.411 110.466 54.7837 109.399 55.3373 108.425C55.8306 107.496 56.5321 106.692 57.3872 106.076C57.5132 105.994 57.6831 106.032 57.7654 106.159C57.8476 106.279 57.8147 106.45 57.6942 106.533C57.6887 106.533 57.6887 106.538 57.6831 106.538C56.9049 107.11 56.269 107.847 55.8141 108.7C55.288 109.619 54.9317 110.626 54.7672 111.671C54.7453 111.797 54.7288 111.924 54.7179 112.051C54.7014 112.177 54.6905 112.298 54.685 112.425C54.8111 112.953 54.9755 113.47 55.1674 113.976C55.3811 114.576 55.6606 115.247 56.0169 116.017C57.7599 119.653 59.7112 123.185 61.8543 126.596C61.8707 126.613 61.8817 126.635 61.8926 126.657L74.839 142.765C74.9322 142.88 74.9157 143.056 74.8006 143.149C74.7568 143.188 74.6965 143.21 74.6363 143.21Z" fill="#2E3038"/>
<path id="Vector_20" d="M87.8241 129.353C87.1164 131.338 86.1795 133.231 85.0284 134.996C80.8847 141.559 74.7404 148.53 74.7404 148.53C70.8214 144.937 65.3896 136.614 65.3896 136.614C68.0809 134.964 72.389 130.161 74.8116 127.085C77.1357 124.132 78.8184 121.617 78.8184 121.617L87.8241 129.353Z" fill="white"/>
<path id="Vector_21" d="M74.7292 148.805C74.6579 148.805 74.5921 148.778 74.5428 148.734C70.6457 145.158 65.2248 136.851 65.1481 136.762C65.1043 136.702 65.0934 136.625 65.1098 136.553C65.1262 136.482 65.1701 136.415 65.2304 136.378C67.9709 134.694 72.3174 129.776 74.5867 126.915C76.8558 124.054 78.5604 121.49 78.5768 121.469C78.6207 121.403 78.692 121.359 78.7687 121.347C78.8454 121.337 78.9222 121.359 78.9824 121.409L87.9936 129.143C88.0754 129.22 88.1082 129.335 88.0754 129.446C87.3573 131.448 86.4091 133.357 85.2473 135.134C81.142 141.642 74.9923 148.634 74.9319 148.7C74.8826 148.755 74.8113 148.788 74.7401 148.794L74.7292 148.805ZM65.7566 136.702C66.6499 138.044 71.2377 144.865 74.7072 148.139C75.765 146.923 81.1036 140.69 84.7869 134.853C85.8886 133.159 86.7987 131.344 87.4944 129.446L78.8619 122.035C78.3686 122.751 76.8997 124.874 75.0251 127.262C72.7888 130.084 68.5519 134.848 65.7566 136.697V136.702Z" fill="#2E3038"/>
<path id="Vector_22" d="M24.5444 93.5775C24.4842 92.7517 24.4677 91.7732 24.7417 91.437C25.0377 91.1181 25.394 90.8655 25.7886 90.6887C29.5432 88.7249 33.3032 86.7612 37.1838 85.0448C37.5236 84.8962 37.9512 84.7531 38.2527 84.9787C38.4829 85.2098 38.5761 85.5454 38.4938 85.8644C38.3075 86.8603 37.8251 87.7793 37.1181 88.5051C36.1589 89.5939 35.0134 90.5077 33.7417 91.206C33.3087 91.4206 32.8867 91.6629 32.4811 91.9327C31.9659 92.3448 31.489 92.8017 31.056 93.2965C30.7107 93.6491 30.3435 93.9732 29.9598 94.2818" fill="white"/>
<path id="Vector_23" d="M29.9654 94.5569C29.8831 94.5569 29.8009 94.5181 29.7516 94.4518C29.6584 94.3362 29.6749 94.1664 29.79 94.0724L29.7955 94.0673C30.1681 93.7699 30.5244 93.4457 30.8587 93.1043C30.9738 92.9888 31.0835 92.8733 31.1876 92.7578C31.533 92.3724 31.9112 92.0207 32.3222 91.7069C32.6346 91.4923 32.9635 91.3 33.3033 91.1293L33.6103 90.9638C34.8545 90.2819 35.9672 89.3854 36.8989 88.3181C37.5786 87.6414 38.0335 86.7724 38.2144 85.8315C38.2144 85.6885 38.2528 85.3364 38.0719 85.1989C37.891 85.0613 37.5237 85.1989 37.2826 85.2979C33.413 87.0087 29.6091 89.0061 25.9038 90.9371C25.5421 91.0905 25.2132 91.3216 24.9447 91.6078C24.8515 91.7233 24.709 92.1578 24.8076 93.5612C24.8186 93.7147 24.7035 93.8466 24.5555 93.8578C24.4075 93.869 24.2705 93.7535 24.2595 93.6052C24.1719 92.3233 24.2595 91.6026 24.5171 91.2664C24.835 90.9199 25.2242 90.6449 25.6517 90.4526C29.3514 88.5164 33.1718 86.519 37.0579 84.8028C37.469 84.5443 37.9842 84.5277 38.4062 84.7643C38.7187 85.0504 38.8557 85.4905 38.757 85.903C38.5706 86.9595 38.0609 87.9328 37.31 88.6923C36.3289 89.8035 35.1614 90.7328 33.8624 91.4431L33.55 91.6078C32.7881 91.9655 32.1194 92.488 31.5768 93.1319C31.4672 93.2526 31.352 93.3681 31.2425 93.4837C30.8971 93.8414 30.5299 94.1768 30.1462 94.4905C30.0969 94.5293 30.0312 94.5569 29.9654 94.5569Z" fill="#2E3038"/>
<path id="Vector_24" d="M27.8057 93.6155C28.0742 93.4836 28.3538 93.3681 28.6388 93.2802C31.3793 92.45 34.3665 92.6474 37.1345 91.8664C38.5321 91.4707 39.875 90.8216 41.3549 90.8319C41.7934 90.8319 42.3908 91.0138 42.3415 91.5638C42.2922 92.1138 41.914 92.3345 41.6235 92.6638C41.3056 93.0552 40.9602 93.4181 40.5931 93.7647C39.8257 94.4414 38.9542 94.9802 38.0114 95.3595C36.6247 95.8388 35.1942 96.1793 33.7362 96.3776C32.333 96.6474 30.9957 97.0819 29.6199 97.4776C29.2801 97.5767 28.9347 97.6647 28.5839 97.7362" fill="white"/>
<path id="Vector_25" d="M28.5839 98.0224C28.4523 98.0224 28.3428 97.9284 28.3154 97.8025C28.2824 97.6534 28.3811 97.5103 28.5291 97.4775C28.8361 97.4172 29.1594 97.3344 29.5431 97.225L30.3762 96.9827C31.4561 96.6413 32.5523 96.35 33.6649 96.1189L34.6022 95.9482C35.7258 95.7939 36.8275 95.5137 37.8908 95.1172C38.8061 94.7491 39.6503 94.2267 40.3957 93.5715C40.6588 93.3293 40.9054 93.0655 41.1302 92.7905L41.4042 92.4767C41.459 92.4112 41.5248 92.3448 41.5851 92.2844C41.8208 92.0922 41.9852 91.8336 42.051 91.5362C42.0619 91.4534 42.0345 91.3767 41.9852 91.3103C41.7988 91.162 41.5686 91.0905 41.3329 91.1069C40.3135 91.1569 39.3159 91.3767 38.3677 91.756C37.9786 91.8887 37.5839 92.0206 37.1892 92.1301C35.8135 92.4767 34.4158 92.7077 33.0017 92.8181C31.5492 92.9224 30.1131 93.1698 28.7045 93.5439C28.4304 93.6267 28.1673 93.731 27.9098 93.8638C27.7727 93.9293 27.6083 93.8801 27.5425 93.7422C27.4767 93.6051 27.5316 93.4396 27.6631 93.3681C27.9481 93.231 28.2441 93.1094 28.5455 93.0163C29.9816 92.631 31.4505 92.3784 32.9304 92.2681C34.3117 92.1637 35.6874 91.9379 37.0303 91.6025C37.4194 91.4922 37.7977 91.3655 38.1813 91.2336C39.1843 90.8379 40.2477 90.6069 41.3275 90.5569C41.7167 90.5405 42.0948 90.6784 42.3798 90.9422C42.5388 91.1181 42.61 91.3491 42.5827 91.5862C42.5169 92.0146 42.2976 92.4051 41.9687 92.6862L41.7988 92.862L41.5358 93.1698C41.2946 93.4672 41.0315 93.7422 40.752 94.006C39.9627 94.6991 39.0638 95.2603 38.0881 95.6569C36.9865 96.0637 35.8464 96.35 34.6844 96.5146L33.758 96.6853C32.6618 96.9 31.5656 97.2353 30.5023 97.5379L29.6692 97.7801C29.2745 97.8956 28.9292 97.9784 28.6113 98.0439L28.5839 98.0224Z" fill="#2E3038"/>
<path id="Vector_26" d="M27.2793 97.4837C27.8384 97.0319 28.4907 96.7078 29.1868 96.5423C30.5077 96.3552 31.8506 96.3552 33.1715 96.5423C35.49 96.7293 37.825 96.7078 40.1435 96.4819C40.5162 96.4104 40.8999 96.4104 41.2726 96.4819C43.4266 97.0931 40.5217 99.194 39.7105 99.5466C36.515 100.938 32.733 101.004 29.2964 100.922" fill="white"/>
<path id="Vector_27" d="M31.0126 101.263C30.4644 101.263 29.867 101.263 29.3024 101.263C29.149 101.257 29.0284 101.136 29.0339 100.982C29.0393 100.834 29.1654 100.713 29.3134 100.713C32.8378 100.801 36.5266 100.713 39.6015 99.3595C40.2537 99.0784 41.7939 97.8905 41.7939 97.2526C41.7939 97.0655 41.591 96.9163 41.2184 96.812C40.884 96.7517 40.5441 96.7517 40.2098 96.812C37.8694 97.0431 35.5125 97.0655 33.1666 96.8784L32.6185 96.8345C31.4949 96.675 30.3548 96.675 29.2312 96.8345C28.579 96.9939 27.9651 97.2965 27.4389 97.7198C27.3183 97.8129 27.1484 97.7913 27.0552 97.6707C26.962 97.5491 26.984 97.3784 27.0991 97.2853C27.691 96.8069 28.3816 96.4707 29.1216 96.2948C30.2945 96.1189 31.4894 96.1077 32.6678 96.262L33.183 96.306C35.4906 96.4879 37.8036 96.4707 40.1057 96.2457C40.5168 96.1793 40.9334 96.1905 41.339 96.2836C42.1118 96.5043 42.2981 96.9112 42.3146 97.2138C42.3913 98.3138 40.2647 99.6672 39.8042 99.8655C37.1459 101.026 34.0655 101.263 31.0126 101.263Z" fill="#2E3038"/>
<path id="Vector_28" d="M31.2861 101.141C31.2861 101.141 35.8464 107.193 32.5249 112.964L31.2861 101.141Z" fill="white"/>
<path id="Vector_29" d="M32.525 113.239C32.4757 113.239 32.4318 113.228 32.3881 113.206C32.2565 113.129 32.2126 112.959 32.2839 112.827C35.4793 107.265 31.1109 101.367 31.0671 101.312C30.9739 101.191 30.9958 101.015 31.1219 100.921C31.248 100.828 31.4179 100.85 31.5111 100.977C31.5549 101.037 36.1426 107.215 32.7662 113.079C32.7169 113.173 32.6292 113.234 32.525 113.239Z" fill="#2E3038"/>
<path id="Vector_30" d="M48.4805 126.8C48.4805 126.8 46.6772 129.743 40.9604 132.032C37.4361 133.374 33.7308 134.193 29.9653 134.452L28.2881 122.624C28.2881 122.624 31.9604 123.29 37.3046 121.012C39.3106 120.148 41.2071 119.054 42.961 117.75L48.4805 126.8Z" fill="white"/>
<path id="Vector_31" d="M29.9656 134.727C29.8286 134.727 29.7136 134.628 29.6971 134.491L28.0198 122.663C28.0034 122.575 28.0363 122.487 28.0966 122.426C28.1624 122.366 28.2501 122.344 28.3378 122.354C28.3706 122.354 31.9992 122.971 37.2007 120.76C39.1849 119.901 41.0594 118.817 42.7969 117.53C42.8627 117.486 42.9394 117.464 43.0161 117.48C43.0929 117.497 43.1532 117.541 43.197 117.607L48.7111 126.657C48.7658 126.745 48.7658 126.86 48.7111 126.948C48.6343 127.069 46.7981 129.991 41.0649 132.285C37.5131 133.638 33.7805 134.458 29.9876 134.727H29.9656ZM28.6283 122.943L30.2178 134.155C33.8682 133.88 37.4583 133.077 40.8786 131.779C45.7348 129.831 47.7354 127.378 48.1684 126.794L42.8792 118.152C41.1745 119.39 39.3329 120.435 37.398 121.266C32.9583 123.163 29.6806 123.031 28.6283 122.943Z" fill="#2E3038"/>
<path id="Vector_32" d="M132.538 65.1796C132.538 65.1796 133.876 65.8508 135.207 63.5733C136.539 61.2957 137.701 55.0572 134.77 54.5236C130.807 52.5871 129.469 55.3983 129.469 55.3983L127.063 46.6897C127.063 46.6897 126.4 38.6468 121.324 39.318C116.249 39.9891 113.311 45.617 113.311 45.617L99.5583 46.1671L99.1583 53.9405C99.1583 53.9405 96.8894 52.3341 96.2204 54.342C95.5514 56.3501 95.5514 63.0561 101.153 65.1961C101.153 65.1961 103.346 75.181 110.066 80.6438L113.354 80.8364L112.626 88.6534C114.171 91.8939 116.972 94.3638 120.37 95.4862C125.983 97.2301 131.168 86.2664 131.168 86.2664C131.168 86.2664 131.3 72.6779 132.538 65.1796Z" fill="white"/>
<path id="Vector_33" d="M100.727 64.877H100.661C98.1012 64.2773 96.3365 62.3408 95.7279 59.4141C95.1468 56.735 95.6675 53.8138 96.4787 53.1812C96.7581 52.9556 97.1201 52.8676 97.471 52.9391C98.6934 53.1482 99.8934 54.9911 99.9425 55.0681C100.025 55.1946 99.9925 55.3651 99.8658 55.4532C99.74 55.5357 99.5701 55.5027 99.4822 55.3707C99.1753 54.892 98.1943 53.6213 97.3779 53.4782C97.1856 53.4452 96.9831 53.4947 96.8296 53.6157C96.2813 54.0339 95.7003 56.658 96.2813 59.2986C96.6977 61.2131 97.8218 63.6391 100.83 64.3433C100.979 64.3764 101.067 64.5249 101.034 64.6734C101.001 64.8109 100.869 64.9045 100.727 64.877Z" fill="#2E3038"/>
<path id="Vector_34" d="M137.823 96.95C137.823 96.9664 137.823 96.9828 137.823 96.9992C136.622 98.5948 135.29 100.091 133.849 101.472C133.63 101.686 133.4 101.896 133.175 102.099C130.155 104.894 126.778 107.281 123.139 109.196L123.056 109.245L120.629 94.5897C124.109 92.5759 127.2 89.9578 129.766 86.8552L129.941 86.6681C130.319 86.25 130.966 85.6555 131.163 85.3474C131.832 84.3077 131.712 84.7533 131.712 84.7533L131.273 82.6683L131.043 81.6066L131.289 81.7221C137.839 86.4914 137.971 96.1026 137.823 96.95Z" fill="white"/>
<path id="Vector_35" d="M123.046 109.531C123.002 109.531 122.963 109.52 122.925 109.498C122.848 109.459 122.788 109.388 122.777 109.3L120.343 94.6448C120.332 94.556 120.36 94.4741 120.42 94.4077C120.459 94.375 120.508 94.3474 120.557 94.325C123.686 92.1965 126.598 89.7482 129.239 87.031L129.853 86.3706C130.664 85.5398 131.426 84.665 132.133 83.7408C132.221 83.6143 132.391 83.5868 132.517 83.6748C132.643 83.7628 132.67 83.9334 132.583 84.0599C131.859 85.0006 131.081 85.8974 130.253 86.7448L129.639 87.4051C126.981 90.1388 124.065 92.5982 120.919 94.7431L123.248 108.81C126.647 106.731 129.903 104.426 132.988 101.901C133.218 101.714 133.443 101.515 133.662 101.323C135.63 99.5956 136.951 98.1051 137.565 96.8775C137.79 95.9758 136.918 86.8267 131.349 82.0244C131.235 81.9254 131.223 81.7494 131.322 81.6394C131.421 81.5238 131.596 81.5128 131.705 81.6063C137.56 86.6344 138.338 96.0146 138.091 97.0103C138.091 97.0103 138.091 97.0758 138.091 97.0819C137.417 98.4077 136.063 99.9586 134.046 101.73C133.827 101.928 133.592 102.126 133.361 102.319C130.171 104.921 126.811 107.303 123.292 109.437C123.26 109.459 123.226 109.476 123.193 109.492C123.149 109.52 123.1 109.536 123.046 109.531Z" fill="#2E3038"/>
<path id="Vector_36" d="M120.618 94.6008L114.167 109.278C114.167 109.278 107.37 100.146 107.173 92.5482C108.159 88.45 109.223 86.1669 113.438 83.6859L112.961 86.6405C112.961 86.6405 113.739 93.6215 120.618 94.6008Z" fill="white"/>
<path id="Vector_37" d="M114.166 109.531C114.078 109.531 113.99 109.487 113.941 109.41C113.881 109.322 107.654 100.118 106.903 92.5543C106.898 92.5267 106.898 92.5043 106.903 92.4767C108.296 84.9293 112.971 83.675 113.168 83.6309C113.316 83.5979 113.464 83.6859 113.502 83.8345C113.541 83.9776 113.453 84.1261 113.311 84.1646H113.305C113.256 84.1646 108.783 85.3969 107.452 92.5379C108.114 99.0509 112.933 106.841 114.122 108.684L120.277 94.7C117.087 92.2681 114.374 89.275 112.264 85.859C112.182 85.7325 112.22 85.5619 112.352 85.4794C112.483 85.4024 112.647 85.4409 112.73 85.5674C114.829 88.9836 117.558 91.9707 120.771 94.3698C120.88 94.4465 120.924 94.5896 120.869 94.7103L114.418 109.36C114.379 109.454 114.292 109.515 114.193 109.526L114.166 109.531Z" fill="#2E3038"/>
<path id="Vector_38" d="M113.037 86.7664H112.96C112.817 86.7285 112.73 86.5742 112.768 86.4311C113.206 84.6102 113.321 82.7233 113.102 80.8638C113.081 80.7153 113.19 80.5778 113.338 80.5558C113.486 80.5337 113.623 80.6438 113.644 80.7924C113.881 82.7233 113.76 84.6817 113.3 86.5742C113.267 86.6897 113.157 86.7664 113.037 86.7664Z" fill="#2E3038"/>
<path id="Vector_39" d="M131.421 85.3418C131.278 85.3418 131.158 85.2263 131.146 85.0832C130.538 72.3917 132.517 65.075 132.539 65.0034C132.583 64.8604 132.73 64.7724 132.878 64.811C133.027 64.8549 133.109 65.0035 133.065 65.152C133.065 65.2235 131.091 72.4633 131.689 85.0557C131.7 85.2042 131.585 85.3308 131.437 85.3418H131.432H131.421Z" fill="#2E3038"/>
<path id="Vector_40" d="M110.751 66.7089C110.422 66.7034 110.093 66.6539 109.77 66.5714C108.865 66.3568 107.78 65.9883 107.408 65.009C107.177 64.2059 107.364 63.3422 107.895 62.704C108.087 62.4344 108.301 62.1868 108.509 61.9448C108.777 61.6587 109.025 61.3452 109.239 61.0151C110.109 59.5957 109.863 57.7913 109.507 55.9153C109.479 55.7668 109.578 55.6238 109.726 55.5908C109.874 55.5633 110.016 55.6623 110.044 55.8109C110.406 57.7197 110.68 59.7167 109.704 61.3121C109.474 61.6697 109.211 62.0053 108.926 62.3189C108.717 62.5444 108.52 62.7865 108.339 63.034C107.933 63.5346 107.78 64.1948 107.923 64.822C108.202 65.5591 109.123 65.8617 109.895 66.0433C110.383 66.2248 110.92 66.2138 111.398 66.0103C111.524 65.9278 111.694 65.9717 111.776 66.0983C111.858 66.2248 111.814 66.3953 111.689 66.4778C111.403 66.6429 111.08 66.7199 110.751 66.7089Z" fill="#2E3038"/>
<path id="Vector_41" d="M107.2 56.8781C107.25 57.9068 106.838 58.7595 106.285 58.7815C105.731 58.8036 105.249 57.9949 105.188 56.9661C105.128 55.9374 105.55 55.0847 106.104 55.0572C106.657 55.0297 107.156 55.8493 107.2 56.8781Z" fill="#2E3038"/>
<path id="Vector_42" d="M118.469 56.6085C118.518 57.6372 118.107 58.49 117.553 58.5119C117 58.5339 116.517 57.7252 116.457 56.6965C116.397 55.6678 116.819 54.815 117.372 54.7875C117.926 54.76 118.425 55.5798 118.469 56.6085Z" fill="#2E3038"/>
<path id="Vector_43" d="M113.328 70.7689C112.314 70.7908 111.311 70.5818 110.39 70.1637C110.264 70.0812 110.231 69.9051 110.318 69.7841C110.318 69.7841 110.318 69.7841 110.318 69.7786C110.401 69.6521 110.565 69.6191 110.692 69.7016C110.692 69.7016 110.697 69.7016 110.697 69.7071C111.957 70.2188 113.339 70.3507 114.671 70.0867C116.227 69.7621 117.575 68.8049 118.403 67.4461C118.491 67.3195 118.655 67.2865 118.787 67.3636C118.913 67.4516 118.946 67.6221 118.864 67.7487C117.954 69.2395 116.468 70.2847 114.764 70.6258C114.292 70.7249 113.81 70.7744 113.328 70.7689Z" fill="#2E3038"/>
<path id="Vector_44" d="M113.525 51.107C113.437 51.107 113.361 51.063 113.306 50.997C113.212 50.876 113.24 50.7055 113.361 50.6119C115.756 48.846 117.394 48.7799 119.862 50.3424C119.987 50.4249 120.025 50.5899 119.949 50.7219C119.867 50.8485 119.697 50.887 119.571 50.8044C117.285 49.3576 115.909 49.4181 113.689 51.052C113.646 51.0905 113.586 51.107 113.525 51.107Z" fill="#2E3038"/>
<path id="Vector_45" d="M103.439 52.0919C103.373 52.0919 103.307 52.0699 103.258 52.0259C103.143 51.9324 103.126 51.7618 103.219 51.6463L103.225 51.6408C104.513 50.194 106.662 49.9079 108.279 50.9697C108.4 51.0577 108.432 51.2282 108.344 51.3547C108.257 51.4758 108.087 51.5033 107.967 51.4208C106.591 50.5076 104.755 50.7441 103.647 51.9709C103.604 52.0424 103.526 52.0864 103.439 52.0919Z" fill="#2E3038"/>
<path id="Vector_46" d="M111.71 80.9958C111.151 81.0013 110.587 80.9683 110.032 80.8967C109.989 80.8912 109.945 80.8747 109.906 80.8472C109.759 80.7262 106.207 77.9425 103.368 72.1607C98.5331 62.3298 99.4599 48.1199 99.4702 47.9549C99.4814 47.8009 99.6133 47.6909 99.7668 47.7018C99.9202 47.7128 100.03 47.8449 100.018 47.9989C100.018 48.142 99.0926 62.2033 103.856 71.9021C105.374 75.1148 107.528 77.9921 110.186 80.3466C112.105 80.5281 114.034 80.3851 115.903 79.9175C119.45 79.0538 122.809 76.2646 125.012 74.0806C125.117 73.9761 125.287 73.9706 125.391 74.0751C125.391 74.0751 125.391 74.0751 125.396 74.0806C125.5 74.1796 125.506 74.3502 125.407 74.4546C125.402 74.4602 125.402 74.4602 125.396 74.4657C123.149 76.6992 119.701 79.5489 116.035 80.4511C114.62 80.7977 113.168 80.9847 111.71 80.9958Z" fill="#2E3038"/>
<path id="Vector_47" d="M125.205 74.5703C125.156 74.5703 125.112 74.5592 125.068 74.5372C124.936 74.4603 124.892 74.2952 124.964 74.1631C127.677 69.2834 128.253 66.1642 128.28 66.1367C128.307 65.9827 128.45 65.8837 128.603 65.9112C128.757 65.9387 128.855 66.0817 128.828 66.2358C128.801 66.3623 128.209 69.465 125.447 74.4272C125.403 74.5152 125.309 74.5703 125.205 74.5703Z" fill="#2E3038"/>
<path id="Vector_48" d="M132.495 65.3666C130.938 65.3666 130.407 64.4259 130.38 64.3763C130.308 64.2443 130.357 64.0738 130.489 64.0023C130.621 63.9307 130.791 63.9803 130.862 64.1123C130.862 64.1563 131.503 65.185 133.553 64.6624C134.825 64.3434 136.321 60.85 136.365 58.0993C136.365 57.0431 136.184 55.2002 134.72 54.7986C131.322 53.8359 129.536 58.853 129.519 58.9025C129.469 59.0456 129.311 59.1226 129.168 59.0731C129.025 59.0236 128.955 58.8641 129.004 58.721C129.004 58.666 130.977 53.1702 134.868 54.2649C136.228 54.65 136.962 56.0198 136.935 58.1159C136.891 60.9491 135.395 64.7779 133.706 65.2016C133.312 65.3116 132.906 65.3666 132.495 65.3666Z" fill="#2E3038"/>
<path id="Vector_49" d="M130.028 57.6924C129.612 58.578 127.99 57.7968 127.392 57.0211C126.784 56.207 126.784 55.0847 127.392 54.2705C126.126 53.9019 124.701 53.3298 124.153 52.125C123.922 51.5143 123.84 50.8542 123.917 50.205C124.032 48.4392 124.465 46.6787 124.284 44.9183C124.103 43.1579 123.018 41.3149 121.28 40.9904C121.28 40.9904 115.251 51.8224 103.878 47.4489C103.878 47.4489 98.8077 49.8805 96.5 45.716C94.1931 41.5515 97.306 37.1505 103.763 34.3723C103.763 34.3723 99.7284 34.2567 99.8439 32.1717C99.9586 30.0867 109.748 29.5092 116.671 31.033C116.671 31.033 115.854 27.3856 124.388 28.4254C132.922 29.4651 135.684 31.8802 136.732 37.8601C142.985 41.2819 135.959 55.3873 135.959 55.3873C135.959 55.3873 132.653 52.0645 130.028 57.6924Z" fill="#2E3038"/>
<path id="Vector_50" d="M98.8789 45.9141C97.5849 48.1916 97.3496 50.9202 98.2375 53.3848L99.997 56.1354L99.7229 46.7832L98.8789 45.9141Z" fill="#2E3038"/>
<path id="Vector_51" d="M136.188 38.9714C136.162 38.9769 136.134 38.9769 136.106 38.9714C135.964 38.9219 135.881 38.7678 135.931 38.6248C138.255 31.4731 133.294 28.1723 133.081 28.0128C132.955 27.9247 132.922 27.7542 133.004 27.6277C133.087 27.5011 133.256 27.4681 133.382 27.5507C133.438 27.5836 138.907 31.2585 136.452 38.7953C136.413 38.9053 136.304 38.9769 136.188 38.9714Z" fill="#2E3038"/>
<path id="Vector_52" d="M58.1065 82L58 98L72.5455 90.0066L58.1065 82Z" fill="white"/>
<path id="Vector_53" d="M68.3108 109.173C68.2012 109.173 68.1025 109.102 68.0587 109.003C67.4777 107.578 66.8857 106.071 66.2554 104.393C66.0306 103.816 65.8114 103.227 65.5976 102.643C64.7043 100.228 63.9533 97.7914 63.2134 95.4914C63.1421 95.2767 63.0709 95.0517 63.0051 94.8319V94.7543C62.9777 94.6776 62.9557 94.6009 62.9338 94.5181L62.6488 93.6379C62.6488 93.594 62.6214 93.5552 62.6105 93.5112C62.5612 93.3517 62.4789 93.2034 62.3748 93.0707L62.3474 93.0379C62.2103 92.9112 62.0075 92.8897 61.843 92.9776C61.7335 93.0164 61.6238 93.0655 61.5252 93.1319C61.3662 93.225 61.2182 93.3353 61.0812 93.4621C60.7249 93.7862 60.4344 94.1828 60.2426 94.6224L60.1878 94.7431C59.5904 96.2069 59.9193 97.9897 60.1878 99.2931C60.2919 99.8431 60.4016 100.393 60.5221 100.987C60.5221 100.998 60.5221 101.004 60.5221 101.015C61.0703 103.562 61.7663 106.027 62.3802 108.101C62.4076 108.249 62.309 108.392 62.161 108.42C62.0349 108.441 61.9143 108.376 61.8595 108.26C61.2402 106.175 60.5331 103.7 59.985 101.109C59.8589 100.559 59.7438 99.9698 59.6397 99.3974C59.3875 98.0276 59.0368 96.1517 59.6945 94.5397L59.7548 94.4026C59.985 93.8905 60.3193 93.4345 60.7305 93.0543C60.9004 92.906 61.0812 92.7741 61.2786 92.6638C61.4156 92.581 61.5636 92.5103 61.717 92.4603C61.8431 92.4164 61.9746 92.3888 62.1062 92.3888C62.3693 92.3888 62.6214 92.4931 62.8023 92.6802L62.8352 92.7241C62.9887 92.9112 63.1037 93.1259 63.175 93.3569L63.4984 94.369C63.4984 94.4517 63.5423 94.5233 63.5642 94.5948V94.6716C63.6299 94.8922 63.7012 95.1121 63.7724 95.3267C64.4905 97.6155 65.2578 100.047 66.1512 102.446C66.365 103.034 66.5843 103.617 66.8035 104.195C67.4393 105.845 68.0258 107.369 68.6068 108.788C68.6616 108.931 68.5958 109.091 68.4533 109.146C68.4094 109.173 68.3601 109.179 68.3108 109.173Z" fill="#2E3038"/>
</g>
<defs>
<clipPath id="clip0_12_3998">
<rect width="200" height="200" fill="white"/>
</clipPath>
</defs>
</svg>
