<svg width="224" height="200" viewBox="0 0 224 200" fill="none" xmlns="http://www.w3.org/2000/svg">
<g id="edu7 1" clip-path="url(#clip0_12_4063)">
<g id="Group">
<path id="Vector" d="M1.86962 124.502C1.86962 124.502 9.01667 162.979 45.2664 183.83C81.51 204.681 126.567 199.707 163.19 196.636C199.813 193.564 224.524 168.822 223.992 137.198C223.459 105.573 194.375 100.697 173.963 67.7077C153.544 34.7369 153.116 22.9351 118.005 6.08563C82.9002 -10.7699 35.192 10.1297 14.7857 51.2682C-5.6204 92.4067 1.86962 124.502 1.86962 124.502Z" fill="white"/>
</g>
<g id="Clip path group">
<mask id="mask0_12_4063" style="mask-type:luminance" maskUnits="userSpaceOnUse" x="6" y="22" width="198" height="172">
<g id="clip0">
<path id="Vector_2" d="M203.54 22.0721H6.49805V193.831H203.54V22.0721Z" fill="white"/>
</g>
</mask>
<g mask="url(#mask0_12_4063)">
<g id="Group_2">
<path id="Vector_3" d="M114.713 184.255L42.4317 190.225C40.3563 190.402 38.281 188.688 37.8066 186.383L7.09117 35.6071C6.6168 33.302 5.66807 28.9874 14.0881 28.5736L87.1411 22.9586C89.2165 22.7814 91.2919 24.4954 91.7662 26.8004L122.956 177.754C123.431 179.823 121.177 184.078 114.713 184.255Z" fill="#2E3038"/>
<path id="Vector_4" d="M42.1351 190.52C40.0005 190.52 37.9844 188.747 37.51 186.383L6.7946 35.6662C6.49812 34.3068 6.08304 32.2972 7.32826 30.7014C8.45489 29.2829 10.6488 28.4555 14.0288 28.3372L87.141 22.7223C89.3349 22.5449 91.5882 24.3772 92.0626 26.8005L123.253 177.754C123.49 178.818 123.075 180.178 122.126 181.36C121.177 182.542 119.102 184.433 114.713 184.551L42.4909 190.52C42.3723 190.52 42.2537 190.52 42.1351 190.52ZM87.4374 23.2542H87.2003L14.0881 28.8692C10.9453 29.0464 8.81067 29.7557 7.80263 31.056C6.7353 32.4745 7.09108 34.2477 7.32826 35.4889L38.103 186.265C38.5181 188.393 40.4749 190.048 42.3723 189.87L114.654 183.901C118.806 183.782 120.822 182.009 121.652 180.946C122.422 180.118 122.778 178.936 122.66 177.813L91.4696 26.8596C91.0546 24.791 89.2757 23.2542 87.4374 23.2542Z" fill="#2E3038"/>
<path id="Vector_5" d="M120.228 181.478L47.9458 187.447C45.8704 187.624 43.795 185.911 43.3207 183.606L12.6052 32.8292C12.1309 30.5242 13.4354 28.5146 15.5107 28.3373L87.7929 22.4268C89.8683 22.2495 91.9437 23.9635 92.418 26.2686L123.134 177.045C123.608 179.291 122.304 181.301 120.228 181.478Z" fill="white"/>
<path id="Vector_6" d="M47.7093 187.743C45.5746 187.743 43.5586 185.969 43.0842 183.665L12.3094 32.8883C12.013 31.7063 12.3094 30.4059 13.021 29.4602C13.6139 28.6919 14.5034 28.16 15.5114 28.1008L87.7936 22.0722C89.9875 21.8948 92.2407 23.7271 92.7151 26.1504L123.431 176.927C123.727 178.109 123.431 179.409 122.719 180.414C122.126 181.182 121.237 181.714 120.229 181.773L48.0057 187.743H47.7093ZM88.09 22.6632H87.8529L15.5707 28.6327C14.7406 28.6919 13.9697 29.1056 13.4953 29.7557C12.9024 30.6423 12.6652 31.7063 12.9024 32.7109L43.6772 183.547C44.0922 185.674 46.049 187.329 47.9464 187.151L120.229 181.182C121.059 181.123 121.83 180.709 122.304 180.059C122.897 179.173 123.134 178.109 122.897 177.045L92.1814 26.3277C91.7071 24.259 89.9282 22.6632 88.09 22.6632Z" fill="#2E3038"/>
<path id="Vector_7" d="M59.0937 34.425L49.1912 35.2524C48.5983 35.2524 48.0645 34.8387 47.9459 34.1885C47.8274 33.7157 48.0645 33.1837 48.5983 33.0065C48.6576 33.0065 48.7169 33.0065 48.7169 33.0065L58.6786 32.179C59.2716 32.179 59.8052 32.5927 59.9238 33.2428C60.1017 33.7748 59.8052 34.2476 59.2716 34.425C59.2123 34.425 59.153 34.425 59.0937 34.425Z" fill="#2E3038"/>
<path id="Vector_8" d="M116.078 167.351L46.3452 173.085L18.7725 37.9121L35.3161 36.5528L37.5101 38.0895C38.2216 38.6214 39.1111 38.8578 40.0005 38.7987L69.1743 36.4345C70.0638 36.3754 70.8346 35.9617 71.3682 35.2524L72.7321 33.4792L88.5049 32.179L116.078 167.351Z" fill="#184AFB"/>
<path id="Vector_9" d="M46.3448 173.44C46.2262 173.44 46.1076 173.321 46.0483 173.203L18.4756 37.9714C18.4756 37.9124 18.4756 37.7942 18.5349 37.735C18.5942 37.6759 18.6535 37.6168 18.7128 37.6168L35.2564 36.2574C35.3157 36.2574 35.375 36.2574 35.4343 36.3165L37.6282 37.8532C38.2805 38.3261 39.1106 38.5625 39.9408 38.5034L69.1146 36.0801C69.8854 36.021 70.5969 35.6072 71.0714 35.0162L72.4351 33.2431C72.4944 33.1839 72.5537 33.1249 72.6723 33.1249L88.4451 31.8246C88.623 31.8246 88.7416 31.9428 88.7416 32.061L116.315 167.293C116.315 167.351 116.315 167.47 116.255 167.529C116.196 167.588 116.137 167.647 116.018 167.647L46.3448 173.44ZM19.1278 38.1487L46.5819 172.79L115.722 167.056L88.2672 32.4747L72.8502 33.7159L71.605 35.3709C71.0121 36.1392 70.1819 36.612 69.1739 36.6712L40.0001 39.0944C39.0513 39.1535 38.1026 38.858 37.2725 38.3261L35.2564 36.8484L19.1278 38.1487Z" fill="#2E3038"/>
<path id="Vector_10" d="M84.2942 174.208C84.1162 173.262 83.2861 172.612 82.3374 172.612C81.5072 172.73 80.9735 173.44 81.0328 174.267C81.0328 174.326 81.0328 174.444 81.0921 174.503C81.27 175.449 82.1002 176.099 83.0489 176.099C83.879 175.98 84.4128 175.271 84.3535 174.444C84.3535 174.385 84.3535 174.326 84.2942 174.208Z" fill="#2E3038"/>
<path id="Vector_11" d="M39.1705 66.8735L31.6993 67.4645C30.454 67.4645 29.3867 66.578 29.2088 65.3958L27.5485 57.1212C27.3113 55.8799 28.0229 54.757 29.1495 54.6979L36.6208 54.0477C37.8661 54.0477 38.9333 54.9343 39.1112 56.1755L40.7716 64.391C41.0087 65.6914 40.2972 66.8143 39.1705 66.8735Z" fill="white"/>
<path id="Vector_12" d="M31.5809 67.8192C30.2764 67.76 29.1498 66.7553 28.9126 65.5141L27.2523 57.2395C27.0744 56.5302 27.2523 55.821 27.6673 55.2299C28.0231 54.757 28.5568 54.4615 29.1498 54.4024L36.6211 53.8114C37.9849 53.8114 39.1709 54.757 39.4673 56.1165L41.1276 64.3321C41.3055 65.0413 41.1276 65.7506 40.7125 66.3415C40.3568 66.8144 39.8231 67.1099 39.2895 67.1691L31.8181 67.76L31.5809 67.8192ZM36.7397 54.4024H36.6211L29.1498 54.9935C28.7347 55.0526 28.3789 55.2299 28.1417 55.5845C27.8452 56.0573 27.7266 56.5893 27.8452 57.1213L29.5055 65.3959C29.6834 66.4598 30.6321 67.2281 31.6995 67.2281L39.1709 66.6371C39.5859 66.578 39.9417 66.4007 40.1789 66.046C40.4753 65.6323 40.5939 65.0413 40.4753 64.5093L38.8151 56.2937C38.6371 55.289 37.807 54.4615 36.7397 54.4024Z" fill="white"/>
<path id="Vector_13" d="M55.8327 65.5141L48.3614 66.1051C47.1161 66.1051 46.0488 65.2185 45.8709 63.9774L44.2106 55.7618C43.9734 54.5206 44.685 53.3976 45.8116 53.3385L53.283 52.7474C54.5282 52.7474 55.5955 53.634 55.7733 54.8752L57.4337 63.0908C57.6708 64.3319 56.9593 65.4549 55.8327 65.5141Z" fill="white"/>
<path id="Vector_14" d="M48.243 66.4598C46.9385 66.4008 45.8119 65.396 45.5747 64.0957L43.9144 55.8801C43.7365 55.1709 43.9144 54.4616 44.3294 53.8705C44.6852 53.3978 45.219 53.1022 45.8119 53.0431L53.2832 52.452C54.647 52.452 55.833 53.4568 56.1294 54.7571L57.7897 62.9727C57.9677 63.682 57.7897 64.3912 57.3746 64.9823C57.0189 65.4551 56.4852 65.7506 55.8923 65.8097L48.4209 66.4008L48.243 66.4598ZM53.4018 53.0431H53.2832L45.8119 53.6342C45.3968 53.6932 45.0411 53.8705 44.8039 54.2252C44.5073 54.698 44.3887 55.23 44.5073 55.7619L46.1677 63.9775C46.3455 65.0413 47.2942 65.8097 48.3616 65.8097L55.833 65.2187C56.248 65.1595 56.6038 64.9823 56.841 64.6868C57.1374 64.2139 57.256 63.682 57.1374 63.15L55.4772 54.9345C55.2993 53.9297 54.4098 53.1022 53.4018 53.0431Z" fill="white"/>
<path id="Vector_15" d="M72.4353 64.1548L64.9639 64.7458C63.7187 64.7458 62.6514 63.8593 62.4735 62.618L60.8131 54.4025C60.576 53.1613 61.2876 52.0383 62.4142 51.9792L69.8855 51.3882C71.1307 51.3882 72.1981 52.2748 72.376 53.4568L74.0362 61.7315C74.3328 62.9727 73.6211 64.0365 72.4353 64.1548Z" fill="white"/>
<path id="Vector_16" d="M64.8456 65.0412C63.5411 64.9822 62.4144 63.9774 62.1773 62.6771L60.5169 54.4615C60.339 53.7522 60.5169 53.043 60.9321 52.4519C61.2878 51.9791 61.8215 51.6836 62.4144 51.6245L69.8858 51.0334C71.2495 51.0334 72.4948 51.9791 72.732 53.3385L74.3923 61.5541C74.5702 62.2633 74.3923 62.9726 73.9772 63.5636C73.6214 64.0364 73.0878 64.332 72.4948 64.3911L65.0235 64.9822L64.8456 65.0412ZM70.0044 51.6836H69.8858L62.4144 52.2747C61.9994 52.2747 61.6436 52.511 61.4064 52.8066C61.11 53.2795 60.9914 53.8114 61.11 54.3433L62.8295 62.5589C63.0074 63.6227 63.9562 64.3911 65.0235 64.3911L72.4948 63.8C72.9099 63.741 73.2656 63.5636 73.5028 63.209C73.7993 62.7952 73.9179 62.2042 73.7993 61.6723L72.139 53.3976C71.9019 52.511 71.0717 51.7426 70.0044 51.6836Z" fill="white"/>
<path id="Vector_17" d="M89.0973 62.7954L81.626 63.3863C80.3808 63.3863 79.3134 62.4998 79.1355 61.2586L77.4753 53.0431C77.238 51.8018 77.9496 50.6788 79.0762 50.6198L86.5476 50.0287C87.7927 50.0287 88.8601 50.9153 89.038 52.1565L90.6983 60.3721C90.9355 61.6132 90.2239 62.6771 89.0973 62.7954Z" fill="white"/>
<path id="Vector_18" d="M81.5076 63.682C80.2032 63.6228 79.0765 62.618 78.8393 61.3177L77.1791 53.1021C77.0011 52.3929 77.1791 51.6837 77.5941 51.0926C77.9499 50.6198 78.4836 50.3242 79.0765 50.2651L86.5478 49.6741C87.9117 49.6741 89.0976 50.6198 89.394 51.9791L91.0544 60.1947C91.2323 60.904 91.0544 61.6132 90.6393 62.2043C90.2836 62.6772 89.7498 62.9727 89.1569 63.0317L81.6855 63.6228L81.5076 63.682ZM86.6664 50.2651H86.5478L79.0765 50.8562C78.6614 50.9153 78.3057 51.0926 78.0685 51.4472C77.772 51.861 77.6534 52.452 77.8313 52.9249L79.4915 61.1995C79.6695 62.2634 80.6182 63.0317 81.6855 63.0317L89.1569 62.4407C89.5719 62.3816 89.9277 62.2043 90.165 61.8497C90.4614 61.3768 90.58 60.8449 90.4614 60.3129L88.8011 52.0974C88.5639 51.1517 87.7338 50.3834 86.6664 50.2651Z" fill="white"/>
<path id="Vector_19" d="M43.0834 85.846L35.6121 86.4371C34.3668 86.4371 33.2995 85.5505 33.1216 84.3093L31.402 76.0938C31.1648 74.8526 31.8764 73.7296 33.0031 73.6705L40.4744 73.0795C41.7196 73.0795 42.7869 73.966 42.9648 75.2073L44.6251 83.4228C44.9215 84.664 44.21 85.7278 43.0834 85.846Z" fill="white"/>
<path id="Vector_20" d="M35.4345 86.7918C34.1299 86.7328 33.0033 85.728 32.7661 84.4277L31.1058 76.2121C30.9279 75.5028 31.1058 74.7936 31.5209 74.2026C31.8766 73.7297 32.4104 73.4342 32.944 73.3751L40.4153 72.7841C41.8384 72.7841 43.0244 73.7888 43.2616 75.1483L44.9218 83.3638C45.0997 84.0731 44.9218 84.7823 44.5067 85.3734C44.151 85.8462 43.6173 86.1417 43.0837 86.2009L35.6123 86.7918H35.4345ZM40.5932 73.3751H40.4746L33.0033 73.9661C32.5882 73.9661 32.2325 74.2026 31.9953 74.498C31.6987 74.9119 31.5801 75.5028 31.6987 76.0349L33.3591 84.3095C33.5369 85.3734 34.4857 86.1417 35.553 86.1417L43.0244 85.5506C43.4394 85.4916 43.7952 85.3143 44.0324 84.9596C44.3289 84.5458 44.4474 83.9549 44.3289 83.4229L42.6686 75.2073C42.4906 74.2026 41.6605 73.4342 40.5932 73.3751Z" fill="white"/>
<path id="Vector_21" d="M59.6872 84.4868L52.2159 85.0778C50.9706 85.0778 49.9033 84.1913 49.7254 82.95L48.0651 74.7345C47.8279 73.4932 48.5395 72.3702 49.6661 72.3112L57.1375 71.7201C58.3827 71.7201 59.45 72.6067 59.6279 73.8479L61.2882 82.0635C61.5253 83.3047 60.8138 84.3685 59.6872 84.4868Z" fill="white"/>
<path id="Vector_22" d="M52.0966 85.3733C50.7921 85.3141 49.6654 84.3093 49.4282 83.009L47.7679 74.7935C47.59 74.0843 47.7679 73.375 48.1831 72.784C48.5388 72.3111 49.0725 72.0156 49.6061 71.9565L57.0775 71.3655C58.4413 71.3655 59.6865 72.3111 59.9237 73.6705L61.584 81.886C61.7619 82.5953 61.584 83.3045 61.1688 83.8956C60.8131 84.3685 60.2794 84.664 59.7458 84.7231L52.2744 85.3141L52.0966 85.3733ZM57.2553 72.0156H57.1367L49.6654 72.6066C49.2503 72.6658 48.8946 72.843 48.6574 73.1977C48.3609 73.6114 48.2424 74.2025 48.3609 74.7344L50.0212 82.95C50.1991 84.0138 51.1479 84.7822 52.2152 84.7822L59.6865 84.1911C60.1015 84.1911 60.4573 83.9548 60.6945 83.6592C60.991 83.2455 61.1096 82.6544 60.991 82.1225L59.3307 73.9069C59.1528 72.843 58.2633 72.0747 57.2553 72.0156Z" fill="white"/>
<path id="Vector_23" d="M92.9518 81.7087L85.4804 82.3589C84.2353 82.3589 83.1679 81.4723 82.99 80.2312L81.3298 72.0156C81.0926 70.7744 81.8041 69.6514 82.9307 69.5923L90.402 69.0012C91.6473 69.0012 92.7146 69.8878 92.8925 71.07L94.5531 79.2855C94.7903 80.5267 94.0785 81.6497 92.9518 81.7087Z" fill="white"/>
<path id="Vector_24" d="M85.3621 82.6545C84.0576 82.5953 82.9309 81.5906 82.6938 80.2903L81.0335 72.0747C80.8556 71.3655 81.0335 70.6562 81.4486 70.0652C81.8044 69.5923 82.338 69.2968 82.8716 69.2377L90.343 68.6466C91.7069 68.6466 92.8927 69.5923 93.1892 70.9518L94.8496 79.2264C95.0275 79.9356 94.8496 80.6449 94.4346 81.2359C94.0787 81.7088 93.5451 82.0044 93.0113 82.0634L85.5401 82.6545H85.3621ZM90.5209 69.2377H90.4023L82.9309 69.8288C82.5159 69.8288 82.1601 70.0652 81.9229 70.3607C81.6265 70.7744 81.5079 71.3655 81.6265 71.8974L83.2868 80.113C83.4647 81.1768 84.4134 81.9452 85.4807 81.9452L92.952 81.3541C93.3672 81.2951 93.7229 81.1178 93.9601 80.7631C94.2567 80.3494 94.3753 79.7583 94.2567 79.2264L92.5963 71.1291C92.4184 70.0652 91.5883 69.2968 90.5209 69.2377Z" fill="white"/>
<path id="Vector_25" d="M46.9382 104.819L39.4669 105.409C38.2216 105.409 37.1543 104.523 36.9764 103.282L35.3161 95.0668C35.0789 93.8253 35.7904 92.7023 36.9171 92.6432L44.3885 92.0521C45.6336 92.0521 46.701 92.9387 46.8789 94.1795L48.5391 102.395C48.7763 103.637 48.0648 104.701 46.9382 104.819Z" fill="white"/>
<path id="Vector_26" d="M39.2889 105.705C37.9845 105.646 36.8578 104.641 36.6206 103.341L34.9603 95.1258C34.7824 94.416 34.9603 93.707 35.3754 93.1159C35.7312 92.6431 36.2649 92.3475 36.7985 92.2885L44.2698 91.6974C45.693 91.6974 46.8789 92.7022 47.116 94.062L48.7764 102.277C48.9543 102.986 48.7764 103.696 48.3613 104.286C48.0055 104.76 47.4718 105.055 46.9382 105.115L39.4668 105.705H39.2889ZM44.4477 92.2885H44.3291L36.8578 92.8795C36.4427 92.9386 36.087 93.1159 35.8498 93.4705C35.5533 93.8842 35.4347 94.4751 35.5533 95.0075L37.2136 103.223C37.3914 104.286 38.3402 105.055 39.4075 105.055L46.8789 104.464C47.2939 104.405 47.6497 104.227 47.8869 103.873C48.1834 103.459 48.302 102.869 48.1834 102.336L46.5231 94.1794C46.3452 93.175 45.5151 92.4067 44.4477 92.2885Z" fill="white"/>
<path id="Vector_27" d="M63.5407 103.4L56.0694 103.992C54.8242 103.992 53.7568 103.105 53.5789 101.864L51.9186 93.6482C51.6814 92.4069 52.3931 91.2839 53.5196 91.2249L60.991 90.6338C62.2362 90.6338 63.3036 91.5204 63.4814 92.7616L65.1417 100.978C65.3789 102.218 64.6673 103.341 63.5407 103.4Z" fill="white"/>
<path id="Vector_28" d="M55.951 104.346C54.6465 104.286 53.5198 103.282 53.2826 101.981L51.6224 93.7662C51.4445 93.0569 51.6224 92.3476 52.0375 91.7566C52.3932 91.2838 52.9269 90.9883 53.4605 90.9291L60.9319 90.3381C62.2957 90.3381 63.5409 91.2838 63.7781 92.6432L65.4384 100.858C65.6163 101.568 65.4384 102.277 65.0233 102.869C64.6675 103.341 64.1338 103.637 63.6002 103.696L56.1288 104.286L55.951 104.346ZM61.1097 90.9291H60.9911L53.5198 91.5202C53.1047 91.5793 52.749 91.7566 52.5118 92.1113C52.2153 92.525 52.0967 93.116 52.2153 93.648L53.8756 101.864C54.0535 102.928 55.0023 103.696 56.0696 103.696L63.5409 103.104C63.9559 103.045 64.3117 102.869 64.5489 102.514C64.8455 102.1 64.964 101.509 64.8455 100.977L63.1851 92.7614C63.0072 91.8157 62.1178 91.0473 61.1097 90.9291Z" fill="white"/>
<path id="Vector_29" d="M80.2038 102.041L72.7324 102.632C71.4872 102.632 70.4199 101.746 70.242 100.504L68.5817 92.2887C68.3445 91.0474 69.0561 89.9245 70.1827 89.8654L77.654 89.2743C78.8993 89.2743 79.9666 90.1609 80.1445 91.4021L81.8048 99.6179C82.042 100.859 81.3304 101.982 80.2038 102.041Z" fill="white"/>
<path id="Vector_30" d="M72.614 102.987C71.3096 102.928 70.1829 101.923 69.9457 100.623L68.2855 92.4067C68.1076 91.6975 68.2855 90.9882 68.7005 90.3971C69.0563 89.9244 69.5899 89.6288 70.1236 89.5697L77.5949 88.9786C78.9588 88.9786 80.204 89.9244 80.4412 91.2837L82.1015 99.4996C82.2794 100.209 82.1015 100.917 81.6864 101.509C81.3307 101.981 80.7969 102.277 80.2633 102.336L72.7919 102.928L72.614 102.987ZM77.7728 89.5697H77.6542L70.1829 90.1607C69.7678 90.2199 69.4121 90.3971 69.1749 90.7518C68.8784 91.1655 68.7598 91.7566 68.8784 92.2885L70.5387 100.504C70.7166 101.568 71.6653 102.336 72.7326 102.336L80.204 101.746C80.619 101.746 80.9748 101.509 81.2121 101.213C81.5085 100.8 81.6271 100.208 81.5085 99.677L79.8482 91.4611C79.6703 90.3971 78.8402 89.6288 77.7728 89.5697Z" fill="white"/>
<path id="Vector_31" d="M96.866 100.682L89.3945 101.272C88.1493 101.272 87.0819 100.386 86.904 99.1446L85.2438 90.9291C85.0066 89.6878 85.7182 88.5649 86.8448 88.5058L94.3164 87.9148C95.5616 87.9148 96.6288 88.8013 96.8067 90.0425L98.467 98.2583C98.7041 99.4996 97.9333 100.563 96.866 100.682Z" fill="white"/>
<path id="Vector_32" d="M89.2164 101.568C87.9118 101.509 86.7853 100.504 86.5481 99.2038L84.8285 90.9883C84.6506 90.279 84.8285 89.5697 85.2435 88.9787C85.5993 88.5058 86.133 88.2103 86.6667 88.1512L94.1375 87.5602C95.5615 87.5602 96.7474 88.565 96.9846 89.9243L98.6448 98.14C98.8227 98.8489 98.6448 99.5588 98.2298 100.149C97.874 100.623 97.3404 100.917 96.8067 100.977L89.335 101.568H89.2164ZM94.3747 88.2103H94.2561L86.7853 88.8013C86.3702 88.8605 86.0143 89.0377 85.7772 89.3924C85.4807 89.8061 85.3621 90.3972 85.4807 90.9291L87.141 99.1447C87.3189 100.209 88.2676 100.977 89.335 100.977L96.8067 100.386C97.2218 100.327 97.5775 100.149 97.8147 99.7944C98.1112 99.3813 98.2298 98.7898 98.1112 98.2583L96.4509 90.0425C96.2731 89.0377 95.443 88.2694 94.3747 88.2103Z" fill="white"/>
<path id="Vector_33" d="M50.7927 123.732L43.3213 124.323C42.0761 124.323 41.0088 123.437 40.8309 122.255L39.1706 113.979C38.9334 112.739 39.645 111.616 40.7716 111.557L48.2429 110.965C49.4881 110.965 50.5555 111.852 50.7334 113.034L52.3936 121.25C52.6308 122.55 51.9193 123.673 50.7927 123.732Z" fill="white"/>
<path id="Vector_34" d="M43.202 124.678C41.8976 124.619 40.7709 123.614 40.5337 122.314L38.8734 114.098C38.6955 113.389 38.8734 112.68 39.2885 112.088C39.6443 111.616 40.1779 111.32 40.7709 111.261L48.2422 110.671C49.6061 110.671 50.8513 111.616 51.0884 112.975L52.7488 121.191C52.9266 121.9 52.7488 122.609 52.3337 123.2C51.9779 123.673 51.4442 123.969 50.8513 124.027L43.3799 124.619L43.202 124.678ZM48.3608 111.261H48.2422L40.7709 111.852C40.3558 111.911 40.0001 112.088 39.7629 112.443C39.4664 112.916 39.3478 113.448 39.4664 113.98L41.1266 122.195C41.3045 123.259 42.2533 124.027 43.3206 124.027L50.792 123.437C51.207 123.378 51.5628 123.2 51.8001 122.846C52.0965 122.373 52.2151 121.84 52.0965 121.309L50.3769 113.152C50.199 112.088 49.3689 111.32 48.3608 111.261Z" fill="white"/>
<path id="Vector_35" d="M67.3951 122.373L59.9238 122.964C58.6786 122.964 57.6112 122.077 57.4333 120.896L55.7731 112.68C55.5359 111.439 56.2475 110.316 57.3741 110.256L64.8454 109.666C66.0906 109.666 67.158 110.552 67.3358 111.734L68.9962 119.949C69.2926 121.191 68.581 122.255 67.3951 122.373Z" fill="white"/>
<path id="Vector_36" d="M59.8055 123.318C58.501 123.259 57.3743 122.254 57.1371 120.954L55.4769 112.739C55.299 112.029 55.4769 111.32 55.8919 110.729C56.2477 110.256 56.7814 109.961 57.3743 109.901L64.8456 109.311C66.2095 109.311 67.4547 110.256 67.6919 111.675L69.3522 119.89C69.5301 120.6 69.3522 121.309 68.9371 121.9C68.5814 122.373 68.0477 122.669 67.4547 122.728L59.9833 123.318H59.8055ZM64.9642 109.901H64.8456L57.3743 110.493C56.9592 110.552 56.6035 110.729 56.3663 111.084C56.0698 111.557 55.9512 112.088 56.0698 112.621L57.7302 120.836C57.908 121.9 58.8567 122.669 59.924 122.669L67.3954 122.077C67.8104 122.018 68.1663 121.84 68.4035 121.486C68.6999 121.013 68.8185 120.482 68.6999 119.949L67.0396 111.734C66.8617 110.729 66.0316 109.961 64.9642 109.901Z" fill="white"/>
<path id="Vector_37" d="M84.0572 121.013L76.5859 121.605C75.3407 121.605 74.2733 120.717 74.0955 119.536L72.4352 111.32C72.198 110.079 72.9096 108.956 74.0362 108.897L81.5075 108.306C82.7528 108.306 83.8201 109.193 83.9979 110.375L85.6583 118.649C85.8955 119.831 85.1839 120.895 84.0572 121.013Z" fill="white"/>
<path id="Vector_38" d="M76.4677 121.9C75.1631 121.84 74.0365 120.836 73.7993 119.536L72.139 111.32C71.9611 110.611 72.139 109.901 72.5541 109.311C72.9098 108.838 73.4435 108.542 74.0365 108.542L81.5078 107.951C82.8716 107.951 84.1168 108.897 84.354 110.315L86.0143 118.531C86.1922 119.24 86.0143 119.949 85.5992 120.541C85.2435 121.013 84.7098 121.309 84.1168 121.368L76.6455 121.959L76.4677 121.9ZM81.6263 108.542H81.5078L74.0365 109.133C73.6214 109.192 73.2656 109.37 73.0284 109.724C72.7319 110.197 72.6134 110.73 72.7319 111.261L74.3923 119.477C74.5702 120.541 75.5189 121.309 76.5862 121.309L84.0575 120.717C84.4725 120.659 84.8284 120.482 85.0656 120.127C85.3621 119.713 85.4806 119.122 85.3621 118.59L83.7017 110.315C83.4646 109.37 82.6344 108.601 81.6263 108.542Z" fill="white"/>
<path id="Vector_39" d="M100.72 119.654L93.2488 120.245C92.0035 120.245 90.9362 119.359 90.7584 118.177L89.0387 109.961C88.8016 108.719 89.5131 107.596 90.6398 107.537L98.1111 106.947C99.3563 106.947 100.424 107.833 100.601 109.015L102.262 117.231C102.558 118.472 101.847 119.536 100.72 119.654Z" fill="white"/>
<path id="Vector_40" d="M93.0702 120.541C91.7656 120.482 90.639 119.477 90.4019 118.177L88.7415 109.961C88.5637 109.252 88.7415 108.542 89.1566 107.951C89.5124 107.478 90.0461 107.183 90.5798 107.124L98.0514 106.532C99.4151 106.532 100.66 107.478 100.897 108.838L102.558 117.054C102.736 117.763 102.558 118.471 102.143 119.063C101.787 119.536 101.253 119.831 100.66 119.89L93.1888 120.482L93.0702 120.541ZM98.2293 107.124H98.1107L90.639 107.715C90.224 107.774 89.8682 107.951 89.6309 108.306C89.3345 108.719 89.2159 109.311 89.3345 109.842L90.9948 118.058C91.1727 119.122 92.1214 119.89 93.1888 119.89L100.66 119.3C101.075 119.3 101.431 119.063 101.668 118.708C101.965 118.236 102.083 117.703 101.965 117.172L100.305 108.897C100.127 108.01 99.2966 107.242 98.2293 107.124Z" fill="white"/>
<path id="Vector_41" d="M54.6472 142.705L47.1758 143.296C45.9307 143.296 44.8633 142.409 44.6854 141.227L43.0251 133.011C42.7879 131.77 43.4995 130.647 44.6261 130.588L52.0974 129.997C53.3426 129.997 54.41 130.884 54.5879 132.066L56.2482 140.282C56.4854 141.523 55.7738 142.587 54.6472 142.705Z" fill="white"/>
<path id="Vector_42" d="M47.0564 143.592C45.752 143.532 44.6253 142.528 44.3881 141.227L42.7279 133.011C42.55 132.302 42.7279 131.593 43.1429 131.002C43.4987 130.529 44.0323 130.234 44.566 130.175L52.0373 129.583C53.4012 129.583 54.6464 130.529 54.8835 131.947L56.5439 140.163C56.7217 140.872 56.5439 141.581 56.1288 142.173C55.773 142.646 55.2393 142.941 54.6464 143L47.175 143.592H47.0564ZM52.2152 130.234H52.0966L44.6253 130.824C44.2102 130.824 43.8545 131.061 43.6173 131.416C43.3208 131.829 43.2022 132.421 43.3208 132.952L44.9811 141.168C45.159 142.232 46.1077 143 47.175 143L54.6464 142.409C55.0614 142.35 55.4172 142.173 55.6545 141.818C55.9509 141.405 56.0695 140.813 55.9509 140.282L54.2906 132.066C54.0534 131.061 53.2233 130.293 52.2152 130.234Z" fill="white"/>
<path id="Vector_43" d="M71.3092 141.346L63.8379 141.936C62.5927 141.936 61.5253 141.05 61.3474 139.868L59.6872 131.593C59.45 130.352 60.1615 129.229 61.2881 129.17L68.7595 128.579C70.0046 128.579 71.072 129.466 71.2499 130.648L72.9102 138.863C73.1474 140.163 72.4358 141.227 71.3092 141.346Z" fill="white"/>
<path id="Vector_44" d="M63.66 142.232C62.3555 142.173 61.2289 141.168 60.9917 139.868L59.3314 131.593C59.1535 130.884 59.3314 130.175 59.7464 129.584C60.1022 129.111 60.6359 128.815 61.1696 128.756L68.6408 128.165C70.0047 128.165 71.2499 129.111 71.487 130.47L73.1474 138.685C73.3253 139.395 73.1474 140.104 72.7323 140.696C72.3766 141.168 71.8429 141.464 71.3092 141.523L63.8379 142.114L63.66 142.232ZM68.8187 128.815H68.7001L61.2289 129.407C60.8137 129.466 60.458 129.643 60.2208 129.997C59.9243 130.411 59.8057 131.002 59.9243 131.534L61.5847 139.808C61.7625 140.872 62.7112 141.641 63.7786 141.641L71.2499 141.05C71.6649 140.991 72.0208 140.813 72.258 140.459C72.5544 140.045 72.673 139.454 72.5544 138.922L70.8941 130.707C70.7162 129.701 69.8861 128.933 68.8187 128.815Z" fill="white"/>
<path id="Vector_45" d="M87.9117 139.927L80.4404 140.517C79.1952 140.517 78.1279 139.631 77.95 138.449L76.2897 130.234C76.0525 128.993 76.7641 127.869 77.8908 127.81L85.362 127.22C86.6073 127.22 87.6746 128.106 87.9117 129.288L89.5721 137.503C89.75 138.745 89.0384 139.868 87.9117 139.927Z" fill="white"/>
<path id="Vector_46" d="M80.3222 140.872C79.0176 140.813 77.891 139.809 77.6538 138.509L75.9935 130.293C75.8156 129.584 75.9935 128.874 76.4086 128.284C76.7643 127.81 77.2981 127.515 77.8317 127.456L85.303 126.865C86.6668 126.865 87.9121 127.81 88.1493 129.229L89.8095 137.445C89.9874 138.154 89.8095 138.863 89.3944 139.455C89.0387 139.927 88.505 140.223 87.9714 140.282L80.5 140.872H80.3222ZM85.4809 127.456H85.3623L77.891 128.047C77.4759 128.106 77.1201 128.284 76.8829 128.638C76.5864 129.052 76.4678 129.643 76.5864 130.175L78.2468 138.391C78.4246 139.455 79.3734 140.223 80.4407 140.223L87.9121 139.632C88.3271 139.573 88.6829 139.395 88.9201 139.04C89.2166 138.626 89.3351 138.036 89.2165 137.503L87.5563 129.288C87.3783 128.284 86.5482 127.515 85.4809 127.456Z" fill="white"/>
<path id="Vector_47" d="M104.574 138.567L97.1026 139.159C95.8574 139.159 94.7901 138.272 94.6122 137.09L92.9518 128.874C92.7146 127.633 93.4262 126.51 94.5529 126.451L102.024 125.86C103.269 125.86 104.336 126.746 104.514 127.929L106.175 136.203C106.412 137.385 105.7 138.508 104.574 138.567Z" fill="white"/>
<path id="Vector_48" d="M96.9845 139.513C95.6801 139.454 94.5535 138.449 94.3163 137.149L92.6556 128.933C92.4777 128.224 92.6556 127.515 93.0707 126.924C93.4264 126.451 93.9602 126.155 94.4942 126.097L101.965 125.505C103.329 125.505 104.515 126.451 104.811 127.81L106.472 136.086C106.649 136.794 106.472 137.503 106.057 138.095C105.701 138.567 105.167 138.863 104.574 138.922L97.1031 139.513H96.9845ZM102.084 126.097H101.965L94.4942 126.687C94.0788 126.747 93.723 126.924 93.4857 127.278C93.1892 127.692 93.0707 128.284 93.1892 128.815L94.85 137.031C95.0278 138.095 95.9765 138.863 97.0438 138.863L104.515 138.272C104.93 138.213 105.286 138.036 105.523 137.681C105.819 137.267 105.938 136.676 105.819 136.144L104.159 127.929C103.981 126.924 103.151 126.155 102.084 126.097Z" fill="white"/>
<path id="Vector_49" d="M58.5016 161.678L51.0302 162.269C49.7851 162.269 48.7177 161.382 48.5398 160.2L46.8796 151.984C46.6424 150.743 47.3539 149.62 48.4805 149.562L55.9518 148.97C57.1971 148.97 58.2644 149.856 58.4423 151.039L60.1026 159.254C60.3398 160.496 59.6282 161.56 58.5016 161.678Z" fill="#2E3038"/>
<path id="Vector_50" d="M75.1627 160.259L67.6915 160.85C66.4462 160.85 65.3789 159.963 65.201 158.781L63.5407 150.566C63.3035 149.325 64.015 148.202 65.1417 148.143L72.613 147.551C73.8582 147.551 74.9255 148.439 75.1034 149.62L76.7637 157.836C77.0009 159.077 76.2894 160.2 75.1627 160.259Z" fill="#2E3038"/>
<path id="Vector_51" d="M91.7663 158.9L84.295 159.491C83.0497 159.491 81.9824 158.604 81.8045 157.422L80.1442 149.207C79.907 147.965 80.6186 146.842 81.7452 146.783L89.2166 146.193C90.4618 146.193 91.5291 147.079 91.707 148.261L93.3673 156.476C93.6044 157.717 92.8929 158.781 91.7663 158.9Z" fill="#2E3038"/>
<path id="Vector_52" d="M108.428 157.54L100.957 158.131C99.7117 158.131 98.6444 157.245 98.4665 156.063L96.8063 147.847C96.5691 146.606 97.2807 145.483 98.4073 145.424L105.878 144.833C107.123 144.833 108.191 145.719 108.369 146.901L110.03 155.117C110.267 156.358 109.555 157.422 108.428 157.54Z" fill="#2E3038"/>
<path id="Vector_53" d="M66.0915 90.6927C63.8975 90.6927 61.7035 88.8013 61.2292 86.378L57.7899 69.6514C57.4934 68.4103 57.7899 67.0508 58.5015 66.046C59.0945 65.2186 60.0432 64.6866 61.0513 64.6275L76.1717 63.3863C78.4843 63.209 80.8562 65.1595 81.3305 67.701L84.7698 84.4276C85.0662 85.6688 84.8291 86.9691 84.0581 88.033C83.4652 88.8605 82.5165 89.3924 81.4491 89.4515L66.3286 90.6927H66.0915ZM76.5276 63.5045H76.231L61.1106 64.7457C60.1025 64.8048 59.2131 65.3367 58.6201 66.1051C57.9085 67.1099 57.6713 68.4103 57.9085 69.5923L61.3477 86.319C61.8814 88.8013 64.1347 90.6927 66.3879 90.5154L81.5084 89.2742C82.5165 89.215 83.4059 88.6831 83.9988 87.9148C84.7105 86.91 84.9476 85.6097 84.7105 84.4276L81.2712 67.701C80.7376 65.3367 78.7215 63.5045 76.5276 63.5045Z" fill="#2E3038"/>
<path id="Vector_54" d="M66.8616 88.8014C64.9049 88.8014 63.0667 87.1465 62.6516 85.0187L59.7461 70.7153C59.509 69.6515 59.7461 68.4694 60.3984 67.5828C60.932 66.8735 61.7621 66.4007 62.6516 66.3416L75.5782 65.2778C77.5942 65.1004 79.6103 66.8145 80.0847 69.0604L82.9902 83.3638C83.2275 84.4276 82.9902 85.6098 82.338 86.4963C81.8043 87.2056 80.9742 87.6784 80.0847 87.7375L67.1582 88.8014C67.0396 88.8014 66.9209 88.8014 66.8616 88.8014ZM75.7561 65.5733C75.6968 65.5733 75.5782 65.5733 75.5189 65.5733L62.5924 66.6371C61.7622 66.6963 61.0506 67.11 60.5763 67.7601C59.9833 68.5876 59.7461 69.6515 59.9833 70.6563L62.8888 84.9596C63.3039 87.0873 65.2014 88.6241 67.0989 88.4468L80.0254 87.3829C80.8556 87.3238 81.5671 86.9101 82.0415 86.2599C82.6344 85.4324 82.8716 84.3686 82.6344 83.3638L79.7289 69.0604C79.3139 67.11 77.5942 65.5733 75.7561 65.5733Z" fill="#2E3038"/>
<path id="Vector_55" d="M67.8697 86.2008C66.2094 86.0826 64.7863 84.8414 64.4899 83.1864L62.2366 72.193C62.0587 71.3064 62.2366 70.4199 62.711 69.6515C63.126 69.0604 63.8375 68.7058 64.5492 68.6467L74.5109 67.8192C76.1119 67.701 77.7722 69.0014 78.128 70.8336L80.3813 81.8862C80.5591 82.7727 80.3813 83.6593 79.8475 84.4277C79.4325 85.0187 78.7802 85.3733 78.0094 85.4325L68.0476 86.2599L67.8697 86.2008ZM74.7481 68.2921H74.5703L64.6085 69.1195C64.0154 69.1787 63.4818 69.4741 63.126 69.947C62.6517 70.5972 62.5331 71.3655 62.711 72.1339L64.9642 83.1864C65.2607 84.7232 66.6839 85.9053 68.1069 85.7871L78.0687 84.9596C78.6616 84.9005 79.1953 84.6049 79.5511 84.1322C80.0255 83.482 80.1441 82.7137 79.9662 81.9452L77.7129 70.8926C77.4165 69.4742 76.2305 68.3511 74.7481 68.2921Z" fill="#2E3038"/>
<path id="Vector_56" d="M76.3493 83.1273L68.878 83.7184C67.6328 83.7184 66.5654 82.8318 66.3875 81.5906L64.7272 73.3751C64.49 72.1339 65.2017 71.0109 66.3282 70.9517L73.7996 70.3607C75.0448 70.3607 76.1121 71.2473 76.29 72.4885L77.9503 80.704C78.1875 81.9452 77.4759 83.0091 76.3493 83.1273Z" fill="#2E3038"/>
<path id="Vector_57" d="M117.915 84.4277C117.915 84.4277 90.6983 78.1036 89.1566 77.808C87.6149 77.5125 81.3295 75.6211 79.8471 75.6802C78.3647 75.7393 73.0873 76.4486 72.0792 76.9806C71.0712 77.5125 71.427 77.9854 71.9607 77.9262L77.5346 77.1578L80.4401 78.8128C80.4401 78.8128 78.6612 80.5859 78.5426 81.768C78.3054 84.7233 78.3647 85.4325 79.0169 85.3143C79.6692 85.1961 79.7878 81.8862 79.7878 81.8862L80.2622 81.5316L80.7366 84.014C80.7366 84.014 81.3888 84.9006 81.7446 83.8958C81.9817 83.2456 81.5074 81.6498 81.5074 81.6498L82.4561 80.8223C82.4561 80.8223 82.6934 82.891 83.1677 83.1274C83.6421 83.3639 83.8792 83.1274 83.8199 82.7137C83.7607 82.3 83.5235 80.7633 83.5235 80.7633L85.243 79.6993C85.243 79.6993 112.934 91.2839 115.78 91.7567C117.737 91.9932 119.753 91.8749 121.651 91.4021L117.915 84.4277Z" fill="white"/>
<path id="Vector_58" d="M117.62 92.2293C117.027 92.2293 116.374 92.1703 115.781 92.1111C112.935 91.6974 87.6747 81.1177 85.3028 80.1129L83.8798 80.9995C83.939 81.4132 84.1169 82.418 84.1169 82.7135C84.1762 83.009 84.0576 83.2455 83.8205 83.4227C83.5833 83.6 83.2274 83.6 82.9902 83.4227C82.5752 83.1863 82.338 82.1815 82.2194 81.4132L81.8044 81.7678C81.9229 82.2407 82.2194 83.4228 81.9822 84.0138C81.8637 84.4275 81.6265 84.6048 81.33 84.664C80.8556 84.723 80.4998 84.2502 80.4405 84.1911C80.4405 84.132 80.3812 84.132 80.3812 84.0729L80.0254 82.0633C79.9662 83.6592 79.729 85.5505 79.0174 85.6096C78.7803 85.6688 78.6024 85.6096 78.4245 85.4323C78.0094 85.0777 78.0094 84.1911 78.2466 81.7087C78.3059 80.704 79.4325 79.4036 79.9662 78.8717L77.4757 77.4532L72.0205 78.1625C71.6647 78.2215 71.3682 78.0443 71.1903 77.7487C71.131 77.5122 71.131 77.0985 71.9612 76.6257C73.0878 76.0347 78.4838 75.3254 79.8476 75.2663C80.915 75.2072 84.4727 76.1529 87.0224 76.803C87.9711 77.0395 88.8014 77.2759 89.2164 77.394C90.7581 77.7487 117.679 83.9547 117.975 84.0138C118.035 84.0138 118.153 84.0729 118.153 84.132L121.948 91.1655C122.007 91.2245 122.007 91.3428 121.948 91.4019C121.889 91.461 121.829 91.5201 121.77 91.5792C120.406 92.052 119.043 92.2293 117.62 92.2293ZM85.2435 79.4627C85.3028 79.4627 85.3028 79.4627 85.3621 79.4627C85.6586 79.581 113.054 91.0473 115.841 91.461C117.62 91.6974 119.458 91.5792 121.236 91.1655L117.738 84.6048C115.663 84.132 90.5802 78.3397 89.0978 77.9851C88.6828 77.8669 87.8526 77.6896 86.8446 77.394C84.4727 76.7439 80.8556 75.7982 79.8476 75.8573C78.3652 75.9165 73.1471 76.6257 72.1983 77.0985C71.7833 77.335 71.724 77.4532 71.724 77.5122C71.724 77.5714 71.7833 77.5122 71.8426 77.5122H71.9019L77.4757 76.803C77.535 76.803 77.5943 76.803 77.6536 76.8621L80.5591 78.517C80.6184 78.5762 80.6777 78.6352 80.6777 78.7535C80.6777 78.8717 80.6777 78.9308 80.6184 78.9899C80.144 79.4627 78.8989 80.8812 78.7803 81.7087C78.721 82.8317 78.5431 84.723 78.7803 84.9595C78.8396 84.9595 78.8396 84.9595 78.8989 84.9595C79.136 84.7822 79.3732 83.3045 79.3732 81.7678C79.3732 81.6496 79.4325 81.5905 79.4918 81.5314L79.9662 81.1767C80.0254 81.1177 80.144 81.1177 80.2626 81.1177C80.3812 81.1767 80.4405 81.2359 80.4405 81.3541L80.915 83.7774C81.0335 83.8956 81.1521 83.9547 81.2114 83.9547C81.2707 83.9547 81.33 83.8956 81.3893 83.7182C81.4486 83.009 81.3893 82.2997 81.1521 81.6496C81.0928 81.5314 81.1521 81.4132 81.2707 81.3541L82.2194 80.5266C82.2787 80.4675 82.3973 80.4675 82.5159 80.4675C82.6345 80.5266 82.6938 80.5858 82.6938 80.704C82.8124 81.7087 83.0495 82.6544 83.2867 82.8317C83.346 82.8908 83.4053 82.8908 83.5239 82.8317C83.5239 82.8317 83.5833 82.7726 83.5239 82.7135C83.4646 82.2997 83.2274 80.8221 83.2274 80.8221C83.2274 80.704 83.2867 80.5858 83.3461 80.5266L85.0656 79.4627C85.1842 79.4036 85.1842 79.4627 85.2435 79.4627Z" fill="#2E3038"/>
<path id="Vector_59" d="M197.551 100.149C197.551 100.149 195.713 103.104 196.188 103.341C196.662 103.578 198.619 101.213 198.619 101.213L197.67 104.168C197.67 104.168 197.611 104.76 198.678 104.051C199.745 103.341 199.508 101.391 199.508 101.391L199.627 104.523C199.627 104.523 198.915 105.646 199.923 105.528C200.931 105.409 201.109 102.987 200.99 102.277C200.753 101.391 200.338 100.623 199.805 99.9128C199.212 99.2039 197.729 99.3813 197.551 100.149Z" fill="white"/>
<path id="Vector_60" d="M199.745 105.824C199.508 105.824 199.27 105.764 199.152 105.528C198.915 105.174 199.152 104.641 199.33 104.405V103.814C199.211 103.992 199.033 104.168 198.855 104.286C198.262 104.701 197.847 104.819 197.61 104.641C197.432 104.523 197.373 104.346 197.373 104.168L197.907 102.514C196.602 103.873 196.246 103.696 196.069 103.637C195.95 103.578 195.891 103.459 195.831 103.341C195.653 102.75 196.78 100.858 197.314 100.09C197.492 99.6179 197.907 99.3221 198.381 99.263C198.974 99.0855 199.626 99.263 200.041 99.7353C200.634 100.445 201.109 101.332 201.286 102.277C201.346 102.928 201.286 103.578 201.168 104.227C200.871 105.469 200.338 105.824 199.982 105.883C199.923 105.824 199.804 105.824 199.745 105.824ZM199.685 105.233C199.745 105.233 199.804 105.233 199.863 105.233C200.16 105.174 200.397 104.76 200.575 104.051C200.693 103.459 200.753 102.869 200.693 102.277C200.456 101.45 200.101 100.682 199.567 100.031C199.27 99.7353 198.855 99.677 198.5 99.7944C198.262 99.8536 198.025 100.031 197.907 100.268C197.907 100.327 197.907 100.327 197.847 100.327C197.314 101.154 196.839 102.1 196.484 103.045C197.195 102.455 197.847 101.805 198.44 101.036C198.559 100.917 198.677 100.917 198.796 100.977C198.915 101.036 198.974 101.213 198.915 101.332L198.025 104.11C198.203 104.051 198.381 103.932 198.559 103.814C199.093 103.341 199.33 102.691 199.27 102.04V101.391C199.27 101.213 199.389 101.095 199.567 101.095C199.745 101.095 199.863 101.213 199.863 101.332C199.863 101.568 199.923 101.805 199.863 101.981L199.923 104.464C199.923 104.523 199.923 104.582 199.863 104.641C199.804 104.819 199.745 104.996 199.685 105.233Z" fill="#2E3038"/>
<path id="Vector_61" d="M177.034 75.5619C177.034 75.5619 180.414 76.212 182.193 77.1577C183.972 78.1034 197.55 92.4068 197.906 94.0028C198.321 95.6573 199.032 97.2535 200.04 98.6132C200.753 99.5587 203.065 102.395 203.243 103.577C203.421 104.76 202.947 105.705 202.354 104.878C201.761 104.051 200.516 102.159 199.507 101.391C198.499 100.623 195.415 99.9718 195.415 99.9718C195.415 100.917 195.356 101.864 195.178 102.809C194.882 104.169 193.874 105.35 193.755 104.641C193.577 103.4 193.459 102.1 193.518 100.8C193.637 99.4404 193.637 97.0761 193.637 97.0761L194.052 94.4751C194.052 94.4751 185.039 88.8013 181.659 87.0282C178.279 85.255 175.196 83.2455 175.196 83.2455L173.061 83.0682C173.061 83.0682 173.179 79.3446 174.484 77.8079C175.255 77.0395 176.085 76.212 177.034 75.5619Z" fill="white"/>
<path id="Vector_62" d="M202.769 105.469C202.473 105.469 202.235 105.292 202.117 105.055C201.583 104.228 200.279 102.336 199.33 101.627C198.618 101.095 196.542 100.563 195.712 100.386C195.712 101.213 195.653 102.1 195.475 102.928C195.297 103.992 194.586 105.233 193.933 105.233C193.696 105.233 193.459 104.996 193.459 104.76C193.281 103.459 193.163 102.159 193.222 100.859C193.34 99.5587 193.34 97.1944 193.34 97.1352L193.696 94.7118C192.451 93.9437 184.565 89.0379 181.541 87.3829C178.517 85.728 175.552 83.9549 175.078 83.6593L173.003 83.482C172.825 83.482 172.706 83.3638 172.706 83.1865C172.706 83.0091 172.825 79.3446 174.188 77.7488C174.959 76.8623 175.849 76.0348 176.797 75.3846C176.857 75.3256 176.916 75.3256 177.035 75.3256C177.153 75.3256 180.474 75.9757 182.252 76.9213C184.031 77.8671 197.728 92.1704 198.143 93.9437C198.558 95.539 199.27 97.0761 200.219 98.4357L200.575 98.908C201.939 100.623 203.362 102.514 203.481 103.577C203.599 104.346 203.481 105.292 202.888 105.469C202.888 105.469 202.828 105.469 202.769 105.469ZM195.416 99.677H195.475C195.594 99.7362 198.618 100.327 199.685 101.154C200.753 101.982 202.058 103.873 202.591 104.7C202.71 104.878 202.769 104.878 202.769 104.878C202.947 104.464 203.006 104.051 202.947 103.577C202.828 102.632 201.05 100.327 200.16 99.2038L199.804 98.7315C198.795 97.3127 198.084 95.7164 197.61 94.0028C197.313 92.7024 183.913 78.399 182.015 77.3351C180.414 76.6258 178.754 76.0939 177.094 75.7984C176.204 76.4486 175.434 77.1578 174.722 77.9853C173.714 79.1673 173.477 81.8861 173.418 82.7727L175.256 82.8909C175.315 82.8909 175.374 82.8909 175.374 82.9501C175.374 82.9501 178.517 84.9596 181.837 86.6736C185.158 88.3877 194.111 94.062 194.23 94.1211C194.348 94.1803 194.408 94.2986 194.348 94.416L193.933 97.0169C193.933 97.0761 193.933 99.3812 193.815 100.741C193.755 101.982 193.815 103.164 193.993 104.405C194.408 103.932 194.704 103.341 194.823 102.691C195.001 101.746 195.06 100.859 195.06 99.9127C195.06 99.7953 195.119 99.7362 195.179 99.677C195.297 99.7362 195.356 99.677 195.416 99.677Z" fill="#2E3038"/>
<path id="Vector_63" d="M155.569 113.803L156.162 121.309C156.162 121.309 153.375 146.133 158.948 153.285C164.522 160.437 182.608 179.173 182.608 179.173L185.454 175.804C185.454 175.804 175.374 156.299 173.476 153.521C171.579 150.743 168.554 143.473 168.554 143.473C168.554 143.473 174.781 117.585 175.255 115.28C175.73 112.976 175.492 106.769 175.374 106.178C175.255 105.587 168.258 109.074 164.166 110.493C160.075 111.912 155.569 113.803 155.569 113.803Z" fill="#2E3038"/>
<path id="Vector_64" d="M182.549 179.527C182.489 179.527 182.371 179.468 182.311 179.409C182.133 179.232 164.166 160.554 158.593 153.462C153.019 146.369 155.628 122.255 155.747 121.25L155.154 113.803C155.154 113.685 155.213 113.566 155.332 113.507C155.391 113.507 159.779 111.734 163.87 110.256C165.59 109.666 167.903 108.66 169.919 107.774C173.892 106.06 174.959 105.646 175.315 105.883C175.433 105.942 175.493 106.06 175.493 106.119C175.552 106.71 175.789 112.976 175.374 115.339C174.959 117.585 169.148 141.464 168.674 143.414C169.029 144.241 171.816 150.802 173.536 153.344C175.374 156.063 185.098 174.858 185.513 175.626C185.573 175.745 185.573 175.863 185.454 175.922L182.608 179.291C182.726 179.468 182.608 179.527 182.549 179.527ZM155.865 113.98L156.399 121.309C156.399 121.605 153.671 146.133 159.126 153.107C164.285 159.727 180.414 176.572 182.549 178.759L185.039 175.804C184.031 173.853 174.959 156.299 173.18 153.758C171.342 151.039 168.318 143.947 168.199 143.651C168.199 143.592 168.199 143.533 168.199 143.473C168.259 143.237 174.425 117.585 174.9 115.339C175.315 113.271 175.137 107.774 175.018 106.533C173.417 107.065 171.816 107.715 170.215 108.425C168.199 109.311 165.887 110.256 164.107 110.906C160.609 112.088 156.755 113.625 155.865 113.98Z" fill="#2E3038"/>
<path id="Vector_65" d="M166.243 115.635C166.243 115.635 164.285 117.822 164.819 118.354L165.353 118.886C165.353 118.886 154.383 133.189 152.96 136.913C151.537 140.636 148.691 149.679 148.75 150.152C148.809 150.625 150.647 152.162 151.833 152.102C153.019 152.043 190.02 154.644 190.02 154.644L190.85 150.979L163.989 142.469C163.989 142.469 180.117 119.004 180.888 116.817C181.659 114.63 180.651 107.478 180.533 106.414C180.414 105.35 178.991 103.932 177.805 104.109C176.619 104.286 166.539 111.439 166.539 111.439" fill="#2E3038"/>
<path id="Vector_66" d="M190.019 154.998C189.664 154.998 153.197 152.457 151.892 152.457C150.647 152.457 148.572 150.92 148.513 150.211C148.453 149.501 151.477 140.223 152.722 136.854C154.086 133.307 163.573 120.777 164.996 118.945L164.641 118.59C164.048 117.94 165.234 116.344 166.065 115.457C166.183 115.339 166.361 115.339 166.48 115.457C166.598 115.576 166.598 115.753 166.48 115.871C165.65 116.817 164.937 117.94 165.056 118.177L165.589 118.708C165.709 118.826 165.709 119.004 165.589 119.122C165.471 119.24 154.62 133.425 153.256 137.09C151.774 140.932 149.106 149.561 149.046 150.211C149.165 150.506 150.825 151.925 151.833 151.925C153.138 151.925 186.284 154.171 189.782 154.408L190.494 151.216L163.87 142.823C163.751 142.763 163.692 142.705 163.692 142.646C163.633 142.587 163.692 142.469 163.751 142.409C169.326 134.312 180.058 118.531 180.592 116.817C181.244 114.867 180.473 108.483 180.236 106.532C180.117 106.001 179.821 105.469 179.346 105.115C178.991 104.701 178.398 104.464 177.864 104.464C177.034 104.582 170.63 108.956 166.717 111.734C166.598 111.852 166.42 111.793 166.302 111.675C166.183 111.557 166.242 111.379 166.361 111.261C167.428 110.552 176.56 104.05 177.746 103.873C178.516 103.814 179.228 104.109 179.702 104.641C180.236 105.115 180.592 105.705 180.77 106.414C181.125 108.897 181.837 114.926 181.125 116.935C180.414 118.945 166.48 139.394 164.403 142.35L190.909 150.743C191.087 150.802 191.146 150.92 191.087 151.098L190.257 154.763C190.257 154.88 190.197 154.998 190.019 154.998Z" fill="#2E3038"/>
<path id="Vector_67" d="M135.704 79.6402C127.7 82.1817 128.115 82.1225 128.115 82.1225L116.492 83.8366L121.652 94.0029L135.171 95.539C135.171 95.539 148.394 108.01 150.885 108.484C153.375 108.956 154.857 111.853 154.857 111.853C154.857 111.853 153.909 113.566 155.213 114.334C156.518 115.103 158.415 115.221 162.447 114.157C166.479 113.093 172.231 109.783 174.9 107.655C177.568 105.528 181.422 103.045 180.177 101.981C179.05 101.213 177.864 100.563 176.56 100.149L164.226 87.3829L174.425 88.1512C174.425 88.1512 174.307 82.2407 174.485 80.3493C174.663 78.458 177.094 75.5619 177.094 75.5619C177.094 75.5619 164.048 74.6162 160.312 74.0251C156.577 73.4341 152.96 73.6706 151.478 74.3798C149.995 75.0891 143.057 76.9804 142.701 77.0395C142.345 77.0986 135.704 79.6402 135.704 79.6402Z" fill="white"/>
<path id="Vector_68" d="M157.822 115.222C156.873 115.281 155.925 115.044 155.095 114.571C153.909 113.921 154.205 112.562 154.561 111.793C154.264 111.261 152.901 109.074 150.885 108.72C148.394 108.247 136.238 96.8395 135.052 95.7757L121.474 94.2395L116.078 83.5412L128.115 81.8272C128.708 81.5316 130.487 80.9997 135.645 79.3448C136.772 78.9311 142.228 76.8624 142.643 76.8033C143.058 76.7442 149.936 74.9119 151.359 74.2027C153.019 73.3752 156.696 73.257 160.372 73.7889C164.048 74.38 176.975 75.3257 177.094 75.3257L177.687 75.3848L177.331 75.8576C177.331 75.8576 174.959 78.6946 174.781 80.4678C174.603 82.2409 174.781 88.1513 174.781 88.2105V88.5651L164.997 87.7968L176.797 100.031C178.102 100.445 179.347 101.036 180.414 101.864C180.651 102.041 180.77 102.336 180.77 102.573C180.711 103.696 178.695 105.292 176.501 106.947C176.026 107.301 175.552 107.655 175.137 108.01C172.528 110.02 166.776 113.448 162.566 114.571C160.965 114.926 159.364 115.163 157.822 115.222ZM121.83 93.7072L135.289 95.2442L135.349 95.3034C139.025 98.7315 148.987 107.774 150.944 108.188C153.553 108.661 155.035 111.616 155.095 111.734L155.154 111.853L155.095 111.971C155.095 112.03 154.264 113.448 155.332 114.099C156.399 114.748 157.941 115.103 162.388 113.921C166.479 112.857 172.172 109.488 174.722 107.479C175.137 107.124 175.611 106.769 176.086 106.415C177.864 105.055 180.118 103.4 180.118 102.514C180.118 102.395 180.058 102.277 179.999 102.218C178.932 101.45 177.746 100.859 176.501 100.445H176.441L176.382 100.386L163.514 86.9693L174.188 87.7968C174.188 86.5556 174.129 81.9454 174.248 80.2905C174.366 78.7538 175.848 76.685 176.56 75.7985C174.01 75.6212 163.574 74.7937 160.312 74.3209C156.814 73.7889 153.197 73.9071 151.656 74.6755C150.114 75.4438 143.236 77.2761 142.761 77.3352C142.406 77.3943 138.373 78.9311 135.882 79.8767C129.064 82.0636 128.411 82.3 128.293 82.3591L128.174 82.1227L128.233 82.4182L117.027 84.0141L121.83 93.7072Z" fill="#2E3038"/>
<path id="Vector_69" d="M143.947 88.9786L148.869 95.8939L150.173 94.7118L146.556 90.2789" fill="white"/>
<path id="Vector_70" d="M172.054 100.09C172.469 100.031 172.943 100.031 173.358 99.9719L172.054 100.09Z" fill="white"/>
<path id="Vector_71" d="M136.356 81.1769C137.068 83.3637 137.602 85.5506 138.076 87.7966C138.313 89.8062 137.364 91.6384 138.55 91.3429C139.737 91.0473 139.678 87.7374 139.678 87.7374L143.947 88.624L145.844 84.7232C145.844 84.7232 149.343 87.8557 149.284 86.2599C149.224 84.664 145.607 77.8079 145.37 76.2121C145.133 74.6162 143.236 74.2025 141.872 75.3255C140.508 76.4485 136.356 81.1769 136.356 81.1769Z" fill="white"/>
<path id="Vector_72" d="M138.315 91.6383C138.137 91.6383 138.018 91.5792 137.9 91.5202C137.603 91.2246 137.603 90.6927 137.722 89.9243C137.84 89.215 137.84 88.5058 137.781 87.7965C137.306 85.5506 136.772 83.3636 136.12 81.2359L136.061 81.0586L136.179 80.9404C136.357 80.7631 140.449 76.212 141.754 75.089C142.465 74.4389 143.533 74.2024 144.481 74.5571C145.193 74.7935 145.667 75.4436 145.726 76.1529C145.845 76.8621 146.675 78.8127 147.505 80.7039C148.573 83.1273 149.581 85.3732 149.581 86.2598C149.64 86.5554 149.521 86.8509 149.225 86.9691C148.513 87.3237 146.853 86.0234 145.904 85.1959L144.066 88.9195L139.916 88.0329C139.916 89.0377 139.738 91.3428 138.552 91.5792C138.493 91.6383 138.374 91.6383 138.315 91.6383ZM138.255 91.0473C138.315 91.0473 138.374 91.0473 138.433 91.0473C139.085 90.8699 139.323 88.9787 139.323 87.6783V87.3237L143.77 88.2694L145.726 84.2502L146.023 84.4867C147.268 85.6097 148.632 86.4962 148.988 86.4372C148.988 86.4372 148.988 86.378 148.988 86.319C148.928 85.5506 147.861 83.1273 146.912 80.9995C146.023 78.9899 145.133 77.0986 145.074 76.2712C145.015 75.7391 144.659 75.3254 144.185 75.1482C143.473 74.9117 142.643 75.089 142.05 75.621C140.864 76.6257 137.307 80.5858 136.653 81.295C137.307 83.4228 137.9 85.6096 138.315 87.7965C138.374 88.5649 138.374 89.2742 138.255 90.0425C138.196 90.338 138.196 90.6927 138.255 91.0473Z" fill="#2E3038"/>
<path id="Vector_73" d="M130.842 79.4629C132.206 80.113 133.569 80.7041 134.992 81.177C136.534 81.6498 144.184 90.5746 143.947 88.5651C143.71 86.5555 143.175 78.8719 142.701 77.0396C142.108 75.3256 141.455 73.6115 140.685 71.9566C140.685 71.9566 141.93 71.1292 139.914 70.3017C137.898 69.4743 136.356 71.011 136.475 71.8384C136.593 72.6659 136.83 74.3208 136.297 74.5573C135.763 74.7937 130.842 79.4629 130.842 79.4629Z" fill="white"/>
<path id="Vector_74" d="M143.77 89.1561C143.177 89.1561 142.109 88.1513 139.144 85.2551C137.424 83.5411 135.467 81.6498 134.875 81.4724C133.451 80.9405 132.088 80.3495 130.724 79.6994L130.368 79.522L130.665 79.2265C131.851 78.1035 135.645 74.4981 136.179 74.2617C136.238 74.2025 136.416 73.8479 136.179 71.8975C136.179 71.3064 136.475 70.7154 137.009 70.4198C137.899 69.7697 139.025 69.5924 140.033 70.0653C140.864 70.4198 141.279 70.7745 141.339 71.3064C141.339 71.602 141.22 71.8975 141.042 72.0748C141.813 73.6706 142.465 75.3256 142.999 77.0396C143.355 78.2808 143.651 82.0635 143.947 85.0779C144.066 86.6146 144.185 87.9149 144.303 88.565C144.363 88.9196 144.185 89.0969 144.066 89.1561C143.947 89.1561 143.888 89.1561 143.77 89.1561ZM131.376 79.4038C132.562 79.9949 133.807 80.5268 135.052 80.9405C135.764 81.1769 137.246 82.5954 139.559 84.9005C140.983 86.3191 142.88 88.2103 143.592 88.565C143.532 87.8558 143.414 86.6146 143.236 85.1369C142.999 82.1226 142.643 78.399 142.347 77.2169C141.754 75.5028 141.101 73.7888 140.331 72.1339L140.211 71.8975L140.449 71.7793C140.508 71.7202 140.746 71.5428 140.686 71.3656C140.627 71.1883 140.568 70.9518 139.737 70.6563C138.966 70.3017 138.017 70.4198 137.306 70.9518C136.95 71.1883 136.772 71.4838 136.713 71.8975C136.95 73.6116 136.95 74.6754 136.357 74.9118C136.06 75.0301 133.629 77.276 131.376 79.4038Z" fill="#2E3038"/>
<path id="Vector_75" d="M126.395 63.1499C124.913 62.8544 123.43 62.3225 122.126 61.554C120.465 60.4311 121.117 58.0669 122.837 57.003C124.557 55.9391 126.691 54.4615 128.945 54.4615C131.198 54.4615 131.969 56.8848 133.57 56.9439C135.17 57.003 139.499 55.0525 141.93 57.0621C144.361 59.0717 144.065 65.9278 143.175 67.3463C142.286 68.7648 140.566 72.0156 140.566 72.0156C140.566 72.0156 139.143 71.661 138.076 71.4246C137.009 71.1881 137.72 70.538 136.534 70.8336C135.348 71.1291 134.162 71.4246 133.154 70.5971C132.146 69.7696 131.85 68.8831 131.198 68.1739C130.546 67.4646 129.419 65.8687 129.597 65.2777C129.715 64.6276 129.834 63.9183 129.834 63.209L126.395 63.1499Z" fill="#2E3038"/>
<path id="Vector_76" d="M140.803 72.3111L140.566 72.252C140.566 72.252 139.202 71.8974 138.076 71.661C137.72 71.6019 137.364 71.3655 137.186 71.0699L137.127 71.0108C136.949 71.0108 136.831 71.0108 136.653 71.0699C135.408 71.3655 134.162 71.661 133.036 70.7744C132.443 70.3015 131.969 69.7696 131.613 69.1195C131.435 68.824 131.257 68.5875 131.02 68.292C131.02 68.292 129.063 66.046 129.36 65.1003C129.478 64.5684 129.597 63.9774 129.597 63.4454L126.336 63.3863C124.794 63.0908 123.312 62.5588 121.948 61.7314C121.236 61.2585 120.821 60.4311 120.881 59.6036C120.999 58.4215 121.651 57.2985 122.719 56.7074L123.43 56.2937C125.09 55.2889 126.929 54.1659 129.004 54.1069C130.368 54.0477 131.257 54.8752 131.969 55.5845C132.562 56.1165 133.036 56.5892 133.629 56.5892C134.281 56.5302 134.874 56.4711 135.526 56.2937C137.542 55.88 140.329 55.2299 142.167 56.7666C144.658 58.7762 144.481 65.8096 143.473 67.4645C142.582 68.883 140.863 72.0747 140.863 72.0747L140.803 72.3111ZM137.009 70.4197C137.246 70.4197 137.483 70.538 137.602 70.7744C137.661 70.8926 137.779 71.0108 138.135 71.129C138.965 71.3063 139.973 71.5428 140.448 71.661C140.863 70.9517 142.226 68.4693 142.939 67.2281C143.828 65.8096 143.947 59.0717 141.752 57.2985C140.151 55.9982 137.483 56.5302 135.586 56.9439C134.933 57.1212 134.222 57.2395 133.57 57.2395C132.739 57.2395 132.087 56.6484 131.494 56.0573C130.783 55.4072 130.071 54.757 129.004 54.757H128.945C127.047 54.757 125.268 55.88 123.667 56.8257L122.956 57.2395C122.066 57.7122 121.474 58.658 121.414 59.6627C121.355 60.3129 121.711 60.9039 122.244 61.2585C123.49 62.0269 124.913 62.4997 126.336 62.7952L130.13 62.8544V63.1499C130.13 63.8592 130.012 64.5684 129.834 65.2777C129.715 65.5732 130.486 66.8735 131.376 67.8782C131.613 68.1738 131.791 68.4693 132.028 68.7648C132.324 69.3559 132.799 69.8288 133.273 70.2425C134.222 70.9517 135.289 70.7153 136.416 70.4197C136.653 70.4197 136.831 70.4197 137.009 70.4197Z" fill="#2E3038"/>
<path id="Vector_77" d="M125.328 62.3225C125.328 62.3225 124.142 66.5189 124.38 67.169C124.617 67.8192 124.795 68.5285 124.913 69.2377L123.253 72.0156C123.253 72.0156 123.549 73.0795 124.083 73.1386C124.735 73.3159 125.388 73.6115 125.921 73.966C125.921 73.966 127.522 79.8174 128.056 79.9948C128.589 80.172 129.894 80.8222 130.428 80.4676C130.961 80.113 136.95 75.8574 137.661 75.2072C138.373 74.5571 138.076 71.3655 138.076 71.3655C138.076 71.3655 139.915 69.1195 139.203 67.5827C138.492 66.046 136.772 66.578 136.238 67.701C135.705 68.824 135.527 69.415 135.527 69.415C135.527 69.415 134.222 69.8288 133.985 69.0604L133.748 68.292C133.748 68.292 131.495 66.5779 131.436 66.1642C131.376 65.7505 132.147 61.6132 132.147 61.6132L125.328 62.3225Z" fill="white"/>
<path id="Vector_78" d="M130.071 80.8223C129.478 80.7631 128.885 80.5859 128.352 80.3494L127.996 80.2312C127.522 80.0539 126.751 78.0444 125.684 74.1434C125.15 73.8479 124.616 73.6115 124.023 73.4341C123.312 73.3751 122.956 72.2521 122.956 72.1339V72.0156L124.616 69.2377C124.498 68.5876 124.32 67.9374 124.083 67.3464C123.845 66.6962 124.735 63.3273 125.031 62.3225L125.091 62.1452L132.621 61.4359L132.562 61.7906C132.265 63.4455 131.791 65.9278 131.85 66.2234C132.502 66.9326 133.273 67.5828 134.044 68.1148L134.103 68.1739L134.4 69.0604C134.4 69.1195 134.459 69.1786 134.518 69.2377C134.815 69.3559 135.111 69.3559 135.408 69.2377C135.467 69.0014 135.704 68.4693 136.06 67.6419C136.357 66.9326 137.068 66.4007 137.898 66.4007C138.61 66.4007 139.262 66.8736 139.558 67.5237C140.27 69.0014 138.847 71.07 138.491 71.5429C138.55 72.3112 138.728 74.8527 137.957 75.5029C137.187 76.153 131.198 80.4677 130.724 80.7631C130.427 80.8223 130.249 80.8814 130.071 80.8223ZM123.608 72.0748C123.727 72.4294 123.964 72.8431 124.142 72.8431C124.853 73.0204 125.506 73.316 126.099 73.7297L126.217 73.7888L126.277 73.907C126.988 76.5667 127.937 79.4629 128.293 79.7584C128.411 79.8175 128.53 79.8175 128.648 79.8766C129.123 80.0539 130.071 80.4085 130.368 80.2312C130.842 79.8766 136.89 75.6211 137.542 74.9709C137.957 74.6163 138.017 72.6658 137.898 71.4246V71.3064L137.957 71.1882C137.957 71.1882 139.677 69.0604 139.025 67.701C138.847 67.2282 138.432 66.9326 137.898 66.9326C137.305 66.9918 136.831 67.2873 136.594 67.8192C136.06 68.9422 135.882 69.4741 135.882 69.4741L135.823 69.5923L135.704 69.6515C135.23 69.8288 134.696 69.8288 134.222 69.6515C133.985 69.5333 133.866 69.3559 133.748 69.1195L133.51 68.4693C132.028 67.2873 131.198 66.578 131.139 66.2234C131.317 64.8049 131.494 63.3863 131.791 61.9678L125.446 62.5589C124.913 64.4503 124.379 66.6371 124.557 66.9918C124.794 67.701 125.031 68.4103 125.15 69.1195V69.2377L123.608 72.0748Z" fill="#2E3038"/>
<path id="Vector_79" d="M81.4485 77.4534C81.4485 77.4534 78.958 78.8719 77.95 79.4038C76.942 79.9357 75.4595 79.9949 75.934 80.5859C76.4083 81.1769 79.1359 80.1721 79.1359 80.1721C79.1359 80.1721 82.2193 80.1722 83.4052 79.9949C84.1168 79.8767 84.7098 79.4038 85.0062 78.6946" fill="white"/>
<path id="Vector_80" d="M76.5859 81.0587C76.2895 81.1178 75.9337 80.9995 75.6965 80.7631C75.5779 80.5858 75.5187 80.4086 75.5779 80.2312C75.6965 79.8765 76.1709 79.6993 76.7638 79.522C77.1196 79.4038 77.4754 79.2856 77.8311 79.1082C78.8392 78.5763 81.3297 77.1578 81.3297 77.1578C81.4483 77.0987 81.6854 77.0987 81.7447 77.276C81.804 77.3942 81.7447 77.5715 81.6261 77.6897C81.5668 77.6897 79.1357 79.1082 78.1277 79.6402C77.7718 79.8175 77.3568 79.9948 76.9417 80.113C76.7045 80.1721 76.4081 80.2903 76.1709 80.4086C76.3488 80.6449 77.7125 80.4086 79.0171 79.8765C79.0764 79.8765 79.0764 79.8765 79.1357 79.8765C79.195 79.8765 82.2191 79.8765 83.4051 79.6993C83.998 79.581 84.5316 79.1673 84.7095 78.6354C84.7688 78.458 84.9467 78.399 85.0653 78.458C85.1839 78.5172 85.3025 78.6945 85.2432 78.8127C84.9467 79.581 84.2352 80.1721 83.4051 80.2903C82.2784 80.4086 79.5507 80.4676 79.1357 80.4676C78.3649 80.8223 77.4754 80.9995 76.5859 81.0587Z" fill="#2E3038"/>
<path id="Vector_81" d="M182.549 179.231L182.253 184.905L178.636 192.411C178.398 192.885 178.814 193.889 179.94 193.417C181.067 192.944 183.498 190.698 184.802 189.634C186.107 188.57 188.182 185.91 189.427 184.964C190.672 184.019 192.036 182.069 191.977 181.655C191.918 181.241 185.395 175.803 185.395 175.803L182.549 179.231Z" fill="#184AFB"/>
<path id="Vector_82" d="M179.465 193.83C178.873 193.83 178.339 193.358 178.339 192.766C178.339 192.59 178.339 192.471 178.457 192.294C178.695 191.821 181.719 185.497 182.074 184.847L182.371 179.232C182.371 179.173 182.371 179.114 182.43 179.055L185.276 175.686C185.395 175.567 185.573 175.567 185.691 175.626C192.332 181.064 192.392 181.478 192.392 181.655C192.451 182.246 190.909 184.374 189.723 185.26C188.893 185.97 188.182 186.738 187.47 187.506C186.759 188.333 185.929 189.162 185.098 189.871C184.743 190.166 184.268 190.579 183.735 190.994C182.43 192.117 181.007 193.358 180.118 193.712C179.881 193.771 179.643 193.83 179.465 193.83ZM182.845 179.349L182.549 184.964C182.549 185.024 182.549 185.024 182.549 185.083L178.932 192.59C178.873 192.766 178.932 193.003 179.05 193.121C179.228 193.299 179.525 193.358 179.881 193.18C180.651 192.885 182.134 191.584 183.32 190.579C183.853 190.166 184.268 189.752 184.683 189.456C185.513 188.748 186.284 187.979 186.937 187.151C187.648 186.324 188.419 185.497 189.308 184.788C190.316 183.96 191.146 182.955 191.739 181.773C191.324 181.241 187.826 178.226 185.454 176.276L182.845 179.349Z" fill="#2E3038"/>
<path id="Vector_83" d="M189.486 185.024C190.731 184.137 192.095 182.128 192.036 181.714C191.798 181.419 191.561 181.123 191.265 180.886C190.375 181.832 188.597 183.841 186.996 185.497C185.217 187.447 180.592 191.762 178.932 193.358C179.228 193.594 179.643 193.594 179.999 193.417C181.126 192.944 183.557 190.698 184.861 189.634C186.166 188.57 188.241 185.969 189.486 185.024Z" fill="#2E3038"/>
<path id="Vector_84" d="M179.465 193.83C179.168 193.83 178.931 193.771 178.753 193.594C178.694 193.535 178.635 193.476 178.635 193.358C178.635 193.299 178.694 193.18 178.753 193.121C180.591 191.408 185.039 187.151 186.817 185.26C188.418 183.547 190.138 181.654 191.087 180.65C191.146 180.591 191.205 180.531 191.324 180.531C191.383 180.531 191.502 180.531 191.561 180.591C192.332 181.3 192.391 181.477 192.45 181.595C192.51 182.187 190.968 184.315 189.782 185.201C188.952 185.91 188.24 186.679 187.529 187.447C186.817 188.274 185.987 189.102 185.157 189.811C184.801 190.107 184.327 190.52 183.793 190.934C182.489 192.057 181.066 193.299 180.176 193.653C179.88 193.771 179.643 193.83 179.465 193.83ZM179.465 193.239C179.583 193.239 179.761 193.239 179.88 193.121C180.651 192.825 182.133 191.525 183.319 190.52C183.853 190.107 184.268 189.693 184.683 189.397C185.513 188.688 186.284 187.92 186.936 187.092C187.647 186.265 188.418 185.438 189.308 184.729C190.316 183.9 191.146 182.896 191.739 181.714C191.62 181.536 191.442 181.36 191.264 181.241C190.316 182.305 188.655 184.078 187.232 185.674C185.572 187.506 181.481 191.348 179.465 193.239Z" fill="#2E3038"/>
<path id="Vector_85" d="M190.02 154.703L193.163 158.191L198.144 168.297C198.144 168.297 199.389 168.593 199.923 168.239C200.456 167.884 199.567 155.294 199.27 153.403C198.974 151.512 199.33 150.684 198.559 150.389C197.788 150.093 190.851 151.098 190.851 151.098L190.02 154.703Z" fill="#184AFB"/>
<path id="Vector_86" d="M199.033 168.593C198.678 168.593 198.381 168.533 198.085 168.474C198.025 168.474 197.907 168.415 197.907 168.297L192.985 158.25L189.901 154.822C189.842 154.762 189.783 154.644 189.842 154.526L190.672 150.861C190.672 150.743 190.791 150.624 190.909 150.624C192.095 150.448 197.907 149.561 198.737 149.916C199.449 150.211 199.449 150.802 199.508 151.688C199.508 152.102 199.567 152.576 199.626 153.166C199.626 153.285 200.99 167.706 200.16 168.297C199.804 168.533 199.449 168.652 199.033 168.593ZM198.322 167.943C198.796 168.061 199.271 168.061 199.686 167.884C200.041 166.82 199.271 155.59 198.974 153.344C198.915 152.811 198.856 152.339 198.856 151.807C198.796 150.92 198.796 150.684 198.441 150.566C198.025 150.389 194.408 150.802 191.087 151.275L190.316 154.644L193.34 157.954L193.4 158.013L198.322 167.943Z" fill="#2E3038"/>
<path id="Vector_87" d="M198.558 150.27C198.262 150.211 197.906 150.152 197.609 150.211C198.024 153.699 198.974 162.505 199.271 164.337C199.389 165.638 199.448 166.997 199.33 168.297C199.567 168.297 199.745 168.238 199.923 168.12C200.456 167.765 199.567 155.176 199.271 153.285C198.974 151.393 199.389 150.624 198.558 150.27Z" fill="#2E3038"/>
<path id="Vector_88" d="M199.33 168.592C199.27 168.592 199.152 168.533 199.093 168.533C199.033 168.474 198.974 168.415 199.033 168.297C199.093 166.997 199.093 165.697 198.974 164.396C198.737 162.505 197.729 153.876 197.372 150.27C197.372 150.211 197.372 150.093 197.432 150.034C197.492 149.975 197.551 149.915 197.669 149.915C198.025 149.856 198.381 149.915 198.737 149.975C199.448 150.27 199.448 150.861 199.508 151.747C199.508 152.161 199.567 152.635 199.626 153.225C199.626 153.344 200.99 167.765 200.16 168.356C199.863 168.474 199.626 168.592 199.33 168.592ZM197.966 150.507C198.381 154.289 199.33 162.505 199.567 164.337C199.685 165.519 199.745 166.761 199.685 167.943H199.745C200.101 166.879 199.33 155.649 199.033 153.403C198.974 152.87 198.915 152.398 198.915 151.866C198.855 150.979 198.855 150.743 198.5 150.624C198.322 150.507 198.144 150.507 197.966 150.507Z" fill="#2E3038"/>
</g>
</g>
</g>
</g>
<defs>
<clipPath id="clip0_12_4063">
<rect width="224" height="200" fill="white"/>
</clipPath>
</defs>
</svg>
