<svg width="200" height="200" viewBox="0 0 200 200" fill="none" xmlns="http://www.w3.org/2000/svg">
<g id="edu8" clip-path="url(#clip0_12_4249)">
<g id="Group" opacity="0.08">
<path id="Vector" opacity="0.08" d="M6.7508 112.767C6.7508 112.767 12.9689 147.681 44.5065 166.601C76.0389 185.522 115.239 181.008 147.101 178.221C178.964 175.434 200.464 152.983 200 124.286C199.536 95.5892 174.233 91.1648 156.474 61.2299C138.71 31.3118 138.337 20.6025 107.79 5.31315C77.2484 -9.98182 35.7416 8.98282 17.988 46.3124C0.234393 83.6421 6.7508 112.767 6.7508 112.767Z" fill="#184AFB"/>
<path id="Vector_2" opacity="0.7" d="M6.7508 112.767C6.7508 112.767 12.9689 147.681 44.5065 166.601C76.0389 185.522 115.239 181.008 147.101 178.221C178.964 175.434 200.464 152.983 200 124.286C199.536 95.5892 174.233 91.1648 156.474 61.2299C138.71 31.3118 138.337 20.6025 107.79 5.31315C77.2484 -9.98182 35.7416 8.98282 17.988 46.3124C0.234393 83.6421 6.7508 112.767 6.7508 112.767Z" fill="#184AFB"/>
</g>
<path id="Vector_3" d="M35.6299 176.899L143.564 133.89" stroke="#2E3038" stroke-width="0.495524" stroke-linecap="round" stroke-linejoin="round"/>
<path id="Vector_4" d="M87.6762 183.989C87.6762 185.843 83.3553 187.348 78.0164 187.348C72.6776 187.348 68.3564 185.843 68.3564 183.989C68.3564 182.135 72.6829 180.659 78.0164 180.659C83.35 180.659 87.6762 182.146 87.6762 183.989Z" stroke="#2E3038" stroke-width="0.495524" stroke-linecap="round" stroke-linejoin="round"/>
<path id="Vector_5" d="M68.3564 183.989C68.3564 183.989 68.7134 190.823 70.2639 195.048C71.8145 199.273 78.5386 200.722 82.1938 199.029C84.9059 197.774 86.2752 193.943 86.9896 190.468" stroke="#2E3038" stroke-width="0.495524" stroke-linecap="round" stroke-linejoin="round"/>
<path id="Vector_6" d="M83.9464 195.669C84.442 196.986 86.2269 197.002 87.3405 196.868C89.4184 196.752 91.0651 194.986 91.1128 192.816C91.2141 191.212 90.7985 189.618 89.9405 188.286C89.2158 187.298 88.092 186.721 86.898 186.709C85.8114 186.704 84.9269 187.614 84.9215 188.747C84.9215 188.875 84.9322 189.002 84.9535 189.13C84.9855 189.368 85.0867 189.591 85.2412 189.774C85.7315 190.329 86.4347 190.007 87.021 190.246C87.5647 190.518 87.9586 191.04 88.0868 191.656C88.3153 192.522 88.4331 193.322 87.8946 194.065C87.5058 194.549 86.8928 194.77 86.2962 194.654C85.7634 194.582 85.3158 194.098 84.7617 194.098C84.2608 194.098 83.8559 194.521 83.8506 195.037C83.8506 195.065 83.8506 195.093 83.8559 195.12C83.8559 195.309 83.8879 195.497 83.9464 195.669Z" fill="white" stroke="#2E3038" stroke-width="0.495524" stroke-linecap="round" stroke-linejoin="round"/>
<path id="Vector_7" d="M78.0649 187.192C82.9262 187.192 86.867 186.146 86.867 184.855C86.867 183.564 82.9262 182.518 78.0649 182.518C73.2036 182.518 69.2627 183.564 69.2627 184.855C69.2627 186.146 73.2036 187.192 78.0649 187.192Z" fill="#2E3038"/>
<path id="Vector_8" d="M75.5767 178.87C75.3583 178.259 75.3103 177.594 75.4382 176.955C75.6886 175.844 76.5677 175.017 77.4895 174.412C78.4539 173.879 79.3757 173.263 80.2389 172.569C81.0435 171.808 81.6242 170.632 81.3045 169.543C81.0435 168.922 80.7344 168.328 80.3828 167.756C79.8872 166.678 80.0257 165.402 80.745 164.469C81.5123 163.569 82.7644 163.32 83.7928 163.864C84.7945 164.48 85.1622 165.802 84.64 166.884C84.2989 167.505 83.6756 167.9 83.2813 168.488C82.7431 169.343 82.7431 170.454 83.2813 171.309C83.6862 171.925 84.3469 172.369 84.5707 173.086C84.7253 173.835 84.4428 174.606 83.846 175.05C83.2546 175.478 82.562 175.723 81.848 175.756C81.1286 175.777 80.4147 175.872 79.7167 176.05C77.985 176.611 77.0153 178.526 77.5534 180.331C77.676 180.735 77.8678 181.119 78.1183 181.446C78.5178 181.974 78.1502 181.674 77.5215 181.302C76.621 180.758 75.9337 179.897 75.5767 178.87Z" fill="#2E3038"/>
<path id="Vector_9" opacity="0.7" d="M75.5816 178.865C75.3631 178.254 75.3152 177.588 75.4431 176.95C75.6935 175.839 76.5727 175.012 77.4944 174.406C78.4535 173.874 79.3753 173.258 80.2385 172.564C81.0483 171.803 81.6238 170.626 81.3041 169.538C81.0483 168.916 80.7393 168.316 80.3824 167.75C79.8815 166.673 80.0253 165.391 80.75 164.464C81.5119 163.559 82.7694 163.309 83.7977 163.859C84.7994 164.475 85.167 165.796 84.6449 166.878C84.2986 167.5 83.6752 167.895 83.2862 168.483C82.7374 169.338 82.7374 170.449 83.2862 171.304C83.6912 171.92 84.3519 172.364 84.5703 173.08C84.7248 173.823 84.4424 174.595 83.851 175.04C83.2596 175.467 82.5669 175.717 81.8476 175.75C81.1283 175.772 80.4143 175.867 79.7163 176.039C77.9793 176.605 77.0149 178.532 77.5584 180.341C77.6809 180.741 77.8674 181.113 78.1179 181.441C78.5228 181.968 78.1498 181.668 77.5211 181.291C76.6206 180.747 75.9386 179.886 75.5816 178.865Z" fill="white"/>
<path id="Vector_10" d="M69.2401 163.653L52.5041 94.9847C51.7742 92.0027 53.1915 88.8996 55.8769 87.6116C70.7213 80.5443 95.8387 72.9663 115.499 73.2772C118.659 73.3271 121.265 75.8754 121.515 79.162L125.831 135.9C126.044 138.698 124.478 141.319 121.974 142.351L69.2401 163.653Z" fill="#2E3038"/>
<path id="Vector_11" opacity="0.5" d="M69.2401 163.653L52.5041 94.9847C51.7742 92.0027 53.1915 88.8996 55.8769 87.6116C70.7213 80.5443 95.8387 72.9663 115.499 73.2772C118.659 73.3271 121.265 75.8754 121.515 79.162L125.831 135.9C126.044 138.698 124.478 141.319 121.974 142.351L69.2401 163.653Z" fill="#2E3038"/>
<path id="Vector_12" d="M111.718 185.277L141.725 172.025C142.541 171.676 142.935 170.704 142.6 169.855C142.482 169.56 142.291 169.304 142.04 169.122L130.222 160.239C129.78 159.912 129.215 159.833 128.709 160.028L98.0345 172.136C97.2033 172.453 96.7765 173.407 97.0804 174.274C97.1869 174.574 97.3739 174.834 97.6189 175.029L110.118 185.06C110.577 185.427 111.189 185.51 111.718 185.277Z" fill="#2E3038"/>
<path id="Vector_13" d="M125.241 163.825C125.241 163.825 134.831 165.258 135.95 170.715C137.069 176.172 115.746 176.372 113.876 172.275C112.005 168.178 122.06 163.825 125.241 163.825Z" fill="white"/>
<path id="Vector_14" d="M132.716 168.823C132.716 168.823 131.171 161.167 126.792 159.817C122.412 158.468 112.218 160.006 112.218 160.006L91.0124 147.026L77.3936 156.797L83.4357 159.35L83.3878 159.429C83.3878 159.429 84.3788 159.823 85.9826 160.428L89.5207 161.927L89.68 161.794C95.2055 163.786 103.065 166.39 107.664 166.918C107.664 166.918 110.492 169.977 113.391 170.559C113.391 170.559 115.245 171.01 116.295 170.687C117.499 170.215 118.831 170.238 120.025 170.749C121.506 171.393 126.498 173.824 127.708 173.152C128.917 172.481 127.064 170.299 123.669 168.305C123.669 168.305 130.457 170.426 131.88 170.426C133.302 170.426 133.857 170.171 133.793 169.871L132.716 168.823Z" fill="white"/>
<path id="Vector_15" d="M122.006 167.362C122.006 167.362 132.06 171.248 133.371 170.277C134.682 169.305 129.177 166.113 123.189 163.969" stroke="#2E3038" stroke-width="0.495524" stroke-linecap="round" stroke-linejoin="round"/>
<path id="Vector_16" d="M126.131 161.994C128.236 162.726 130.116 164.02 131.586 165.747" stroke="#2E3038" stroke-width="0.495524" stroke-linecap="round" stroke-linejoin="round"/>
<path id="Vector_17" d="M132.497 168.572C132.497 168.572 131.053 162.326 127.872 160.184C124.691 158.041 111.979 160.039 111.979 160.039L88.9336 145.649" stroke="#2E3038" stroke-width="0.495524" stroke-linecap="round" stroke-linejoin="round"/>
<path id="Vector_18" d="M77.8086 157.163C80.1104 158.135 83.0303 159.301 86.7124 160.667C99.8033 165.541 107.663 166.906 107.663 166.906C107.663 166.906 112.277 171.959 116.833 170.415C119.901 169.372 125.624 174.118 127.68 173.141C129.738 172.164 124.601 168.439 118.239 165.514" stroke="#2E3038" stroke-width="0.495524" stroke-linecap="round" stroke-linejoin="round"/>
<path id="Vector_19" d="M142.514 134.118L156.138 117.874C156.138 117.874 152.467 110.751 147.901 102.812C143.335 94.8729 137.916 86.1903 135.608 82.9148C129.183 79.6448 138.272 119.889 138.272 119.889L142.514 134.118Z" fill="#184AFB"/>
<path id="Vector_20" d="M156.421 118.613C150.613 105.444 135.608 82.715 135.608 82.715" stroke="#2E3038" stroke-width="0.495524" stroke-linecap="round" stroke-linejoin="round"/>
<path id="Vector_21" d="M87.49 128.933L99.2814 151.884L136.919 136.623L138.358 118.413C140.489 102.978 135.588 82.6762 135.588 82.6762L111.078 77.1856C111.078 77.1856 75.9115 89.738 75.3787 92.1144C74.8459 94.4901 87.49 128.933 87.49 128.933Z" fill="#184AFB"/>
<path id="Vector_22" d="M87.49 128.933L99.2814 151.884L136.919 136.623L138.358 118.413C140.489 102.978 135.588 82.6762 135.588 82.6762L111.078 77.1856C111.078 77.1856 75.9115 89.738 75.3787 92.1144C74.8459 94.4901 87.49 128.933 87.49 128.933Z" stroke="#2E3038" stroke-width="0.495524" stroke-miterlimit="10"/>
<path id="Vector_23" opacity="0.2" d="M80.1369 98.8315C81.0373 100.83 85.4651 111.206 87.0636 113.821C89.1952 94.9838 88.4541 92.9135 90.0792 91.9252L97.6454 87.3283L93.6922 84.8134L93.5104 83.9584C93.5104 83.9584 77.9789 90.1099 75.4854 92.2081C75.4854 92.2081 77.3289 92.6243 80.1369 98.8315Z" fill="#2E3038"/>
<path id="Vector_24" d="M68.926 147.026C76.7424 148.387 84.7507 146.382 91.1236 141.475C91.1236 141.475 90.8405 123.792 89.1946 119.312C87.063 113.555 77.5097 91.0703 75.4583 92.2081C74.0037 93.0135 71.004 117.396 69.5973 133.514C69.0272 140.197 68.7288 145.505 68.926 147.026Z" fill="#184AFB"/>
<path id="Vector_25" d="M68.926 147.026C76.7424 148.387 84.7507 146.382 91.1236 141.475C91.1236 141.475 90.8405 123.792 89.1946 119.312C87.063 113.555 77.5097 91.0703 75.4583 92.2081C74.0037 93.0135 71.004 117.396 69.5973 133.514C69.0272 140.197 68.7288 145.505 68.926 147.026Z" stroke="#2E3038" stroke-width="0.495524" stroke-miterlimit="10"/>
<path id="Vector_26" d="M91.3311 114.742C92.8869 119.495 93.2072 124.597 92.2479 129.522" stroke="#2E3038" stroke-width="0.495524" stroke-linecap="round" stroke-linejoin="round"/>
<path id="Vector_27" d="M79.0928 133.414C82.5774 133.014 86.0674 134.068 88.8057 136.35" stroke="#2E3038" stroke-width="0.495524" stroke-linecap="round" stroke-linejoin="round"/>
<path id="Vector_28" d="M83.376 130.732C86.525 132.281 89.1571 134.774 90.9363 137.894" stroke="#2E3038" stroke-width="0.495524" stroke-linecap="round" stroke-linejoin="round"/>
<path id="Vector_29" d="M136.472 101.646C137.447 106.315 138.171 111.034 138.651 115.786" stroke="#2E3038" stroke-width="0.495524" stroke-linecap="round" stroke-linejoin="round"/>
<path id="Vector_30" d="M78.0803 157.568C78.0803 157.568 92.0511 151.561 93.5325 149.24C95.013 146.921 91.5983 138.754 89.9143 137.388C88.2303 136.022 66.9655 140.247 67.5357 144.733C68.1058 149.219 69.7203 148.736 69.0756 152.505C68.6546 154.976 71.5158 160.495 78.0803 157.568Z" fill="white"/>
<path id="Vector_31" d="M78.2831 157.568C78.2831 157.568 92.2589 151.561 93.7351 149.24C95.2112 146.921 91.8061 138.754 90.1221 137.388C88.439 136.022 67.1685 140.247 67.7439 144.733C68.3193 149.219 69.9285 148.736 69.2891 152.505C68.8628 154.976 71.7188 160.495 78.2831 157.568Z" stroke="#2E3038" stroke-width="0.495524" stroke-miterlimit="10"/>
<path id="Vector_32" d="M144.219 137.538C144.086 137.422 143.958 137.305 143.836 137.178C140.287 133.574 142.535 129.027 145.434 125.874C148.098 122.965 152.851 118.534 156.858 118.035C158.664 117.807 159.469 118.851 160.518 120.172C161.121 120.927 161.866 121.555 162.447 122.332C164.264 124.858 164.163 128.356 162.212 130.765C160.55 132.68 158.264 133.386 156.07 134.357C153.406 135.528 150.922 137.466 148.215 138.426C146.83 138.876 145.317 138.537 144.219 137.538Z" fill="white"/>
<path id="Vector_33" d="M144.219 137.538C144.086 137.422 143.958 137.305 143.836 137.178C140.287 133.574 142.535 129.027 145.434 125.874C148.098 122.965 152.851 118.534 156.858 118.035C158.664 117.807 159.469 118.851 160.518 120.172C161.121 120.927 161.866 121.555 162.447 122.332C164.264 124.858 164.163 128.356 162.213 130.765C160.55 132.68 158.264 133.386 156.07 134.357C153.406 135.528 150.922 137.466 148.215 138.426C146.83 138.876 145.317 138.537 144.219 137.538Z" stroke="#2E3038" stroke-width="0.495524" stroke-miterlimit="10"/>
<path id="Vector_34" d="M91.0275 34.0211C90.7505 31.2897 91.5496 28.5526 93.244 26.4486C94.9435 24.3667 97.1548 22.8122 99.6379 21.9406" stroke="#2E3038" stroke-width="0.495524" stroke-linecap="round" stroke-linejoin="round"/>
<path id="Vector_35" d="M115.281 70.6068C114.946 74.765 114.818 84.5638 115.053 88.7332L99.9948 81.4159C100.528 77.6464 100.725 70.7956 99.8242 67.1037L115.276 70.6068" fill="white"/>
<path id="Vector_36" d="M115.281 70.6068C114.946 74.765 114.818 84.5638 115.053 88.7332L99.9948 81.4159C100.528 77.6464 100.725 70.7956 99.8242 67.1037L115.276 70.6068" stroke="#2E3038" stroke-width="0.495524" stroke-miterlimit="10"/>
<path id="Vector_37" d="M100.528 69.4963C100.528 69.4963 104.983 78.1126 109.661 78.2735C114.232 78.4235 115.256 71.3284 115.256 71.3284C115.256 71.3284 113.359 75.0813 111.296 74.9981C109.235 74.9148 100.528 69.4963 100.528 69.4963Z" fill="#2E3038"/>
<path id="Vector_38" d="M120.029 34.0377C120.029 34.0377 100.571 29.6962 95.0667 34.9981C89.5619 40.2999 90.9368 46.207 90.9368 46.207L91.4381 47.9114C91.2996 47.9114 91.161 47.9224 91.0225 47.9558C89.5567 48.3166 88.0701 50.1764 88.5602 52.8357C89.0511 55.495 92.1732 61.3353 94.4745 60.7135C94.7359 60.6469 94.9862 60.5359 95.2208 60.3971C95.9879 62.801 96.6649 64.7941 97.032 65.6046C98.4978 68.8246 109.649 75.5255 112.266 74.5984C114.882 73.6712 121.745 59.7864 122.081 56.4332C122.416 53.0799 120.029 34.0377 120.029 34.0377Z" fill="white"/>
<path id="Vector_39" d="M109.42 52.2359C109.42 53.2075 109.079 54.0013 108.658 54.0013C108.237 54.0013 107.891 53.213 107.891 52.2359C107.891 51.2588 108.232 50.476 108.653 50.4704C109.073 50.4649 109.42 51.2699 109.42 52.2359Z" fill="#2E3038"/>
<path id="Vector_40" d="M117.872 51.7863C117.872 52.7578 117.531 53.5518 117.11 53.5518C116.689 53.5518 116.348 52.7578 116.343 51.7863C116.337 50.8147 116.683 50.0209 117.11 50.0209C117.536 50.0209 117.872 50.8093 117.872 51.7863Z" fill="#2E3038"/>
<path id="Vector_41" d="M115.313 64.2888C113.997 64.1223 112.665 64.2166 111.381 64.5609" stroke="#2E3038" stroke-width="0.495524" stroke-linecap="round" stroke-linejoin="round"/>
<path id="Vector_42" d="M110.457 46.5222C108.677 46.8297 107.003 47.6022 105.583 48.7616" stroke="#2E3038" stroke-width="0.991049" stroke-linecap="round" stroke-linejoin="round"/>
<path id="Vector_43" d="M115.809 45.3942C116.908 45.3172 118.016 45.4844 119.051 45.8926" stroke="#2E3038" stroke-width="0.991049" stroke-linecap="round" stroke-linejoin="round"/>
<path id="Vector_44" d="M113.209 50.887C113.363 52.0362 113.518 53.1854 113.677 54.3347C113.721 54.8343 113.832 55.3229 114.019 55.7836C114.413 56.6108 115.212 57.1383 116.096 57.166C116.353 57.1327 116.613 57.1715 116.848 57.277C117.061 57.4325 117.173 57.6934 117.152 57.9599C117.093 58.4096 116.885 58.8204 116.566 59.1258C116.027 59.742 115.399 60.2694 114.706 60.6858" stroke="#2E3038" stroke-width="0.495524" stroke-linecap="round" stroke-linejoin="round"/>
<path id="Vector_45" d="M91.0117 51.4531C92.7805 52.991 93.6489 55.3782 93.313 57.7488" stroke="#2E3038" stroke-width="0.495524" stroke-linecap="round" stroke-linejoin="round"/>
<path id="Vector_46" d="M90.6982 54.3569C90.8099 54.0959 91.0394 53.9127 91.3052 53.8628C91.5666 53.8072 91.8385 53.8072 92.0991 53.8628C92.2861 53.8905 92.4671 53.9571 92.6324 54.0459C92.8402 54.1848 92.9944 54.3958 93.0688 54.64" stroke="#2E3038" stroke-width="0.495524" stroke-linecap="round" stroke-linejoin="round"/>
<path id="Vector_47" d="M95.9891 56.5887C95.9891 56.5887 97.1501 60.053 94.2731 60.8247C91.977 61.4465 88.854 55.6116 88.3588 52.9468C88.0549 51.5923 88.3856 50.1654 89.2384 49.0995C89.654 48.5887 90.2133 48.2334 90.8367 48.0724C92.5363 47.6505 94.2306 49.799 95.3016 51.5644C95.6263 52.1251 95.9778 52.6693 96.3674 53.1856" stroke="#2E3038" stroke-width="0.495524" stroke-linecap="round" stroke-linejoin="round"/>
<path id="Vector_48" d="M95.0241 60.5026C95.7912 62.9175 96.4622 64.9051 96.8302 65.7156C98.2951 68.9411 109.447 75.6366 112.064 74.7094C114.68 73.7822 121.543 59.8975 121.884 56.5442C122.224 53.191 119.848 34.1487 119.848 34.1487C119.848 34.1487 100.389 29.8073 94.8856 35.1091C89.3817 40.411 90.7349 46.318 90.7349 46.318" stroke="#2E3038" stroke-width="0.495524" stroke-miterlimit="10"/>
<path id="Vector_49" d="M124.537 24.8885C124.537 24.8885 127.542 31.4062 123.706 35.842C119.869 40.2779 111.1 36.6248 111.1 36.6248" stroke="#2E3038" stroke-width="0.495524" stroke-linecap="round" stroke-linejoin="round"/>
<path id="Vector_50" d="M120.888 21.9182C119.673 22.4345 121.751 24.6552 119.161 25.3381C116.572 26.0209 96.0159 16.0778 90.8419 33.3991C90.8419 33.3991 81.6296 40.2167 89.2436 49.0994C89.6592 48.5886 90.2185 48.2332 90.8419 48.0722C92.4938 47.667 94.1345 49.6768 95.2116 51.4033C95.6904 52.8468 96.4419 54.1403 97.5874 53.7017C99.6765 52.9133 98.9726 50.1875 98.1207 48.1944C97.8488 47.5615 97.5553 47.0064 97.3371 46.6067C96.0263 44.2305 94.0869 41.6101 94.9718 38.7287C96.7406 35.2701 102.116 34.726 107.226 36.0861C115.688 38.3346 125.587 35.1146 125.433 28.7635C125.278 22.4123 122.103 21.4019 120.888 21.9182Z" fill="#2E3038"/>
<path id="Vector_51" opacity="0.5" d="M124.765 24.7718C124.755 24.7441 124.738 24.7218 124.717 24.6997C123.684 21.9849 121.771 21.5407 120.886 21.9238C119.672 22.4401 121.749 24.6607 119.16 25.3436C116.57 26.0265 96.9841 16.5553 91.2404 32.2222C91.4109 30.168 92.178 28.2139 93.4404 26.6206C95.1027 24.5719 97.2715 23.0397 99.7122 22.1792C99.8395 22.1181 99.8932 21.9571 99.8343 21.8239C99.7815 21.7073 99.6586 21.6462 99.5417 21.6795C97.0213 22.5734 94.7832 24.1611 93.0681 26.2819C91.5495 28.1806 90.7183 30.5789 90.7235 33.0494C86.9936 33.8822 84.0683 36.8967 83.2264 40.7773C83.1945 40.9217 83.2797 41.0605 83.4182 41.0938H83.4715C83.5888 41.0938 83.6954 41.0106 83.7219 40.8884C84.4999 37.3076 87.159 34.4873 90.585 33.6157C89.114 34.8481 82.4431 41.1382 89.2577 49.0938C89.6733 48.5831 90.2334 48.2278 90.8568 48.0668C92.5079 47.6615 94.1495 49.6712 95.2257 51.3978C95.7053 52.8412 96.4568 54.1348 97.6023 53.6961C99.6906 52.9079 98.9876 50.1819 98.1347 48.1889C97.8629 47.556 97.5702 47.0008 97.3512 46.6011C96.0404 44.225 94.101 41.6045 94.9858 38.7233C96.7547 35.2645 102.131 34.7205 107.24 36.0807C108.445 36.397 109.671 36.608 110.906 36.7135C110.933 36.7801 110.982 36.8301 111.045 36.8634C113.272 37.7461 115.633 38.2347 118.014 38.3069C120.188 38.3069 122.415 37.7516 123.934 36.0085C127.797 31.5061 124.797 24.8384 124.765 24.7718ZM123.513 35.6643C120.663 38.9619 114.876 37.5962 112.382 36.7746C118.888 36.8801 124.888 34.1153 125.373 29.4907C125.601 31.7281 124.925 33.9654 123.513 35.6643Z" fill="#2E3038"/>
<path id="Vector_52" d="M109.191 87.3065C109.405 87.0844 115.367 85.9463 115.367 85.9463C115.367 85.9463 114.35 93.291 114.835 95.9396L112.367 96.3946C112.367 96.3946 109.97 91.7757 108.078 90.3378C106.187 88.8998 109.191 87.3065 109.191 87.3065Z" fill="#2E3038"/>
<path id="Vector_53" d="M112.729 95.173L112.766 126.346L119.511 131.659L122.378 124.141L114.082 94.4955L112.729 95.173Z" fill="#2E3038"/>
<path id="Vector_54" d="M112.511 82.2153L115.808 77.6352C115.974 77.3798 116.305 77.3133 116.55 77.4797C116.587 77.502 116.619 77.5353 116.646 77.5686L120.86 81.96C121.047 82.1377 121.084 82.4319 120.95 82.654L115.889 92.0586C115.776 92.3415 115.462 92.4748 115.191 92.3532C115.021 92.2748 114.898 92.1144 114.871 91.9252L112.42 82.7151C112.377 82.5429 112.415 82.3597 112.511 82.2153Z" fill="white"/>
<path id="Vector_55" d="M112.511 82.2153L115.808 77.6352C115.974 77.3798 116.305 77.3133 116.55 77.4797C116.587 77.502 116.619 77.5353 116.646 77.5686L120.86 81.96C121.047 82.1377 121.084 82.4319 120.95 82.654L115.889 92.0586C115.776 92.3415 115.462 92.4748 115.191 92.3532C115.021 92.2748 114.898 92.1144 114.871 91.9252L112.42 82.7151C112.377 82.5429 112.415 82.3597 112.511 82.2153Z" stroke="#2E3038" stroke-width="0.495524" stroke-linecap="round" stroke-linejoin="round"/>
<path id="Vector_56" d="M99.0402 76.9189L111.828 82.2263C112.105 82.3263 112.254 82.6427 112.159 82.9314C112.154 82.9426 112.154 82.9481 112.148 82.9591L108.865 92.6307C108.781 92.9244 108.488 93.091 108.205 93.0081C108.162 92.9964 108.12 92.9748 108.077 92.9469L93.6913 84.8135C93.4247 84.6802 93.313 84.3526 93.4402 84.0751C93.4619 84.0362 93.4835 83.9973 93.5095 83.9585L98.3961 77.1132C98.5398 76.9023 98.8117 76.8189 99.0402 76.9189Z" fill="white"/>
<path id="Vector_57" d="M99.0402 76.9189L111.828 82.2263C112.105 82.3262 112.254 82.6427 112.159 82.9314C112.154 82.9426 112.154 82.9481 112.148 82.9591L108.865 92.6307C108.781 92.9244 108.488 93.091 108.205 93.0081C108.162 92.9964 108.12 92.9748 108.077 92.9469L93.6913 84.8135C93.4247 84.6802 93.313 84.3526 93.4402 84.0751C93.4619 84.0362 93.4835 83.9973 93.5095 83.9585L98.3961 77.1132C98.5398 76.9023 98.8117 76.8189 99.0402 76.9189Z" stroke="#2E3038" stroke-width="0.495524" stroke-linecap="round" stroke-linejoin="round"/>
<path id="Vector_58" d="M141.981 132.886L138.198 119.778" stroke="#2E3038" stroke-width="0.495524" stroke-miterlimit="10"/>
<path id="Vector_59" d="M149.755 137.383L123.647 148.808C122.838 149.175 122.464 150.151 122.816 150.995C122.939 151.289 123.135 151.54 123.386 151.717L143.543 165.679L156.656 152.039L149.755 137.383Z" fill="white" stroke="#2E3038" stroke-width="0.495524" stroke-miterlimit="10"/>
<path id="Vector_60" d="M138.891 149.391L135.753 150.673L137.437 151.912L140.581 150.629L138.891 149.391ZM138.891 149.391L135.753 150.673L137.437 151.912L140.581 150.629L138.891 149.391ZM138.891 149.391L135.753 150.673L137.437 151.912L140.581 150.629L138.891 149.391ZM141.023 150.962L137.879 152.239L139.707 153.583L142.856 152.3L141.023 150.962ZM141.023 150.962L137.879 152.239L139.707 153.583L142.856 152.3L141.023 150.962ZM141.023 150.962L137.879 152.239L139.707 153.583L142.856 152.3L141.023 150.962ZM141.023 150.962L137.879 152.239L139.707 153.583L142.856 152.3L141.023 150.962ZM141.023 150.962L137.879 152.239L139.707 153.583L142.856 152.3L141.023 150.962ZM141.023 150.962L137.879 152.239L139.707 153.583L142.856 152.3L141.023 150.962ZM141.023 150.962L137.879 152.239L139.707 153.583L142.856 152.3L141.023 150.962ZM133.979 153.832L135.839 155.159L139.19 153.794L137.362 152.456L133.979 153.832ZM141.023 150.978L137.879 152.256L139.707 153.599L142.856 152.317L141.023 150.978ZM141.023 150.978L137.879 152.256L139.707 153.599L142.856 152.317L141.023 150.978ZM141.023 150.978L137.879 152.256L139.707 153.599L142.856 152.317L141.023 150.978ZM141.023 150.978L137.879 152.256L139.707 153.599L142.856 152.317L141.023 150.978ZM141.023 150.978L137.879 152.256L139.707 153.599L142.856 152.317L141.023 150.978ZM141.023 150.978L137.879 152.256L139.707 153.599L142.856 152.317L141.023 150.978ZM143.303 152.644L140.16 153.927L142.253 155.459L145.397 154.177L143.303 152.644ZM143.836 152.433L145.935 153.971L146.084 153.905L146.671 151.284L143.836 152.433ZM143.388 152.105L142.856 152.317L143.303 152.644L143.836 152.433L143.388 152.105ZM143.324 152.661L140.181 153.943L142.275 155.476L145.419 154.193L143.324 152.661ZM143.324 152.661L140.181 153.943L142.275 155.476L145.419 154.193L143.324 152.661ZM143.324 152.661L140.181 153.943L142.275 155.476L145.419 154.193L143.324 152.661ZM146.394 150.895L146.713 151.129L146.804 150.734L146.394 150.895ZM143.388 152.123L142.856 152.333L143.303 152.661L143.836 152.45L143.388 152.123ZM144.566 149.558L141.555 150.768L143.383 152.105L146.388 150.879L144.566 149.558ZM143.388 152.123L142.856 152.333L143.303 152.661L143.836 152.45L143.388 152.123ZM143.324 152.677L140.181 153.96L142.275 155.492L145.419 154.21L143.324 152.677ZM143.388 152.123L142.856 152.333L143.303 152.661L143.836 152.45L143.388 152.123ZM143.324 152.677L140.181 153.96L142.275 155.492L145.419 154.21L143.324 152.677ZM143.324 152.677L140.181 153.96L142.275 155.492L145.419 154.21L143.324 152.677ZM143.858 152.467L145.957 154.005L145.424 154.21L145.877 154.538L142.728 155.825L142.28 155.492L141.748 155.704L142.2 156.031L138.891 157.341L140.49 158.495L143.756 157.163L144.214 157.496L140.969 158.829L143.101 160.356L144.395 161.277L144.748 159.684L145.094 158.146L145.206 157.652L145.339 157.041L145.466 156.486L145.893 154.577V154.487L145.988 154.077L146.02 153.921L146.606 151.301L143.858 152.467ZM143.324 152.677L140.181 153.96L142.275 155.492L145.419 154.21L143.324 152.677ZM143.388 152.123L142.856 152.333L143.303 152.661L143.836 152.45L143.388 152.123ZM143.324 152.677L140.181 153.96L142.275 155.492L145.419 154.21L143.324 152.677ZM143.388 152.123L142.856 152.333L143.303 152.661L143.836 152.45L143.388 152.123ZM143.324 152.677L140.181 153.96L142.275 155.492L145.419 154.21L143.324 152.677ZM143.388 152.123L142.856 152.333L143.303 152.661L143.836 152.45L143.388 152.123ZM143.324 152.677L140.181 153.96L142.275 155.492L145.419 154.21L143.324 152.677ZM143.388 152.123L142.856 152.333L143.303 152.661L143.836 152.45L143.388 152.123ZM145.077 149.347L146.82 150.623L147.31 148.436L145.077 149.347ZM142.413 147.986L139.403 149.214L138.955 148.88L141.961 147.659L142.413 147.986L142.946 147.776L142.493 147.448L145.69 146.154L144.092 144.972L140.922 146.277L140.389 146.482L137.357 147.725L136.824 147.936L133.691 149.224L133.158 149.435L129.706 150.851L131.304 151.989L134.73 150.59L135.183 150.923L131.762 152.317L133.478 153.538L136.872 152.161L137.32 152.489L137.852 152.277L137.405 151.95L140.548 150.668L140.996 151.001L141.529 150.79L141.076 150.457L144.081 149.23L142.413 147.986ZM135.753 150.701L135.295 150.374L138.444 149.091L138.891 149.419L135.753 150.701ZM146.17 145.943L145.637 146.154L146.09 146.482L146.623 146.271L146.17 145.943ZM146.618 146.271L147.619 147.004L147.89 145.755L146.618 146.271ZM144.555 144.761L146.154 145.943L148.003 145.188L148.461 143.15L144.555 144.761ZM143.373 152.117L142.839 152.328L143.287 152.655L143.82 152.444L143.373 152.117ZM144.097 149.219L142.413 147.986L139.403 149.214L138.871 149.419L140.559 150.657L141.006 150.99L141.54 150.779L141.087 150.446L144.097 149.219ZM144.55 149.552L141.555 150.768L143.383 152.105L146.388 150.879L144.55 149.552ZM147.502 147.504L146.111 146.482L142.915 147.776L144.598 149.014L144.092 149.219L144.54 149.552L145.072 149.347L144.625 149.014L147.432 147.869L147.502 147.504ZM143.373 152.117L146.378 150.89L144.55 149.552L141.555 150.768L143.373 152.117ZM144.097 149.219L142.413 147.986L139.403 149.214L138.871 149.419L140.559 150.657L141.006 150.99L141.54 150.779L141.087 150.446L144.097 149.219ZM143.309 152.655L140.165 153.938L142.259 155.47L145.403 154.187L143.309 152.655ZM143.309 152.655L140.165 153.938L142.259 155.47L145.403 154.187L143.309 152.655ZM141.028 150.99L137.884 152.267L139.712 153.61L142.861 152.328L141.028 150.99ZM139.658 154.143L136.297 155.498L138.428 157.014L141.731 155.67L139.658 154.143ZM139.712 153.588L139.18 153.794L139.638 154.121L140.143 153.915L139.712 153.588ZM143.309 152.633L140.165 153.915L142.259 155.448L145.403 154.166L143.309 152.633ZM143.841 152.423L145.941 153.96L146.09 153.894L146.676 151.273L143.841 152.423ZM143.394 152.095L142.861 152.305L143.309 152.633L143.841 152.423L143.394 152.095ZM138.891 149.391L135.753 150.673L137.437 151.912L140.581 150.629L138.891 149.391ZM138.891 149.391L135.753 150.673L137.437 151.912L140.581 150.629L138.891 149.391ZM138.891 149.391L135.753 150.673L137.437 151.912L140.581 150.629L138.891 149.391Z" fill="#2E3038"/>
<path id="Vector_61" d="M143.563 165.679L150.741 132.991C151.013 131.759 151.839 130.732 152.957 130.243L191.512 113.305C192.04 113.077 192.642 113.332 192.866 113.882C192.957 114.11 192.972 114.365 192.903 114.604L183.648 147.137L143.563 165.679Z" fill="#184AFB" stroke="#2E3038" stroke-width="0.495524" stroke-miterlimit="10"/>
<path id="Vector_62" d="M172.522 135.556C173.625 136.217 173.86 137.943 173.056 139.409C172.25 140.875 170.689 141.524 169.586 140.863C168.483 140.203 168.25 138.477 169.054 137.011C169.858 135.545 171.419 134.89 172.522 135.556Z" fill="#2E3038"/>
</g>
<defs>
<clipPath id="clip0_12_4249">
<rect width="200" height="200" fill="white"/>
</clipPath>
</defs>
</svg>
