<svg width="214" height="200" viewBox="0 0 214 200" fill="none" xmlns="http://www.w3.org/2000/svg">
<g id="edu9 1" clip-path="url(#clip0_12_3849)">
<g id="Group" opacity="0.08">
<path id="Vector" opacity="0.08" d="M2.03184 118.512C2.03184 118.512 8.85192 155.144 43.4432 174.995C78.0286 194.845 121.024 190.11 155.971 187.186C190.919 184.262 214.5 160.706 213.992 130.598C213.483 100.49 185.73 95.8478 166.251 64.4411C146.773 33.0399 146.364 21.804 112.86 5.7627C79.3552 -10.2728 33.8355 9.62453 14.357 48.79C-5.1155 87.9556 2.03184 118.512 2.03184 118.512Z" fill="#184AFB"/>
<path id="Vector_2" opacity="0.7" d="M2.03184 118.512C2.03184 118.512 8.85192 155.144 43.4432 174.995C78.0286 194.845 121.024 190.11 155.971 187.186C190.919 184.262 214.5 160.706 213.992 130.598C213.483 100.49 185.73 95.8478 166.251 64.4411C146.773 33.0399 146.364 21.804 112.86 5.7627C79.3552 -10.2728 33.8355 9.62453 14.357 48.79C-5.1155 87.9556 2.03184 118.512 2.03184 118.512Z" fill="#184AFB"/>
</g>
<g id="Clip path group">
<mask id="mask0_12_3849" style="mask-type:luminance" maskUnits="userSpaceOnUse" x="6" y="0" width="193" height="200">
<g id="clip0">
<path id="Vector_3" d="M198.233 0.194458H6.36621V199.805H198.233V0.194458Z" fill="white"/>
</g>
</mask>
<g mask="url(#mask0_12_3849)">
<g id="Group_2">
<path id="Vector_4" d="M85.5213 73.5494L65.5859 148.605L88.1373 135.178L100.992 154.066L99.3675 75.1159L85.5213 73.5494Z" fill="#184AFB"/>
<path id="Vector_5" d="M88.9942 131.151L70.4121 142.25L87.7767 76.8167L96.4363 77.8013L97.7895 143.951L88.9942 131.151Z" fill="white"/>
<path id="Vector_6" d="M113.079 74.0867L144.876 145.069L123.858 134.507L110.778 156.035L99.6377 77.8909L113.079 74.0867Z" fill="#184AFB"/>
<path id="Vector_7" d="M103.021 80.0391L111.365 77.7118L138.652 138.58L122.731 130.568L112.583 147.262L103.021 80.0391Z" fill="white"/>
<path id="Vector_8" d="M142.08 54.5282C142.08 58.4667 135.179 61.2864 134.007 64.8668C132.788 68.5368 136.667 74.8473 134.412 77.9355C132.157 81.0236 124.895 79.3229 121.738 81.5607C118.581 83.7985 118.085 91.1833 114.342 92.3912C110.733 93.5549 105.907 87.916 101.939 87.916C97.9694 87.916 93.1433 93.5107 89.5354 92.3912C85.8366 91.1833 85.2503 83.7985 82.1382 81.5607C79.0261 79.3229 71.7646 81.0236 69.4644 77.9355C67.1641 74.8473 71.088 68.5815 69.8703 64.8668C68.6976 61.2864 61.7969 58.5115 61.7969 54.5282C61.7969 50.5449 68.6976 47.7701 69.8703 44.1896C71.088 40.5196 67.2092 34.209 69.4644 31.1209C71.7195 28.0327 78.981 29.7334 82.1382 27.4956C85.2954 25.2579 85.7915 17.8732 89.5354 16.6648C93.1433 15.5011 97.9241 21.0956 101.939 21.0956C105.952 21.0956 110.733 15.5011 114.342 16.6648C118.04 17.8732 118.626 25.2579 121.738 27.4956C124.851 29.7334 132.112 28.0327 134.412 31.1209C136.712 34.209 132.788 40.5196 134.007 44.1896C135.179 47.7701 142.08 50.5896 142.08 54.5282Z" fill="#184AFB"/>
<path id="Vector_9" opacity="0.6" d="M137.704 54.5281C137.704 58.0638 131.526 60.5701 130.488 63.7478C129.406 67.0598 132.879 72.6542 130.849 75.3843C128.819 78.1145 122.37 76.5927 119.574 78.6068C116.776 80.6207 116.325 87.1999 112.988 88.274C109.786 89.3036 105.501 84.2907 101.938 84.2907C98.3751 84.2907 94.0898 89.2584 90.9331 88.2292C87.5954 87.1551 87.0993 80.576 84.348 78.562C81.5967 76.548 75.102 78.0697 73.0723 75.3396C71.0427 72.6095 74.5156 67.015 73.4332 63.703C72.3958 60.5254 66.2168 58.0191 66.2168 54.4834C66.2168 50.9476 72.3507 48.4414 73.4332 45.2637C74.5156 41.9965 71.0427 36.3573 73.0723 33.6271C75.0569 30.897 81.5516 32.4187 84.348 30.4047C87.1444 28.3907 87.5954 21.8116 90.9331 20.7375C94.1351 19.7081 98.4204 24.7207 101.983 24.7207C105.546 24.7207 109.831 19.7081 113.034 20.7375C116.371 21.8116 116.867 28.3907 119.618 30.4047C122.37 32.4187 128.864 30.8522 130.894 33.6271C132.923 36.402 129.45 41.9965 130.533 45.2637C131.571 48.486 137.704 50.9924 137.704 54.5281Z" fill="white"/>
<path id="Vector_10" d="M101.984 84.067C118.424 84.067 131.751 70.8419 131.751 54.5281C131.751 38.2142 118.424 24.9893 101.984 24.9893C85.5433 24.9893 72.2158 38.2142 72.2158 54.5281C72.2158 70.8419 85.5433 84.067 101.984 84.067Z" fill="white"/>
<path id="Vector_11" d="M88.7959 44.0309L98.695 36.2832H107.76V64.9529V71.6814H97.1772L97.1837 64.9529V46.1567L92.7863 49.4539L88.7959 44.0309Z" fill="#184AFB"/>
<path id="Vector_12" d="M188.355 86.5286C187.678 83.4403 187.318 83.6194 183.574 82.411C179.425 81.1131 175.14 80.397 170.81 80.2627C168.014 80.1732 165.217 80.4865 162.557 81.2026C162.557 81.2026 157.82 81.7844 154.438 82.5453C151.506 88.3188 154.799 96.2408 154.799 96.2408C154.799 96.2408 158.948 105.236 158.948 109.846C158.948 114.456 155.385 122.512 155.25 122.736C155.115 122.959 144.335 141.534 141.584 147.844C138.832 154.155 138.788 156.705 140.276 159.212C141.764 161.719 158.588 184.678 158.588 184.678C158.588 184.678 154.077 189.825 152.002 191.123C149.927 192.42 147.357 192.644 148.259 193.764C149.161 194.882 155.115 195.285 156.738 194.928C158.362 194.569 162.06 191.347 164.18 189.87C166.3 188.393 168.24 187.364 167.427 185.528C166.616 183.694 164.857 182.082 164.09 180.605C163.323 179.128 160.707 174.876 159.219 169.64C157.731 164.404 156.648 161.226 154.934 158.362C153.22 155.497 152.048 154.423 152.048 154.423C152.048 154.423 158.407 148.65 161.79 145.696C165.173 142.742 168.194 140.37 168.194 140.37C168.194 140.37 179.695 128.643 180.733 126.093C181.77 123.542 184.567 115.486 186.641 108.458C188.716 101.432 189.031 89.6169 188.355 86.5286Z" fill="#184AFB" stroke="#2E3038" stroke-width="0.9672" stroke-linecap="round" stroke-linejoin="round"/>
<path id="Vector_13" d="M154.798 96.2408C154.798 96.2408 151.505 88.3188 154.437 82.5453C153.626 82.7243 152.859 82.9481 152.092 83.1719C149.295 84.2013 135.629 89.885 134.231 90.5116C132.833 91.1381 130.263 93.2417 130.894 95.4346C131.525 97.6284 132.608 98.2992 137.298 98.3443C141.989 98.3886 154.798 96.2408 154.798 96.2408Z" fill="#2E3038" stroke="#2E3038" stroke-width="0.9672" stroke-linecap="round" stroke-linejoin="round"/>
<path id="Vector_14" d="M144.741 56.2736C144.741 56.2736 148.935 58.3771 149.161 58.7798C149.386 59.1827 149.07 59.9436 148.8 60.5253C148.529 61.1072 146.905 62.4946 146.139 62.8079C145.372 63.1212 146.004 60.9282 146.004 59.675C146.004 58.4219 143.838 57.3925 143.658 56.8106C143.478 56.2288 144.2 56.0497 144.741 56.2736Z" fill="white" stroke="#2E3038" stroke-width="0.9672" stroke-linecap="round" stroke-linejoin="round"/>
<path id="Vector_15" d="M136.713 97.8514L135.089 98.2992C133.465 98.747 130.669 98.9709 130.218 98.3886C129.767 97.8072 128.233 90.0638 128.459 85.7229C128.685 81.3815 135.179 62.9422 135.901 61.5547C136.623 60.1673 142.982 55.6469 142.982 55.6469C142.982 55.6469 143.794 55.4231 144.741 56.3183C145.688 57.2134 148.439 59.0484 148.304 59.7645C148.169 60.4806 146.59 62.7184 145.959 63.3001C145.328 63.882 144.245 63.3001 144.245 63.3001C144.245 63.3001 143.433 64.6876 142.396 65.1352C141.359 65.5827 138.923 65.0456 138.923 65.0456C138.923 65.0456 136.938 77.3535 137.524 82.0529C138.111 86.7522 139.283 92.2125 138.426 94.8532" fill="#2E3038"/>
<path id="Vector_16" d="M136.713 97.8514L135.089 98.2992C133.465 98.747 130.669 98.9709 130.218 98.3886C129.767 97.8072 128.233 90.0638 128.459 85.7229C128.685 81.3815 135.179 62.9422 135.901 61.5547C136.623 60.1673 142.982 55.6469 142.982 55.6469C142.982 55.6469 143.794 55.4231 144.741 56.3183C145.688 57.2134 148.439 59.0484 148.304 59.7645C148.169 60.4806 146.59 62.7184 145.959 63.3001C145.328 63.882 144.245 63.3001 144.245 63.3001C144.245 63.3001 143.433 64.6876 142.396 65.1352C141.359 65.5827 138.923 65.0456 138.923 65.0456C138.923 65.0456 136.938 77.3535 137.524 82.0529C138.111 86.7522 139.283 92.2125 138.426 94.8532" stroke="#2E3038" stroke-width="0.9672" stroke-linecap="round" stroke-linejoin="round"/>
<path id="Vector_17" d="M142.395 65.0457C143.432 64.5982 144.244 63.2107 144.244 63.2107C144.244 63.2107 145.282 63.7925 145.958 63.2107C146.634 62.6289 148.168 60.4359 148.304 59.675C148.439 58.9142 145.733 57.1239 144.74 56.2288C143.748 55.3337 142.981 55.5575 142.981 55.5575C142.981 55.5575 136.622 60.0778 135.9 61.4652C135.72 61.8233 135.224 63.166 134.502 65.0457C135.72 65.896 137.163 66.4331 138.651 66.6122C138.786 65.538 138.922 64.9114 138.922 64.9114C138.922 64.9114 141.358 65.4933 142.395 65.0457Z" fill="white" stroke="#2E3038" stroke-width="0.9672" stroke-linecap="round" stroke-linejoin="round"/>
<path id="Vector_18" d="M148.935 60.391C148.935 60.391 149.972 60.6596 149.657 61.4204C149.341 62.1813 148.258 62.9422 147.582 62.8974C146.905 62.8526 146.77 61.9575 147.221 61.1967C147.672 60.4358 148.574 60.0778 148.935 60.391Z" fill="white" stroke="#2E3038" stroke-width="0.9672" stroke-linecap="round" stroke-linejoin="round"/>
<path id="Vector_19" d="M144.245 63.2554C144.245 63.2554 143.658 62.584 144.019 62.0917C144.379 61.5994 145.147 61.9575 145.147 61.9575L144.019 60.5701" stroke="#2E3038" stroke-width="0.9672" stroke-linecap="round" stroke-linejoin="round"/>
<path id="Vector_20" d="M152.994 116.694C155.31 116.694 157.188 114.83 157.188 112.532C157.188 110.233 155.31 108.369 152.994 108.369C150.678 108.369 148.8 110.233 148.8 112.532C148.8 114.83 150.678 116.694 152.994 116.694Z" fill="white" stroke="#2E3038" stroke-width="0.9672" stroke-linecap="round" stroke-linejoin="round"/>
<path id="Vector_21" d="M151.912 108.458C152.813 106.087 154.708 104.251 157.099 103.401C161.248 101.88 167.968 100.268 171.847 95.2106C175.726 90.1531 174.328 80.4415 174.328 80.4415L177.35 80.8444C177.35 80.8444 176.944 90.5567 175.005 95.7036C173.065 100.85 167.157 103.759 162.42 104.565C157.685 105.371 153.851 105.281 151.912 108.458Z" fill="white" stroke="#2E3038" stroke-width="0.9672" stroke-linecap="round" stroke-linejoin="round"/>
<path id="Vector_22" d="M151.912 108.459C151.912 108.459 151.416 105.147 154.438 101.701C157.459 98.255 162.285 94.4505 163.097 90.9143C163.91 87.379 163.007 81.2474 163.007 81.2474L165.623 80.5312C166.344 83.7537 166.344 87.0657 165.713 90.2877C164.585 95.2559 161.834 97.6727 158.407 100.268C154.978 102.865 151.912 108.459 151.912 108.459Z" fill="white" stroke="#2E3038" stroke-width="0.9672" stroke-linecap="round" stroke-linejoin="round"/>
<path id="Vector_23" d="M185.333 83.8879C183.574 85.3201 182.491 87.4236 182.311 89.6611C181.995 93.4656 182.671 103.491 182.671 107.474C182.671 111.458 179.74 117.366 180.146 120.453C180.552 123.542 184.656 127.166 186.866 124.795C189.076 122.423 190.79 114.635 191.602 104.565C192.414 94.4948 191.737 87.7817 190.475 85.7676C189.211 83.7536 187.182 82.3662 185.333 83.8879Z" fill="#2E3038" stroke="#2E3038" stroke-width="0.9672" stroke-linecap="round" stroke-linejoin="round"/>
<path id="Vector_24" d="M187.769 121.751C187.318 124.258 185.919 126.674 184.431 127.166C182.943 127.659 181.274 125.645 178.884 121.841C176.493 118.036 175.275 113.874 174.373 109.489C173.561 105.46 172.975 101.432 172.614 97.3594C172.524 95.6585 172.614 95.2116 173.561 94.2266C174.509 93.2417 177.982 92.3912 177.982 92.3912L178.568 91.362C178.839 90.87 180.417 90.5567 181.138 91.0045C181.86 91.4514 182.266 93.8682 182.266 93.8682C182.266 93.8682 184.341 95.032 184.341 96.1957C184.341 97.3594 182.988 98.6125 181.545 100.582C180.101 102.551 179.65 101.835 179.47 103.67C179.29 105.505 180.372 107.922 182.176 109.578C183.98 111.234 186.686 113.292 187.408 116.605" fill="#2E3038"/>
<path id="Vector_25" d="M187.769 121.751C187.318 124.258 185.919 126.674 184.431 127.166C182.943 127.659 181.274 125.645 178.884 121.841C176.493 118.036 175.275 113.874 174.373 109.489C173.561 105.46 172.975 101.432 172.614 97.3594C172.524 95.6585 172.614 95.2116 173.561 94.2266C174.509 93.2417 177.982 92.3912 177.982 92.3912L178.568 91.362C178.839 90.87 180.417 90.5567 181.138 91.0045C181.86 91.4514 182.266 93.8682 182.266 93.8682C182.266 93.8682 184.341 95.032 184.341 96.1957C184.341 97.3594 182.988 98.6125 181.545 100.582C180.101 102.551 179.65 101.835 179.47 103.67C179.29 105.505 180.372 107.922 182.176 109.578C183.98 111.234 186.686 113.292 187.408 116.605" stroke="#2E3038" stroke-width="0.9672" stroke-linecap="round" stroke-linejoin="round"/>
<path id="Vector_26" d="M179.515 103.983C179.515 103.849 179.515 103.714 179.515 103.581C179.65 101.745 180.101 102.461 181.589 100.492C183.078 98.5231 184.386 97.27 184.386 96.1063C184.386 94.9426 182.311 93.7789 182.311 93.7789C182.311 93.7789 181.951 91.3621 181.183 90.9143C180.417 90.4674 178.884 90.7807 178.613 91.2727L178.027 92.3019C178.027 92.3019 174.554 93.1072 173.606 94.1373C172.659 95.1665 172.569 95.6143 172.659 97.27C172.704 98.3444 173.065 101.297 173.561 104.431C175.5 104.834 177.576 104.655 179.515 103.983Z" fill="white" stroke="#2E3038" stroke-width="0.9672" stroke-linecap="round" stroke-linejoin="round"/>
<path id="Vector_27" d="M180.868 125.913C171.983 122.959 160.978 121.573 156.017 121.035C155.61 122.065 155.295 122.691 155.25 122.781C155.115 123.004 144.335 141.578 141.584 147.888C138.832 154.199 138.788 156.75 140.276 159.257C141.764 161.763 158.588 184.723 158.588 184.723C161.293 184.41 163.729 182.574 164.766 181.68C164.54 181.366 164.316 181.008 164.135 180.695C163.414 179.218 160.752 174.966 159.264 169.729C157.776 164.493 156.693 161.315 154.979 158.451C153.265 155.587 152.093 154.512 152.093 154.512C152.093 154.512 158.452 148.739 161.835 145.785C165.217 142.831 168.24 140.459 168.24 140.459C168.24 140.459 179.741 128.734 180.778 126.182C180.778 126.048 180.823 125.958 180.868 125.913Z" fill="#2E3038" stroke="#2E3038" stroke-width="0.9672" stroke-linecap="round" stroke-linejoin="round"/>
<path id="Vector_28" d="M164.722 181.68C163.865 183.29 160.347 186.334 160.347 186.334C160.347 186.334 159.445 185.394 158.948 184.723C158.542 184.23 158.407 184.365 158.362 184.454L158.588 184.723C158.588 184.723 154.078 189.87 152.002 191.167C149.928 192.466 147.357 192.689 148.259 193.808C149.161 194.927 155.115 195.33 156.738 194.972C158.362 194.614 162.06 191.391 164.18 189.914C166.301 188.437 168.24 187.408 167.427 185.573C166.752 184.141 165.579 182.888 164.722 181.68Z" fill="#184AFB" stroke="#2E3038" stroke-width="0.9672" stroke-linecap="round" stroke-linejoin="round"/>
<path id="Vector_29" d="M155.52 194.077C153.987 194.48 149.882 193.629 148.078 193.182C147.988 193.405 148.033 193.629 148.214 193.764C149.115 194.882 155.069 195.285 156.693 194.928C158.316 194.569 162.015 191.347 164.135 189.87C166.255 188.393 168.194 187.364 167.382 185.528C167.292 185.305 167.157 185.126 167.066 184.902C166.661 185.394 166.209 185.976 165.758 186.558C164.45 188.213 157.505 193.54 155.52 194.077Z" fill="white" stroke="#2E3038" stroke-width="0.9672" stroke-linecap="round" stroke-linejoin="round"/>
<path id="Vector_30" d="M176.358 129.583C176.358 129.583 169.908 123.855 163.684 121.841C157.46 119.827 145.733 120.364 142.801 121.573C139.87 122.781 141.087 126.496 141.178 130.792C141.268 135.089 144.2 143.1 145.463 147.62C146.725 152.141 147.176 157.197 147.312 158.988C147.447 160.778 147.447 161.404 147.447 161.404C147.447 161.404 139.239 161.315 137.118 161.136C134.999 160.958 133.736 161.584 133.375 162.3C133.15 162.658 133.059 163.105 133.15 163.553C133.15 163.553 138.697 167.134 143.478 169.103C148.259 171.072 152.859 172.326 153.446 172.012C154.032 171.699 154.618 167.268 154.618 164.18C154.618 161.091 155.566 146.322 155.566 143.681V136.879C155.566 136.879 169.863 144.443 175.546 142.652C181.229 140.862 180.868 125.958 180.868 125.958L176.268 124.526" fill="#2E3038"/>
<path id="Vector_31" d="M176.358 129.583C176.358 129.583 169.908 123.855 163.684 121.841C157.46 119.827 145.733 120.364 142.801 121.573C139.87 122.781 141.087 126.496 141.178 130.792C141.268 135.089 144.2 143.1 145.463 147.62C146.725 152.141 147.176 157.197 147.312 158.988C147.447 160.778 147.447 161.404 147.447 161.404C147.447 161.404 139.239 161.315 137.118 161.136C134.999 160.958 133.736 161.584 133.375 162.3C133.15 162.658 133.059 163.105 133.15 163.553C133.15 163.553 138.697 167.134 143.478 169.103C148.259 171.072 152.859 172.326 153.446 172.012C154.032 171.699 154.618 167.268 154.618 164.18C154.618 161.091 155.566 146.322 155.566 143.681V136.879C155.566 136.879 169.863 144.443 175.546 142.652C181.229 140.862 180.868 125.958 180.868 125.958L176.268 124.526" stroke="#2E3038" stroke-width="0.9672" stroke-linecap="round" stroke-linejoin="round"/>
<path id="Vector_32" d="M147.401 161.36C147.401 161.36 139.193 161.271 137.073 161.092C134.953 160.912 133.69 161.539 133.33 162.256C133.104 162.613 133.013 163.061 133.104 163.509C133.104 163.509 138.651 167.089 143.432 169.059C148.214 171.028 152.813 172.281 153.4 171.967C153.896 171.699 154.437 168.208 154.572 165.299C151.505 162.703 147.401 161.36 147.401 161.36Z" fill="#184AFB" stroke="#2E3038" stroke-width="0.9672" stroke-linecap="round" stroke-linejoin="round"/>
<path id="Vector_33" d="M153.401 171.967C153.627 171.878 153.852 171.073 154.078 170.042C151.506 169.864 148.981 169.282 146.545 168.387C142.396 166.82 135.585 163.553 133.24 162.389C133.105 162.703 133.014 163.105 133.105 163.464C133.105 163.464 138.652 167.044 143.433 169.013C148.214 170.982 152.814 172.236 153.401 171.967Z" fill="white" stroke="#2E3038" stroke-width="0.9672" stroke-linecap="round" stroke-linejoin="round"/>
<path id="Vector_34" d="M155.52 136.834C155.52 136.834 155.43 130.479 152.183 127.301" stroke="#2E3038" stroke-width="0.9672" stroke-linecap="round" stroke-linejoin="round"/>
<path id="Vector_35" d="M150.514 73.2808C150.514 73.2808 152.273 79.0095 153.039 81.0235C153.806 83.0376 153.896 84.1564 156.332 86.4838C158.767 88.8107 159.264 90.6009 161.834 90.8248C164.405 91.0487 165.353 89.4824 165.353 89.4824C165.353 89.4824 165.713 91.7647 167.021 92.4815C168.329 93.1974 171.305 93.331 173.155 89.7505C175.004 86.1705 173.877 84.4697 173.245 82.769C172.613 81.0683 171.757 79.0095 171.757 79.0095C172.659 77.7563 173.155 76.2347 173.11 74.6682C172.975 72.2514 172.253 71.9381 171.487 71.7143C170.719 71.4906 168.555 72.878 167.607 72.4752C166.661 72.0724 168.238 69.7003 165.758 69.4765C163.277 69.2528 160.752 72.6094 156.332 72.9675C151.911 73.3255 150.333 71.9829 150.514 73.2808Z" fill="white" stroke="#2E3038" stroke-width="0.9672" stroke-linecap="round" stroke-linejoin="round"/>
<path id="Vector_36" d="M165.308 89.4824L169.322 85.0067C171.081 83.0374 171.081 80.1283 171.081 80.1283" fill="white"/>
<path id="Vector_37" d="M165.308 89.4824L169.322 85.0067C171.081 83.0374 171.081 80.1283 171.081 80.1283" stroke="#2E3038" stroke-width="0.9672" stroke-linecap="round" stroke-linejoin="round"/>
<path id="Vector_38" d="M157.46 80.1283C157.46 80.1283 157.956 82.3661 157.46 83.485C156.964 84.6039 157.37 85.1857 158.227 85.2305C158.633 85.32 159.039 85.2305 159.399 85.0962" stroke="#2E3038" stroke-width="0.9672" stroke-linecap="round" stroke-linejoin="round"/>
<path id="Vector_39" d="M160.03 80.3523C160.03 80.3523 160.527 78.8753 162.826 79.3228" stroke="#2E3038" stroke-width="1.9344" stroke-linecap="round" stroke-linejoin="round"/>
<path id="Vector_40" d="M154.212 80.7551C154.212 80.7551 155.565 79.9942 156.512 81.0236" stroke="#2E3038" stroke-width="1.9344" stroke-linecap="round" stroke-linejoin="round"/>
<path id="Vector_41" d="M152.994 78.5173C152.994 78.5173 154.618 76.9062 156.512 79.4125" stroke="#2E3038" stroke-width="0.9672" stroke-linecap="round" stroke-linejoin="round"/>
<path id="Vector_42" d="M158.768 78.7409C158.768 78.7409 159.535 76.1451 161.925 76.5031" stroke="#2E3038" stroke-width="0.9672" stroke-linecap="round" stroke-linejoin="round"/>
<path id="Vector_43" d="M160.978 85.7677C160.978 85.7677 164.631 85.0516 165.353 80.7998C165.353 80.7998 167.157 83.6641 165.894 85.9915C164.631 88.3188 162.962 87.9608 162.962 87.9608L160.978 85.7677Z" stroke="#2E3038" stroke-width="0.9672" stroke-linecap="round" stroke-linejoin="round"/>
<path id="Vector_44" d="M152.859 65.2247C152.859 65.2247 154.708 62.7184 152.634 63.0764C150.559 63.4345 147.222 67.3282 147.628 71.043C148.033 74.7577 155.566 75.5634 159.219 75.0263C161.429 74.6682 163.458 73.6835 165.037 72.1618C165.037 72.1618 163.684 75.0263 165.128 75.3843C166.571 75.7424 167.247 75.3843 167.247 75.3843C167.247 75.3843 168.6 78.3829 169.006 77.4878C169.412 76.5927 168.916 75.8766 169.141 74.713C169.683 71.9828 171.757 72.0724 171.757 72.0724C171.757 72.0724 172.119 65.3142 169.592 62.6736C167.067 60.0331 160.437 59.7197 157.686 61.1519C154.934 62.5841 152.859 65.2247 152.859 65.2247Z" fill="#2E3038" stroke="#2E3038" stroke-width="0.9672" stroke-linecap="round" stroke-linejoin="round"/>
<path id="Vector_45" d="M18.6339 182.037C18.6339 182.037 13.1313 184.857 10.9214 187.408C8.7113 189.959 11.1919 191.705 15.7022 190.228C20.2125 188.751 21.8362 182.485 21.8362 182.485C21.8362 182.485 20.3026 181.232 18.6339 182.037Z" fill="#184AFB" stroke="#2E3038" stroke-width="0.9672" stroke-linecap="round" stroke-linejoin="round"/>
<path id="Vector_46" d="M77.087 182.037C77.087 182.037 82.5896 184.857 84.7997 187.408C87.0096 189.959 84.529 191.705 80.0188 190.228C75.5085 188.751 73.8848 182.485 73.8848 182.485C73.8848 182.485 75.4634 181.232 77.087 182.037Z" fill="#184AFB" stroke="#2E3038" stroke-width="0.9672" stroke-linecap="round" stroke-linejoin="round"/>
<path id="Vector_47" d="M42.4033 66.6122L42.3131 71.4906C40.2835 70.9983 38.2538 70.4164 36.2693 69.7451C33.0219 68.5815 32.2101 69.6109 30.2707 71.2221C28.3313 72.8332 19.2657 83.2166 18.3185 84.1117C17.3714 85.0069 14.3945 89.4824 14.3945 91.8098C14.3945 94.1372 16.2437 95.7036 19.8971 93.7788C23.5504 91.8549 30.2707 86.5733 30.2707 86.5733C30.2707 86.5733 33.7436 96.8222 33.7887 98.5682C33.8338 100.313 31.3983 104.162 30.1353 107.653C28.8725 111.144 28.241 120.946 27.3842 124.303C26.5272 127.659 24.272 131.195 22.513 140.146C20.7541 149.097 20.6187 155.989 20.2128 157.735C19.8069 159.481 19.2657 166.149 18.6342 171.43C18.0028 176.712 17.5968 182.485 18.2733 183.112C18.9499 183.738 20.9344 184.141 21.8816 183.112C22.8288 182.082 29.955 164.18 31.3983 160.062C32.8415 155.945 42.4935 137.327 43.3054 135.223C44.1172 133.12 45.6056 130.255 45.6056 130.255C45.6056 130.255 50.612 139.564 52.3259 144.219C54.0398 148.874 63.3309 166.82 65.9018 171.52C68.4727 176.22 72.7123 182.485 73.8398 183.112C74.9675 183.738 76.8618 183.335 77.0422 182.127C77.2225 180.919 75.3282 162.256 73.8849 158.765C72.4416 155.274 71.4945 153.304 71.0886 150.753C70.6827 148.202 66.7587 127.212 64.9095 123.363C63.0604 119.513 62.7897 118.797 62.7446 118.574C62.6995 118.35 61.3915 113.874 59.4972 109.265C57.6029 104.655 55.4831 100.581 55.4831 100.581L58.956 91.1381C58.956 91.1381 64.0526 101.612 66.4431 103.804C68.8335 106.042 76.546 115.62 76.546 115.62L78.9816 113.203L71.0886 99.7762C71.0886 99.7762 69.3747 91.0939 67.3451 85.6334C65.3154 80.1732 63.8271 76.1452 61.1661 74.892C58.505 73.6389 52.822 73.3255 51.7847 72.9228C50.7473 72.52 51.1081 72.1619 51.0179 71.9829C50.9277 71.8039 51.3787 67.2835 51.3787 67.2835C51.3787 67.2835 47.5901 68.5815 45.786 68.0444C44.7035 67.5521 43.5309 67.1045 42.4033 66.6122Z" fill="#2E3038" stroke="#2E3038" stroke-width="0.9672" stroke-linecap="round" stroke-linejoin="round"/>
<path id="Vector_48" d="M55.5278 100.492L59.0008 91.0487C59.0008 91.0487 57.1516 78.2487 53.6786 73.1914C53.0472 73.1466 52.4609 73.0124 51.8746 72.8333C50.8371 72.4305 51.198 72.0725 51.1078 71.8934C51.0176 71.7144 51.4686 67.1941 51.4686 67.1941C51.4686 67.1941 47.68 68.492 45.8759 67.9102C44.7032 67.5521 43.5305 67.1046 42.403 66.5675L42.3127 71.4459C42.3127 71.4459 41.4107 71.2669 40.0126 70.8641C38.5241 72.7438 32.4804 80.6656 30.3154 86.4839C30.3154 86.4839 33.7884 96.7328 33.8335 98.4788C33.8786 99.7319 32.6157 102.104 31.3979 104.655C33.6079 106.132 37.577 107.877 44.0266 107.966C51.7843 108.101 55.9338 106.356 57.783 105.192C56.5652 102.506 55.5278 100.492 55.5278 100.492Z" fill="#184AFB" stroke="#2E3038" stroke-width="0.9672" stroke-linecap="round" stroke-linejoin="round"/>
<path id="Vector_49" d="M50.9277 78.2487C52.2808 76.9508 52.6867 74.9368 52.6867 73.0123C52.4161 72.9676 52.1454 72.9228 51.8749 72.8332C50.8375 72.4305 51.1983 72.0725 51.1081 71.8934C51.0179 71.7144 51.4689 67.194 51.4689 67.194C51.4689 67.194 47.6803 68.4919 45.8762 67.9549C44.7035 67.5969 43.5308 67.1493 42.4033 66.6122L42.3131 71.4906C42.3131 71.4906 42.0424 71.4458 41.5463 71.3116C41.1855 72.7438 40.4639 76.5928 42.8092 78.6963C45.0644 80.6655 48.8529 80.2627 50.9277 78.2487Z" fill="white"/>
<path id="Vector_50" d="M39.8321 70.7745C39.8321 70.7745 39.6517 75.832 38.3437 78.6068C37.0357 81.3817 35.6826 81.7844 35.6826 81.7844C36.2239 82.1425 36.8102 82.4111 37.3966 82.6796C38.479 83.1272 38.7045 82.9482 38.7045 82.9482C38.7045 82.9482 40.7342 81.6502 41.6813 78.2936C42.2677 76.0557 42.4931 73.7732 42.3578 71.4906L39.8321 70.7745Z" fill="white" stroke="#2E3038" stroke-width="0.9672" stroke-linecap="round" stroke-linejoin="round"/>
<path id="Vector_51" d="M43.6657 44.9057C43.6657 44.9057 43.5756 42.6231 47.7701 41.5042C51.9647 40.3853 55.618 43.6973 55.9788 45.8903C56.3396 48.0833 55.6179 49.2917 55.1218 49.4707C54.6257 49.6498 52.3706 47.412 49.0781 46.3378C45.7856 45.2637 43.2147 45.9351 43.6657 44.9057Z" fill="#2E3038" stroke="#2E3038" stroke-width="0.9672" stroke-linecap="round" stroke-linejoin="round"/>
<path id="Vector_52" d="M39.381 56.0499C39.381 56.0499 38.8849 54.5282 37.5769 55.4681C36.269 56.408 36.9004 59.2723 37.4867 60.1227C38.073 60.9731 39.2909 60.9731 39.5163 60.3912C39.7419 59.8094 39.787 56.408 39.787 56.408" fill="white"/>
<path id="Vector_53" d="M39.381 56.0499C39.381 56.0499 38.8849 54.5282 37.5769 55.4681C36.269 56.408 36.9004 59.2723 37.4867 60.1227C38.073 60.9731 39.2909 60.9731 39.5163 60.3912C39.7419 59.8094 39.787 56.408 39.787 56.408" stroke="#2E3038" stroke-width="0.9672" stroke-linecap="round" stroke-linejoin="round"/>
<path id="Vector_54" d="M39.2002 48.6651C39.2002 48.6651 37.7569 50.7686 38.4334 52.9168C39.11 55.0652 38.7943 56.5421 38.7943 59.0037C38.7943 61.4652 40.5984 64.7772 41.771 66.7912C42.9437 68.8052 45.3342 71.222 47.905 70.4612C50.4759 69.7003 54.2193 64.3744 54.941 61.9128C55.6626 59.4513 55.347 58.8694 55.798 57.84C56.5196 56.0498 56.8804 54.0806 56.8354 52.156C56.8354 49.3812 53.4978 45.6217 49.3934 44.458C45.2891 43.2944 40.7337 44.5028 39.2002 48.6651Z" fill="white" stroke="#2E3038" stroke-width="0.9672" stroke-linecap="round" stroke-linejoin="round"/>
<path id="Vector_55" d="M46.5264 62.9995C46.3807 62.9971 46.2346 62.9748 46.0911 62.9377C45.6899 62.8413 45.2083 62.6756 45.043 62.2355C44.9409 61.8745 45.0235 61.4862 45.2595 61.1994C45.3445 61.0782 45.4393 60.9669 45.5319 60.8581C45.6509 60.7295 45.7606 60.5886 45.8555 60.4402C46.2418 59.8022 46.1324 58.9912 45.9745 58.148C45.9622 58.0812 46.0062 58.0169 46.0716 58.0021C46.1374 57.9897 46.2005 58.0342 46.2128 58.101C46.3734 58.959 46.4951 59.8566 46.0621 60.5738C45.9599 60.7345 45.8433 60.8853 45.7166 61.0263C45.6241 61.1276 45.5369 61.2364 45.4565 61.3477C45.2764 61.5728 45.2083 61.8695 45.2718 62.1514C45.3957 62.4827 45.8042 62.6187 46.147 62.7004C46.3635 62.782 46.6018 62.777 46.8137 62.6855C46.8696 62.6484 46.9449 62.6682 46.9813 62.7251C47.018 62.782 46.9985 62.8586 46.9426 62.8957C46.816 62.9699 46.6726 63.0045 46.5264 62.9995Z" fill="#2E3038"/>
<path id="Vector_56" d="M54.7614 58.5113C54.7614 58.5113 55.4379 56.4526 56.7459 57.0791C58.0538 57.7057 57.5126 60.7939 56.4752 61.7337C55.4379 62.6736 54.3555 62.2261 54.3555 61.6442" fill="white"/>
<path id="Vector_57" d="M54.7614 58.5113C54.7614 58.5113 55.4379 56.4526 56.7459 57.0791C58.0538 57.7057 57.5126 60.7939 56.4752 61.7337C55.4379 62.6736 54.3555 62.2261 54.3555 61.6442" stroke="#2E3038" stroke-width="0.9672" stroke-linecap="round" stroke-linejoin="round"/>
<path id="Vector_58" d="M44.3428 65.2107C44.3428 65.2107 46.4175 67.0009 49.2589 65.1659" stroke="#2E3038" stroke-linecap="round" stroke-linejoin="round"/>
<path id="Vector_59" d="M43.7105 59.1379C44.0593 59.1379 44.342 58.6971 44.342 58.1533C44.342 57.6095 44.0593 57.1687 43.7105 57.1687C43.3618 57.1687 43.0791 57.6095 43.0791 58.1533C43.0791 58.6971 43.3618 59.1379 43.7105 59.1379Z" fill="#2E3038"/>
<path id="Vector_60" d="M49.8453 59.1379C50.1941 59.1379 50.4767 58.6971 50.4767 58.1533C50.4767 57.6095 50.1941 57.1687 49.8453 57.1687C49.4966 57.1687 49.2139 57.6095 49.2139 58.1533C49.2139 58.6971 49.4966 59.1379 49.8453 59.1379Z" fill="#2E3038"/>
<path id="Vector_61" d="M41.9971 55.6919C42.854 54.931 44.0267 54.7072 45.064 55.11" stroke="#2E3038" stroke-linecap="round" stroke-linejoin="round"/>
<path id="Vector_62" d="M48.3115 55.3337C48.3115 55.3337 50.6118 54.3491 51.8747 56.3184" stroke="#2E3038" stroke-linecap="round" stroke-linejoin="round"/>
<path id="Vector_63" d="M49.3942 44.5028C45.2898 43.2944 40.7796 44.5028 39.2461 48.6651C39.2461 48.6651 37.8028 50.7687 38.4793 52.9169C38.7049 53.5883 38.8402 54.3043 38.8852 54.9758L39.0205 55.11C39.5167 54.5281 39.8775 53.812 39.9677 53.0512C40.1482 51.7981 42.9445 48.5757 47.59 48.8889C52.2356 49.2022 54.4006 52.4694 54.8516 54.5729C55.3026 56.6765 54.175 58.1981 55.889 57.8849C56.6106 56.0946 56.9714 54.1253 56.9263 52.2009C56.8361 49.426 53.4985 45.7112 49.3942 44.5028Z" fill="#2E3038" stroke="#2E3038" stroke-width="0.9672" stroke-linecap="round" stroke-linejoin="round"/>
<path id="Vector_64" d="M79.0263 113.113L83.4464 114.009C83.8072 114.098 84.1229 114.277 84.3485 114.545C85.0701 115.486 86.784 117.589 86.9193 118.216C87.0997 119.021 87.0997 119.245 86.8742 119.245C86.5134 119.245 86.1525 119.2 85.7918 119.111C85.431 119.065 84.168 117.231 83.1307 117.142C82.1384 117.007 81.1462 116.739 80.199 116.381C80.199 116.381 82.3639 117.992 82.86 118.395C83.3562 118.797 83.266 119.021 82.9052 119.156C82.5444 119.289 82.0934 119.111 81.5972 118.887C81.1011 118.663 80.9206 118.619 79.297 117.947C77.6733 117.275 76.5908 115.53 76.5908 115.53L79.0263 113.113Z" fill="white" stroke="#2E3038" stroke-width="0.9672" stroke-linecap="round" stroke-linejoin="round"/>
<path id="Vector_65" d="M43.7564 83.9328C44.4781 84.4251 45.3801 84.6041 46.1919 84.4251C47.545 84.067 51.1984 81.4712 53.4534 78.4725C55.7086 75.4739 56.7008 73.8179 56.7008 73.8179L53.0927 72.7438C53.0927 72.7438 51.1984 77.846 48.6726 80.0838C46.1468 82.3216 42.4033 83.3957 42.4033 83.3957L43.7564 83.9328Z" fill="white" stroke="#2E3038" stroke-width="0.9672" stroke-linecap="round" stroke-linejoin="round"/>
<path id="Vector_66" d="M26.9777 59.8541C26.9777 59.8541 43.0343 83.5299 43.7559 83.9328C44.1167 84.1118 44.4776 84.2908 44.8383 84.4698C44.8383 84.4698 41.0497 84.4698 39.9672 83.5747C38.8848 82.6796 30.18 66.657 29.4132 64.9115C28.8269 63.5689 28.1503 62.2709 27.3836 61.0177L26.707 59.7198L26.9777 59.8541Z" fill="white" stroke="#2E3038" stroke-width="0.9672" stroke-linecap="round" stroke-linejoin="round"/>
<path id="Vector_67" d="M26.9785 59.854C26.9785 59.854 33.6537 78.8752 34.1949 80.2179C34.7362 81.5606 36.6305 82.6347 37.6679 82.769L38.7052 82.9032C38.7052 82.9032 33.8793 75.071 31.7594 70.3716C29.6396 65.6722 26.9785 59.854 26.9785 59.854Z" fill="white" stroke="#2E3038" stroke-width="0.9672" stroke-linecap="round" stroke-linejoin="round"/>
<path id="Vector_68" d="M25.174 60.6597C27.4906 60.6597 29.3686 58.7963 29.3686 56.4975C29.3686 54.1987 27.4906 52.3352 25.174 52.3352C22.8575 52.3352 20.9795 54.1987 20.9795 56.4975C20.9795 58.7963 22.8575 60.6597 25.174 60.6597Z" fill="white" stroke="#2E3038" stroke-width="0.9672" stroke-linecap="round" stroke-linejoin="round"/>
<path id="Vector_69" d="M21.2945 92.8842C19.1295 94.0479 14.8448 96.7328 14.033 95.5249C13.2211 94.316 13.3564 87.4238 15.3409 83.3063C17.3255 79.1888 20.8435 71.8488 20.9788 70.5956C21.1141 69.3425 20.7984 60.9731 20.9337 60.6151C21.069 60.257 24.587 58.3773 24.587 58.3773C24.9479 58.2878 25.3537 58.4668 25.5793 58.7801C25.9401 59.3619 27.4736 61.0179 27.4285 61.4654C27.3834 61.913 27.2932 62.2711 27.2932 62.2711C27.2932 62.2711 28.2403 62.8082 27.9697 63.6585C27.699 64.5089 27.3383 67.1494 26.797 67.5074C26.346 67.7313 25.895 67.776 25.3989 67.6865C25.3537 68.3131 25.1733 68.9397 24.8576 69.4767C24.4517 70.1033 24.0458 70.4613 24.0007 70.6404C23.9556 70.8194 22.6927 90.6461 22.0161 91.3178" fill="#2E3038"/>
<path id="Vector_70" d="M21.2945 92.8842C19.1295 94.0479 14.8448 96.7328 14.033 95.5249C13.2211 94.316 13.3564 87.4238 15.3409 83.3063C17.3255 79.1888 20.8435 71.8488 20.9788 70.5956C21.1141 69.3425 20.7984 60.9731 20.9337 60.6151C21.069 60.257 24.587 58.3773 24.587 58.3773C24.9479 58.2878 25.3537 58.4668 25.5793 58.7801C25.9401 59.3619 27.4736 61.0179 27.4285 61.4654C27.3834 61.913 27.2932 62.2711 27.2932 62.2711C27.2932 62.2711 28.2403 62.8082 27.9697 63.6585C27.699 64.5089 27.3383 67.1494 26.797 67.5074C26.346 67.7313 25.895 67.776 25.3989 67.6865C25.3537 68.3131 25.1733 68.9397 24.8576 69.4767C24.4517 70.1033 24.0458 70.4613 24.0007 70.6404C23.9556 70.8194 22.6927 90.6461 22.0161 91.3178" stroke="#2E3038" stroke-width="0.9672" stroke-linecap="round" stroke-linejoin="round"/>
<path id="Vector_71" d="M27.2483 62.2711C27.2483 62.2711 27.2934 61.913 27.3836 61.4654C27.4738 61.0179 25.8952 59.3619 25.5344 58.7801C25.3089 58.4668 24.9481 58.2878 24.5422 58.3773C24.5422 58.3773 21.0242 60.257 20.8888 60.6151C20.7535 60.9731 21.0242 67.7313 20.9791 70.0138C21.836 70.6851 22.9636 70.9536 24.0009 70.6404C24.0009 70.5956 24.0009 70.5956 24.0009 70.5509C24.046 70.3719 24.452 70.0586 24.8579 69.3872C25.1285 68.8502 25.3089 68.2236 25.3991 67.597C25.8502 67.6865 26.3463 67.6418 26.7973 67.418C27.3385 67.0599 27.6994 64.4193 27.9699 63.569C28.2406 62.7186 27.2483 62.2711 27.2483 62.2711Z" fill="white" stroke="#2E3038" stroke-width="0.9672" stroke-linecap="round" stroke-linejoin="round"/>
<path id="Vector_72" d="M27.2481 62.2708L24.3164 61.1072" stroke="#2E3038" stroke-width="0.9672" stroke-linecap="round" stroke-linejoin="round"/>
<path id="Vector_73" d="M23.9561 62.7183C23.9561 62.7183 27.023 63.3896 27.2937 63.8819C27.4741 64.1952 27.5642 64.5532 27.5642 64.9113" stroke="#2E3038" stroke-width="0.9672" stroke-linecap="round" stroke-linejoin="round"/>
<path id="Vector_74" d="M24.1367 64.3743C24.1367 64.3743 26.437 64.8666 26.7978 65.1799C27.1586 65.4932 27.2038 66.6568 27.2038 66.6568" stroke="#2E3038" stroke-width="0.9672" stroke-linecap="round" stroke-linejoin="round"/>
<path id="Vector_75" d="M25.3994 67.6415V66.7464L26.0308 66.7017" stroke="#2E3038" stroke-width="0.9672" stroke-linecap="round" stroke-linejoin="round"/>
</g>
</g>
</g>
</g>
<defs>
<clipPath id="clip0_12_3849">
<rect width="214" height="200" fill="white"/>
</clipPath>
</defs>
</svg>
