<svg width="98" height="98" viewBox="0 0 98 98" fill="none" xmlns="http://www.w3.org/2000/svg">
<g id="Group">
<path id="Vector" d="M49.4619 42.1429L25.4619 28.4286V55.8572L49.4619 69.5714V42.1429Z" fill="#8B1FF8" stroke="#F0F0F0" stroke-miterlimit="10"/>
<path id="Vector_2" d="M49 14.7142L73 28.4285L49 42.1428L25 28.4285L49 14.7142Z" fill="#8B1FF8" stroke="#F0F0F0" stroke-miterlimit="10"/>
<path id="Vector_3" d="M48.9863 42.1429L72.9863 28.4286V55.8572L48.9863 69.5714V42.1429Z" fill="#8B1FF8" stroke="#F0F0F0" stroke-miterlimit="10"/>
<path id="Vector_4" d="M49.4619 69.5713L25.4619 55.8571V83.2856L49.4619 96.9999V69.5713Z" fill="#8B1FF8" stroke="#F0F0F0" stroke-miterlimit="10"/>
<path id="Vector_5" d="M48.9863 69.5715L72.9863 55.8572V83.2857L48.9863 97V69.5715Z" fill="#8B1FF8" stroke="#F0F0F0" stroke-miterlimit="10"/>
<path id="Vector_6" d="M73 1L97 14.7143L73 28.4286L49 14.7143L73 1Z" fill="#8B1FF8" stroke="#F0F0F0" stroke-miterlimit="10"/>
<path id="Vector_7" d="M25.4611 28.4285L1.46094 14.7142V42.1428L25.4611 55.8571V28.4285Z" fill="#8B1FF8" stroke="#F0F0F0" stroke-miterlimit="10"/>
<path id="Vector_8" d="M25 1L49 14.7143L25 28.4286L1 14.7143L25 1Z" fill="#8B1FF8" stroke="#F0F0F0" stroke-miterlimit="10"/>
<path id="Vector_9" d="M72.9863 28.4285L96.9865 14.7142V42.1428L72.9863 55.8571V28.4285Z" fill="#8B1FF8" stroke="#F0F0F0" stroke-miterlimit="10"/>
</g>
</svg>
