<svg width="98" height="98" viewBox="0 0 98 98" fill="none" xmlns="http://www.w3.org/2000/svg">
<g id="Group 1000004481">
<path id="Vector" d="M97.0001 48.9676L84.8931 42.0667L60.7334 55.9227V69.7782L72.7862 76.7333L97.0001 62.8773V48.9676Z" fill="#39CCFB" stroke="#F0F0F0" stroke-miterlimit="10"/>
<path id="Vector_2" d="M72.9726 7.93335L60.7334 14.8044V42.1823L72.9726 49L85.2667 42.1823V14.8044L72.9726 7.93335Z" fill="#39CCFB" stroke="#F0F0F0" stroke-miterlimit="10"/>
<path id="Vector_3" d="M25.5332 7.84787V21.4907L49 35.1333L60.7332 28.3386V14.6957L37.2666 1L25.5332 7.84787Z" fill="#39CCFB" stroke="#F0F0F0" stroke-miterlimit="10"/>
<path id="Vector_4" d="M1 48.9782L13.285 55.9333L37.8 42.0773V28.2214L25.515 21.2666L1 35.1223V48.9782Z" fill="#39CCFB" stroke="#F0F0F0" stroke-miterlimit="10"/>
<path id="Vector_5" d="M24.9725 90.0667L37.2667 83.2043V55.8624L24.9725 49L12.7334 55.8624V83.2043L24.9725 90.0667Z" fill="#39CCFB" stroke="#F0F0F0" stroke-miterlimit="10"/>
<path id="Vector_6" d="M73.5333 90.1948V76.5307L49.3736 62.8667L37.2666 69.672V83.336L61.4805 97L73.5333 90.1948Z" fill="#39CCFB" stroke="#F0F0F0" stroke-miterlimit="10"/>
</g>
</svg>
