<svg width="120" height="120" viewBox="0 0 120 120" fill="none" xmlns="http://www.w3.org/2000/svg">
<g id="Group 237">
<path id="Top" fill-rule="evenodd" clip-rule="evenodd" d="M32.4869 91.9415C47.9766 107.431 73.6319 106.913 90.2731 90.2713C106.914 73.6302 107.433 47.9748 91.9432 32.4851C89.5282 30.0702 74.2608 41.4222 57.8424 57.8406C41.4239 74.259 30.0719 89.5265 32.4869 91.9415ZM49.6117 100.699C63.0179 104.428 78.3713 100.716 89.5443 89.5426C100.717 78.3696 104.43 63.0161 100.701 49.61C102.861 62.0858 98.3064 76.4078 87.358 87.3562C76.4096 98.3046 62.0875 102.86 49.6117 100.699ZM86.6292 86.6274C75.1771 98.0795 60.0277 102.323 47.3734 99.1106C59.1704 100.732 73.2856 95.5984 84.4428 84.4411C95.6001 73.2839 100.734 59.1686 99.1124 47.3716C102.325 60.0259 98.0813 75.1754 86.6292 86.6274ZM45.168 97.6026C57.004 100.294 71.9439 95.4825 83.7141 83.7123C95.4842 71.9421 100.296 57.0022 97.6043 45.1663C97.9011 48.2226 97.678 51.4933 96.9615 54.8617C95.0825 63.695 89.8057 73.248 81.5277 81.526C73.2497 89.804 63.6967 95.0808 54.8634 96.9598C51.4951 97.6763 48.2243 97.8994 45.168 97.6026ZM54.7128 95.9146C50.5622 96.7975 46.6025 96.9033 43.0449 96.2035C46.0695 96.3495 49.3848 95.8941 52.842 94.8884C61.1351 92.476 70.347 86.8765 78.6126 78.6109C86.8782 70.3452 92.4777 61.1333 94.8902 52.8403C95.8959 49.3831 96.3512 46.0678 96.2053 43.0432C96.905 46.6007 96.7992 50.5605 95.9163 54.7111C94.0894 63.2995 88.9394 72.6568 80.7989 80.7972C72.6585 88.9376 63.3013 94.0876 54.7128 95.9146ZM41.0683 94.9232C44.4628 95.4577 48.3905 95.0912 52.6116 93.8633C60.6853 91.5147 69.731 86.0349 77.8838 77.8821C86.0366 69.7293 91.5164 60.6835 93.865 52.6099C95.0929 48.3888 95.4594 44.4611 94.9249 41.0665C94.881 44.0003 94.1464 47.3154 92.8145 50.822C89.871 58.5712 83.9514 67.4418 75.6975 75.6957C67.4435 83.9497 58.5729 89.8692 50.8237 92.8127C47.3171 94.1447 44.002 94.8793 41.0683 94.9232ZM50.5073 91.8164C46.224 93.4434 42.3749 94.1091 39.2216 93.7709C41.9812 93.502 45.2457 92.4487 48.8079 90.7319C56.0102 87.2606 64.5394 81.0236 72.7824 72.7806C81.0253 64.5376 87.2624 56.0084 90.7336 48.8062C92.4505 45.2439 93.5037 41.9795 93.7726 39.2199C94.1108 42.3732 93.4451 46.2222 91.8181 50.5055C88.9456 58.068 83.1332 66.8025 74.9687 74.967C66.8042 83.1314 58.0698 88.9438 50.5073 91.8164ZM37.5182 92.7624C38.0203 92.7818 38.5523 92.7659 39.1132 92.7143C41.7122 92.4756 44.8714 91.4756 48.4005 89.7747C55.4549 86.3747 63.8781 80.2273 72.0536 72.0518C80.229 63.8764 86.3765 55.4531 89.7764 48.3987C91.4773 44.8696 92.4773 41.7105 92.7161 39.1115C92.7676 38.5505 92.7836 38.0185 92.7641 37.5164C92.7245 37.7034 92.6802 37.893 92.6313 38.085C92.0161 40.5008 90.6421 43.4688 88.6469 46.7919C84.6523 53.4451 78.1 61.6328 69.8672 69.8655C61.6345 78.0982 53.4468 84.6506 46.7936 88.6452C43.4705 90.6404 40.5025 92.0144 38.0868 92.6295C37.8947 92.6784 37.7051 92.7228 37.5182 92.7624ZM37.8929 91.5944C36.7906 91.8751 35.8669 91.9729 35.1146 91.9085C40.6538 89.9323 53.2404 79.9333 66.5877 66.586C79.935 53.2387 89.934 40.6521 91.9102 35.1128C91.9747 35.8651 91.8769 36.7889 91.5962 37.8912C91.0198 40.1545 89.7084 43.0127 87.7405 46.2905C83.8088 52.8388 77.3241 60.951 69.1385 69.1367C60.9528 77.3224 52.8405 83.8071 46.2922 87.7387C43.0145 89.7067 40.1563 91.0181 37.8929 91.5944ZM90.5571 33.2628C90.9765 33.1941 91.1264 33.2516 91.1596 33.2687C91.1767 33.302 91.2342 33.4518 91.1656 33.8713C91.0794 34.3982 90.8226 35.1433 90.3527 36.1142C89.4187 38.0443 87.7636 40.6233 85.4861 43.6864C80.9416 49.7984 74.0403 57.6758 65.8589 65.8572C57.6775 74.0386 49.8002 80.9398 43.6882 85.4844C40.6251 87.7619 38.046 89.4169 36.116 90.351C35.145 90.8208 34.3999 91.0776 33.873 91.1638C33.4535 91.2325 33.3037 91.175 33.2705 91.1579C33.2533 91.1246 33.1959 90.9748 33.2645 90.5553C33.3507 90.0284 33.6075 89.2833 34.0774 88.3124C35.0114 86.3823 36.6664 83.8033 38.944 80.7402C43.4885 74.6282 50.3897 66.7508 58.5711 58.5694C66.7525 50.388 74.6299 43.4868 80.7419 38.9422C83.805 36.6647 86.3841 35.0097 88.3141 34.0756C89.2851 33.6058 90.0302 33.349 90.5571 33.2628Z" fill="#43B7F8"/>
<path id="Bottom" fill-rule="evenodd" clip-rule="evenodd" d="M28.058 87.5146C12.5683 72.0249 13.087 46.3696 29.7282 29.7284C46.3693 13.0872 72.0247 12.5686 87.5144 28.0583C89.9293 30.4732 78.5773 45.7407 62.1589 62.1591C45.7405 78.5775 30.473 89.9296 28.058 87.5146ZM19.3005 70.3897C15.5711 56.9836 19.284 41.6301 30.4569 30.4572C41.6299 19.2842 56.9834 15.5713 70.3895 19.3007C57.9138 17.14 43.5917 21.6951 32.6433 32.6435C21.6949 43.5919 17.1398 57.9139 19.3005 70.3897ZM33.3721 33.3723C21.92 44.8244 17.6761 59.9738 20.8889 72.6281C19.2674 60.8311 24.4011 46.7159 35.5584 35.5586C46.7157 24.4014 60.8309 19.2677 72.6279 20.8891C59.9736 17.6763 44.8241 21.9202 33.3721 33.3723ZM22.3969 74.8334C19.7051 62.9975 24.517 48.0576 36.2872 36.2874C48.0574 24.5172 62.9973 19.7053 74.8332 22.3972C71.7769 22.1004 68.5062 22.3234 65.1378 23.04C56.3045 24.919 46.7515 30.1957 38.4735 38.4737C30.1955 46.7517 24.9188 56.3047 23.0397 65.138C22.3232 68.5064 22.1001 71.7771 22.3969 74.8334ZM24.0849 65.2887C23.202 69.4393 23.0962 73.399 23.796 76.9565C23.65 73.932 24.1054 70.6167 25.1111 67.1595C27.5235 58.8664 33.123 49.6545 41.3886 41.3889C49.6543 33.1232 58.8662 27.5237 67.1592 25.1113C70.6164 24.1056 73.9318 23.6502 76.9563 23.7962C73.3988 23.0964 69.439 23.2022 65.2885 24.0852C56.7 25.9121 47.3427 31.0621 39.2023 39.2025C31.0619 47.3429 25.9119 56.7002 24.0849 65.2887ZM25.0763 78.9332C24.5419 75.5387 24.9083 71.611 26.1362 67.3899C28.4848 59.3162 33.9647 50.2704 42.1174 42.1176C50.2702 33.9649 59.316 28.485 67.3897 26.1364C71.6108 24.9085 75.5384 24.5421 78.933 25.0766C75.9992 25.1205 72.6841 25.855 69.1775 27.187C61.4283 30.1305 52.5577 36.05 44.3038 44.304C36.0498 52.5579 30.1303 61.4285 27.1868 69.1777C25.8548 72.6844 25.1203 75.9994 25.0763 78.9332ZM28.1831 69.4942C26.5561 73.7775 25.8904 77.6266 26.2286 80.7799C26.4975 78.0202 27.5508 74.7558 29.2677 71.1935C32.7389 63.9913 38.9759 55.4621 47.2189 47.2191C55.4619 38.9761 63.9911 32.7391 71.1933 29.2679C74.7556 27.551 78.02 26.4977 80.7796 26.2288C77.6264 25.8906 73.7773 26.5563 69.494 28.1833C61.9315 31.0559 53.197 36.8683 45.0326 45.0328C36.8681 53.1972 31.0557 61.9317 28.1831 69.4942ZM27.2371 82.4833C27.2177 81.9812 27.2336 81.4492 27.2852 80.8882C27.5239 78.2893 28.5239 75.1301 30.2248 71.601C33.6248 64.5466 39.7722 56.1233 47.9477 47.9479C56.1231 39.7725 64.5464 33.625 71.6008 30.225C75.1299 28.5242 78.2891 27.5242 80.888 27.2854C81.449 27.2338 81.981 27.2179 82.4831 27.2374C82.2961 27.2769 82.1065 27.3213 81.9145 27.3702C79.4987 27.9853 76.5307 29.3594 73.2077 31.3545C66.5544 35.3491 58.3667 41.9015 50.134 50.1342C41.9013 58.3669 35.3489 66.5547 31.3543 73.2079C29.3591 76.5309 27.9851 79.4989 27.37 81.9147C27.3211 82.1067 27.2767 82.2964 27.2371 82.4833ZM28.4051 82.1085C28.1244 83.2109 28.0266 84.1346 28.091 84.8869C30.0672 79.3477 40.0663 66.761 53.4135 53.4137C66.7608 40.0665 79.3474 30.0675 84.8867 28.0912C84.1344 28.0268 83.2106 28.1246 82.1083 28.4053C79.845 28.9816 76.9868 30.293 73.7091 32.261C67.1607 36.1926 59.0485 42.6773 50.8628 50.863C42.6771 59.0487 36.1924 67.1609 32.2608 73.7093C30.2928 76.987 28.9814 79.8452 28.4051 82.1085ZM86.7368 29.4444C86.8054 29.0249 86.7479 28.8751 86.7308 28.8419C86.6975 28.8247 86.5477 28.7673 86.1282 28.8359C85.6013 28.9221 84.8562 29.1789 83.8853 29.6488C81.9552 30.5828 79.3762 32.2378 76.3131 34.5154C70.2011 39.0599 62.3237 45.9611 54.1423 54.1425C45.9609 62.3239 39.0597 70.2013 34.5151 76.3133C32.2376 79.3764 30.5826 81.9555 29.6485 83.8855C29.1787 84.8564 28.9219 85.6015 28.8357 86.1284C28.767 86.5479 28.8245 86.6977 28.8416 86.731C28.8749 86.7481 29.0247 86.8056 29.4442 86.737C29.9711 86.6508 30.7162 86.394 31.6871 85.9241C33.6172 84.99 36.1963 83.335 39.2593 81.0575C45.3713 76.513 53.2487 69.6117 61.4301 61.4303C69.6115 53.2489 76.5127 45.3715 81.0573 39.2595C83.3348 36.1965 84.9898 33.6174 85.9239 31.6873C86.3937 30.7164 86.6506 29.9713 86.7368 29.4444Z" fill="#43B7F8"/>
</g>
</svg>
