<svg width="230" height="200" viewBox="0 0 230 200" fill="none" xmlns="http://www.w3.org/2000/svg">
<g id="offline 1" clip-path="url(#clip0_12_3929)">
<path id="Vector" d="M135.927 86.9133L142.207 161.58C142.273 162.02 142.68 162.327 143.127 162.26C143.147 162.26 143.167 162.253 143.187 162.247C143.573 162.153 143.833 161.787 143.793 161.387L139.52 86.8933L135.927 86.9133Z" fill="#2E3038" stroke="#2E3038" stroke-linecap="round" stroke-linejoin="round"/>
<path id="Vector_2" d="M178.08 86.9133L184.38 161.833C184.453 162.28 184.867 162.58 185.313 162.507C185.327 162.507 185.347 162.5 185.36 162.5C185.747 162.4 186.007 162.033 185.967 161.633L181.68 86.9133H178.08Z" fill="#2E3038" stroke="#2E3038" stroke-linecap="round" stroke-linejoin="round"/>
<path id="Vector_3" d="M68.5736 86.9133L65.2404 160.913C65.2004 161.313 65.4604 161.68 65.8537 161.78C66.2737 161.887 66.7003 161.633 66.807 161.207C66.8136 161.173 66.8203 161.14 66.827 161.113L72.1603 86.8933L68.5736 86.9133Z" fill="#2E3038" stroke="#2E3038" stroke-linecap="round" stroke-linejoin="round"/>
<path id="Vector_4" d="M29.727 86.9134L26.3937 160.687C26.3537 161.087 26.6137 161.453 27.007 161.553C27.427 161.66 27.8537 161.407 27.9604 160.98C27.967 160.947 27.9737 160.913 27.9804 160.887L33.267 86.8867L29.727 86.9134Z" fill="#2E3038" stroke="#2E3038" stroke-linecap="round" stroke-linejoin="round"/>
<path id="Vector_5" d="M186.28 82.7733H27.3799V89.1866H186.28V82.7733Z" fill="white" stroke="#2E3038" stroke-linecap="round" stroke-linejoin="round"/>
<path id="Vector_6" d="M186.28 82.7733H27.3799V84.9733H186.28V82.7733Z" fill="#2E3038" stroke="#2E3038" stroke-linecap="round" stroke-linejoin="round"/>
<path id="Vector_7" d="M186.28 82.7733H130.394V89.1866H186.28V82.7733Z" fill="#2E3038" stroke="#2E3038" stroke-linecap="round" stroke-linejoin="round"/>
<path id="Vector_8" d="M188.273 80.64H25.3936V83.0867H188.273V80.64Z" fill="white" stroke="#2E3038" stroke-linecap="round" stroke-linejoin="round"/>
<path id="Vector_9" d="M188.273 80.64H132.727V83.0867H188.273V80.64Z" fill="#2E3038" stroke="#2E3038" stroke-linecap="round" stroke-linejoin="round"/>
<path id="Vector_10" d="M115.94 72.12L120.787 80.4667H112.434L115.94 72.12Z" fill="#2E3038" stroke="#2E3038" stroke-linecap="round" stroke-linejoin="round"/>
<path id="Vector_11" d="M64.68 80.42H112.433C112.8 80.42 113.14 80.2 113.286 79.86L126.506 49.7199C126.733 49.2599 126.54 48.7066 126.08 48.4799C125.946 48.4132 125.8 48.3799 125.653 48.3866H77.9065C77.5398 48.3799 77.1998 48.5999 77.0532 48.9399L63.8333 79.0866C63.6066 79.5466 63.8 80.1 64.26 80.3266C64.3933 80.3866 64.5333 80.42 64.68 80.42Z" fill="#2E3038" stroke="#2E3038" stroke-linecap="round" stroke-linejoin="round"/>
<path id="Vector_12" d="M68.1204 79.22H109.454C109.794 79.22 110.107 79.02 110.247 78.7066L122.354 51.7534C122.547 51.3134 122.347 50.8067 121.907 50.6134C121.8 50.5667 121.68 50.54 121.56 50.54H80.2271C79.8804 50.54 79.5671 50.74 79.4338 51.06L67.3338 78.0066C67.1404 78.44 67.3338 78.9466 67.7671 79.1466C67.8738 79.1933 68.0004 79.22 68.1204 79.22Z" fill="white" stroke="#2E3038" stroke-linecap="round" stroke-linejoin="round"/>
<path id="Vector_13" d="M101.447 63.9733C105.9 65.74 109.947 68.4133 113.32 71.8133L114.36 69.5066L115.027 68.08C108.727 66.9933 106.54 61.2733 100.56 53.3C99.7403 52.22 98.7536 51.2733 97.6336 50.5133H80.2269C80.0603 50.5133 79.8936 50.56 79.7536 50.6533C79.6136 50.7466 79.5003 50.88 79.4336 51.0333L74.9336 61.0333C87.4469 66.3066 89.3536 59.16 101.447 63.9733Z" fill="#184AFB" stroke="#2E3038" stroke-linecap="round" stroke-linejoin="round"/>
<path id="Vector_14" d="M100.227 69.1867C90.467 68.2734 71.2536 75.8934 71.2536 75.8934L69.4736 79.2267H78.6003C85.4803 76.5601 93.707 73.8934 98.707 74.0734C103.96 74.2401 105.067 76.9534 105.227 79.2267H106.707C107.454 75.5401 106.947 69.8201 100.227 69.1867Z" fill="#184AFB" stroke="#2E3038" stroke-linecap="round" stroke-linejoin="round"/>
<path id="Vector_15" d="M119.907 57.1867L121.24 54.22C120.533 52.9667 119.72 51.6734 118.98 50.54H113.46C115.04 52.2934 117.76 55.2267 119.907 57.1867Z" fill="#184AFB" stroke="#2E3038" stroke-linecap="round" stroke-linejoin="round"/>
<path id="Vector_16" d="M182.747 77.42H169.44V80.8334H182.747V77.42Z" fill="#2E3038"/>
<path id="Vector_17" d="M176.434 78.5867C177.14 78.5867 177.72 78.04 177.767 77.34L179.987 44.9267C180.034 44.1933 179.48 43.5533 178.747 43.5067C178.014 43.46 177.374 44.0133 177.32 44.7467L175.1 77.16C175.054 77.8933 175.607 78.5333 176.34 78.58L176.434 78.5867Z" fill="#2E3038"/>
<path id="Vector_18" d="M178.82 46.5133C179.554 46.5133 180.154 45.92 180.154 45.18C180.154 44.7533 179.954 44.3533 179.614 44.1066L157.747 28.72C157.5 28.4466 157.08 28.42 156.807 28.66C156.534 28.9066 156.507 29.3266 156.747 29.6C156.807 29.6666 156.88 29.7266 156.967 29.76L178.02 46.24C178.254 46.42 178.534 46.5133 178.82 46.5133Z" fill="#2E3038"/>
<path id="Vector_19" d="M178.82 47.0533C179.951 47.0533 180.867 46.137 180.867 45.0066C180.867 43.8763 179.951 42.96 178.82 42.96C177.69 42.96 176.773 43.8763 176.773 45.0066C176.773 46.137 177.69 47.0533 178.82 47.0533Z" fill="#2E3038"/>
<path id="Vector_20" d="M156.98 32.04C158.111 32.04 159.027 31.1237 159.027 29.9933C159.027 28.863 158.111 27.9467 156.98 27.9467C155.85 27.9467 154.934 28.863 154.934 29.9933C154.934 31.1237 155.85 32.04 156.98 32.04Z" fill="#2E3038"/>
<path id="Vector_21" d="M148.28 32.7998L156 38.9931L158.587 32.3265C159.047 31.1398 158.687 29.7865 157.687 28.9931C156.7 28.1931 155.307 28.1331 154.247 28.8398L148.28 32.7998Z" fill="#2E3038"/>
<path id="Vector_22" d="M142.513 80.4201H173.02C173.253 80.4201 173.467 80.2801 173.567 80.0667L182.013 60.8067C182.14 60.5001 182 60.1467 181.693 60.0201C181.62 59.9867 181.547 59.9734 181.467 59.9734H150.947C150.713 59.9734 150.5 60.1134 150.407 60.3267L141.96 79.5867C141.827 79.8867 141.96 80.2401 142.26 80.3667C142.34 80.4067 142.427 80.4201 142.513 80.4201Z" fill="white" stroke="#2E3038" stroke-linecap="round" stroke-linejoin="round"/>
<path id="Vector_23" d="M145.374 78.9201H171.374C171.58 78.9201 171.76 78.8001 171.84 78.6134L179.047 62.1801C179.16 61.9201 179.04 61.6267 178.78 61.5134C178.72 61.4867 178.654 61.4734 178.587 61.4734H152.58C152.38 61.4734 152.2 61.5934 152.114 61.7734L144.907 78.2067C144.794 78.4667 144.92 78.7667 145.18 78.8801C145.24 78.9067 145.307 78.9201 145.374 78.9201Z" fill="white" stroke="#2E3038" stroke-linecap="round" stroke-linejoin="round"/>
<path id="Vector_24" d="M165.66 69.5267C168.607 70.6334 171.3 72.3334 173.567 74.5201L174.68 72.1401C170.487 71.4734 169.034 67.8067 165.047 62.7267C164.68 62.2667 164.267 61.8467 163.807 61.4734H152.58C152.38 61.4734 152.2 61.5934 152.114 61.7734L149.32 68.1467C156.494 70.5067 158.054 66.6401 165.66 69.5267Z" fill="#184AFB" stroke="#2E3038" stroke-linecap="round" stroke-linejoin="round"/>
<path id="Vector_25" d="M164.846 72.8267C158.346 72.2467 145.513 77.1 145.513 77.1L144.846 78.26C144.753 78.52 144.893 78.8067 145.153 78.9C145.206 78.92 145.266 78.9267 145.32 78.9267H151.22C155.62 77.3334 160.646 75.8467 163.773 75.9467C167.033 76.0467 167.9 77.5467 168.086 78.9267H169.16C169.613 76.5734 169.146 73.2134 164.846 72.8267Z" fill="#184AFB" stroke="#2E3038" stroke-linecap="round" stroke-linejoin="round"/>
<path id="Vector_26" d="M177.813 65.0599L178.693 63.0599C178.366 62.5265 178.026 61.9865 177.68 61.4799H174.146C175.18 62.5532 176.613 63.9732 177.813 65.0599Z" fill="#184AFB" stroke="#2E3038" stroke-linecap="round" stroke-linejoin="round"/>
<path id="Vector_27" d="M173.447 79.14H127.613V80.64H173.447V79.14Z" fill="white" stroke="#2E3038" stroke-linecap="round" stroke-linejoin="round"/>
<path id="Vector_28" d="M173.447 79.14H151.227V80.64H173.447V79.14Z" fill="white" stroke="#2E3038" stroke-linecap="round" stroke-linejoin="round"/>
<path id="Vector_29" d="M131.886 68.7267H123.8V80.6734H131.886V68.7267Z" fill="white" stroke="#2E3038" stroke-linecap="round" stroke-linejoin="round"/>
<path id="Vector_30" d="M131.52 79.0467H130.68C130.313 79.0467 130.013 78.7467 130.013 78.38C130.013 78.0134 130.313 77.7134 130.68 77.7134H131.52C132.22 77.7067 132.78 77.1467 132.787 76.4467V73.5534C132.787 72.8534 132.22 72.2867 131.52 72.2867H130.44C130.073 72.2867 129.773 71.9867 129.773 71.62C129.773 71.2534 130.073 70.9534 130.44 70.9534H131.52C132.953 70.96 134.113 72.12 134.12 73.5534V76.4467C134.113 77.88 132.953 79.04 131.52 79.0467Z" fill="white" stroke="#2E3038" stroke-linecap="round" stroke-linejoin="round"/>
<path id="Vector_31" d="M76.7668 18.1667C76.7668 18.1667 78.5935 23.84 78.5935 24.94C78.5801 25.7333 78.5201 26.5333 78.4135 27.32L80.0335 29.8267C80.2401 30.1533 80.1468 30.5867 79.8201 30.7933C79.8135 30.8 79.8068 30.8 79.8001 30.8067L77.3135 32.2667C77.3135 32.2667 76.9468 38.1267 76.5801 38.86C76.2135 39.5933 69.9868 39.4133 69.9868 39.4133L67.9868 43.26L57.5469 39.2267L60.2802 31.72L59.7269 20.3867C59.7269 20.3867 66.1402 14.6867 76.7668 18.1667Z" fill="white" stroke="#2E3038" stroke-linecap="round" stroke-linejoin="round"/>
<path id="Vector_32" d="M69.4404 32.2666L70.9004 32.6333C70.7204 34.0133 71.1204 35.4066 72.0004 36.4799" fill="white"/>
<path id="Vector_33" d="M69.4404 32.2666L70.9004 32.6333C70.7204 34.0133 71.1204 35.4066 72.0004 36.4799" stroke="#2E3038" stroke-linecap="round" stroke-linejoin="round"/>
<path id="Vector_34" d="M71.127 28.3465L81.4403 25.7932" stroke="#2E3038" stroke-linecap="round" stroke-linejoin="round"/>
<path id="Vector_35" d="M78.7871 25.5865L81.1338 25.6865C81.1338 25.6865 81.9538 28.3532 79.5004 28.6532" stroke="#2E3038" stroke-linecap="round" stroke-linejoin="round"/>
<path id="Vector_36" d="M64.6735 13.9732C64.6735 13.9732 60.6735 12.6866 58.6269 18.1866C56.5802 23.6866 60.2802 30.8532 60.2802 31.7399C60.2802 32.6266 63.3936 33.3866 65.7736 33.3866C67.0869 33.4399 68.3735 33.0532 69.4402 32.2866C69.4402 32.2866 68.5202 28.6266 69.2535 27.8932C69.9869 27.1599 71.8202 28.8066 71.8202 28.8066C72.3935 28.7132 72.9535 28.5332 73.4669 28.2599C74.0135 27.8932 76.7669 26.4266 75.8469 24.7799C74.9269 23.1332 73.1002 21.6666 74.5669 20.5666C76.0335 19.4666 79.9002 19.2799 80.0602 15.7999C80.2202 12.3199 78.0602 11.5932 75.8469 11.9532C73.6335 12.3132 74.3802 8.83992 70.1669 9.39325C65.9535 9.94658 63.9402 12.2999 64.6735 13.9732Z" fill="#2E3038" stroke="#2E3038" stroke-linecap="round" stroke-linejoin="round"/>
<path id="Vector_37" d="M107.613 51.7931C109.6 54.8997 111.96 57.7464 114.647 60.2664C114.647 60.2664 112.093 54.5797 108.307 51.2197C107.967 50.9264 107.373 51.4131 107.613 51.7931Z" fill="#2E3038" stroke="#2E3038" stroke-linecap="round" stroke-linejoin="round"/>
<path id="Vector_38" d="M92.8929 73.8066L106.393 63.64C106.393 63.64 106.393 58.9733 107.06 57.9733C107.726 56.9733 113.226 55.3066 113.226 55.3066C113.226 55.3066 114.726 53.4733 115.56 55.3066C116.046 56.4 115.92 57.6666 115.226 58.64C115.313 59.9733 115.313 61.3066 115.226 62.64C115.06 63.64 109.226 66.14 109.226 66.14C109.226 66.14 101.226 77.9733 97.2262 81.3066C93.2262 84.64 92.3929 85.3066 90.7262 85.9733C89.0596 86.64 86.0596 81.8066 86.0596 81.8066L92.8929 73.8066Z" fill="white" stroke="#2E3038" stroke-linecap="round" stroke-linejoin="round"/>
<path id="Vector_39" d="M68.393 151.82C68.393 151.82 77.893 157.82 79.5597 157.82C81.2264 157.82 82.0597 159.32 81.2264 159.487C80.393 159.653 75.2264 159.82 71.7264 159.987C68.2264 160.153 65.8931 159.82 63.8931 159.82C61.8931 159.82 59.5598 159.987 58.5598 159.487C57.5598 158.987 59.2264 153.32 59.2264 152.32C59.2264 151.32 67.2264 151.153 68.393 151.82Z" fill="#2E3038" stroke="#2E3038" stroke-linecap="round" stroke-linejoin="round"/>
<path id="Vector_40" d="M80.6467 158.06C76.96 159.28 70.98 158.48 67.3933 158.153C64.5533 157.893 60.1267 157.833 58.2667 157.82C58.1934 158.68 58.2667 159.327 58.56 159.487C59.56 159.987 61.8933 159.82 63.8933 159.82C65.8933 159.82 68.2267 160.153 71.7267 159.987C75.2267 159.82 80.3933 159.653 81.2267 159.487C81.8467 159.36 81.54 158.493 80.6467 158.06Z" fill="white" stroke="#2E3038" stroke-linecap="round" stroke-linejoin="round"/>
<path id="Vector_41" d="M75.893 110.64L68.3997 148.207L69.9597 152.107C68.8397 153.733 67.153 154.873 65.2265 155.307C63.0865 155.727 60.9065 155.947 58.7265 155.973C58.7265 155.973 57.8932 151.807 58.3932 151.307C58.8932 150.807 59.0598 148.807 59.0598 148.807L63.3932 110.973L75.893 110.64Z" fill="#184AFB" stroke="#2E3038" stroke-linecap="round" stroke-linejoin="round"/>
<path id="Vector_42" d="M98.7268 150.547C98.7268 150.547 104.56 155.38 107.227 156.213C109.893 157.047 112.727 157.88 112.727 158.713C112.727 159.547 106.393 160.38 101.56 159.88C96.7268 159.38 89.3934 157.213 87.7268 157.213C86.0601 157.213 86.3934 152.88 86.3934 152.213C86.3934 151.547 94.5601 146.213 98.7268 150.547Z" fill="#2E3038" stroke="#2E3038" stroke-linecap="round" stroke-linejoin="round"/>
<path id="Vector_43" d="M112.726 158.713C112.726 158.413 112.353 158.113 111.76 157.813C106.993 158.46 102.153 158.427 97.393 157.713C93.7397 157.193 90.113 156.487 86.5264 155.6C86.6997 156.493 87.0464 157.213 87.7264 157.213C89.393 157.213 96.7264 159.38 101.56 159.88C106.393 160.38 112.726 159.547 112.726 158.713Z" fill="white" stroke="#2E3038" stroke-linecap="round" stroke-linejoin="round"/>
<path id="Vector_44" d="M69.7267 93.8067C74.7267 93.42 79.7467 93.5334 84.7267 94.14C93.2267 95.14 105.727 96.3067 106.06 98.4734C106.393 100.64 97.8067 145.74 97.8067 146.907C97.8067 148.073 99.14 149.24 99.4734 149.907C99.6867 150.38 99.8 150.887 99.8067 151.407C99.8067 151.407 95.7267 155.807 92.56 156.973C89.3934 158.14 86.7334 157.053 86.0667 157.053C85.4 157.053 85.4 152.553 85.9 150.387C86.4 148.22 87.2334 142.72 87.4 142.22C87.5667 141.72 90.2267 109.64 90.2267 109.64C90.2267 109.64 71.8934 113.64 57.0602 111.973C42.2268 110.307 40.7268 107.973 39.8935 104.473C39.0602 100.973 40.7268 93.9734 40.7268 93.9734L69.7267 93.8067Z" fill="#184AFB" stroke="#2E3038" stroke-linecap="round" stroke-linejoin="round"/>
<path id="Vector_45" d="M101.76 106.487C102.32 106.267 102.873 106.04 103.393 105.82L101.76 106.487Z" fill="white"/>
<path id="Vector_46" d="M101.76 106.487C102.32 106.267 102.873 106.04 103.393 105.82" stroke="#2E3038" stroke-linecap="round" stroke-linejoin="round"/>
<path id="Vector_47" d="M90.2266 109.64C93.4199 109.013 96.5732 108.207 99.6732 107.22L90.2266 109.64Z" fill="white"/>
<path id="Vector_48" d="M90.2266 109.64C93.4199 109.013 96.5732 108.207 99.6732 107.22" stroke="#2E3038" stroke-linecap="round" stroke-linejoin="round"/>
<path id="Vector_49" d="M55.7269 38.3066C55.7269 38.3066 42.7269 44.4732 40.8936 45.6399C39.0602 46.8066 37.8936 61.3066 37.8936 63.8066C37.8936 66.3066 39.7269 90.8067 40.2269 94.9734C40.7269 99.14 56.7269 101.973 62.0602 100.473C67.3935 98.9734 72.5602 95.14 72.5602 93.8067C72.5602 92.4734 72.0602 81.14 72.3935 78.9734C72.7268 76.8067 75.7268 67.64 75.7268 67.64L81.3935 83.8067C83.7735 83.1734 86.1068 82.3934 88.3935 81.4734C93.2268 79.4734 94.3935 72.8067 94.3935 72.8067C94.3935 72.8067 89.0601 63.4732 87.5601 58.8066C86.0601 54.1399 85.3935 50.6399 84.7268 49.8066C84.0601 48.9732 69.0602 41.9732 66.3936 40.1399C63.3402 37.8399 59.3669 37.1599 55.7269 38.3066Z" fill="#2E3038" stroke="#2E3038" stroke-linecap="round" stroke-linejoin="round"/>
<path id="Vector_50" d="M52.4062 114.52L59.0729 161.853C59.1329 162.287 59.5263 162.593 59.9663 162.533C59.9929 162.527 60.0196 162.527 60.0462 162.52C60.4329 162.427 60.6929 162.06 60.6529 161.667L55.9863 113.747L52.4062 114.52Z" fill="#2E3038" stroke="#2E3038" stroke-linecap="round" stroke-linejoin="round"/>
<path id="Vector_51" d="M33.2799 114.907L22.1532 161.393C22.0532 161.82 22.3132 162.247 22.7399 162.353C22.7666 162.36 22.7932 162.367 22.8199 162.367C23.2132 162.42 23.5932 162.18 23.6999 161.793L36.6199 116.687L33.2799 114.907Z" fill="#2E3038" stroke="#2E3038" stroke-linecap="round" stroke-linejoin="round"/>
<path id="Vector_52" d="M53.4867 114.333L46.4067 161.6C46.3401 162.04 46.6401 162.447 47.0734 162.513C47.1001 162.52 47.1201 162.52 47.1467 162.52C47.5534 162.54 47.9067 162.253 47.9734 161.853L56.9467 115.82L53.4867 114.333Z" fill="#2E3038" stroke="#2E3038" stroke-linecap="round" stroke-linejoin="round"/>
<path id="Vector_53" d="M72.627 114.52L79.2936 161.853C79.3536 162.293 79.7603 162.593 80.2003 162.533C80.2203 162.533 80.247 162.527 80.267 162.52C80.6536 162.427 80.9136 162.067 80.8803 161.667L76.2136 113.747L72.627 114.52Z" fill="#2E3038" stroke="#2E3038" stroke-linecap="round" stroke-linejoin="round"/>
<path id="Vector_54" d="M22.8332 81.3534C22.8332 81.3534 20.8332 72.9067 21.0599 68.24C21.2866 63.5732 25.4999 57.5732 37.2799 58.2399C49.0599 58.9066 55.2799 70.24 54.3932 79.3534C53.5066 88.4667 54.3932 106.24 60.6132 110.02C66.8332 113.8 80.8332 111.133 80.8332 111.133C80.8332 111.133 82.8332 111.573 81.2798 113.133C79.7265 114.693 66.8332 116.907 60.3932 117.8C55.4732 118.467 43.0599 118.12 37.4466 117.913C34.5332 117.84 31.7599 116.62 29.7399 114.52C28.9266 113.647 28.2532 112.653 27.7399 111.573C24.4599 104.72 22.8332 81.3534 22.8332 81.3534Z" fill="white"/>
<path id="Vector_55" d="M22.8332 81.3534C22.8332 81.3534 20.8332 72.9067 21.0599 68.24C21.2866 63.5732 25.4999 57.5732 37.2799 58.2399C49.0599 58.9066 55.2799 70.24 54.3932 79.3534C53.5066 88.4667 54.3932 106.24 60.6132 110.02C66.8332 113.8 80.8332 111.133 80.8332 111.133C80.8332 111.133 82.8332 111.573 81.2798 113.133C79.7265 114.693 66.8332 116.907 60.3932 117.8C55.4732 118.467 43.0599 118.12 37.4466 117.913C34.5332 117.84 31.7599 116.62 29.7399 114.52C28.9266 113.647 28.2532 112.653 27.7399 111.573C24.4599 104.72 22.8332 81.3534 22.8332 81.3534Z" stroke="#2E3038" stroke-linecap="round" stroke-linejoin="round"/>
<path id="Vector_56" d="M229.713 160.233H0V163.873H229.713V160.233Z" fill="#2E3038"/>
<g id="Group" opacity="0.08">
<path id="Vector_57" opacity="0.08" d="M7.34448 124.608C7.34448 124.608 14.5033 163.187 50.8128 184.093C87.116 204.999 132.247 200.012 168.931 196.933C205.615 193.853 230.367 169.045 229.833 137.337C229.299 105.628 200.167 100.739 179.721 67.662C159.275 34.5917 158.846 22.7584 123.677 5.86426C88.5087 -11.0237 40.7217 9.9314 20.2819 51.1791C-0.157872 92.4267 7.34448 124.608 7.34448 124.608Z" fill="#184AFB"/>
<path id="Vector_58" opacity="0.7" d="M7.34448 124.608C7.34448 124.608 14.5033 163.187 50.8128 184.093C87.116 204.999 132.247 200.012 168.931 196.933C205.615 193.853 230.367 169.045 229.833 137.337C229.299 105.628 200.167 100.739 179.721 67.662C159.275 34.5917 158.846 22.7584 123.677 5.86426C88.5087 -11.0237 40.7217 9.9314 20.2819 51.1791C-0.157872 92.4267 7.34448 124.608 7.34448 124.608Z" fill="#184AFB"/>
</g>
</g>
<defs>
<clipPath id="clip0_12_3929">
<rect width="230" height="200" fill="white"/>
</clipPath>
</defs>
</svg>
