<svg width="232" height="200" viewBox="0 0 232 200" fill="none" xmlns="http://www.w3.org/2000/svg">
<g id="Group 1000004477">
<g id="Group" opacity="0.1">
<path id="Vector" opacity="0.08" d="M6.32652 124.754C6.32652 124.754 13.4105 163.378 49.3405 184.309C85.2643 205.239 129.923 200.246 166.224 197.163C202.524 194.08 227.017 169.243 226.489 137.497C225.961 105.752 197.133 100.857 176.901 67.7414C156.669 34.6321 156.244 22.785 121.443 5.87113C86.6422 -11.0366 39.3548 9.94295 19.1287 51.239C-1.0974 92.535 6.32652 124.754 6.32652 124.754Z" fill="#184AFB"/>
<path id="Vector_2" opacity="0.7" d="M6.32652 124.754C6.32652 124.754 13.4105 163.378 49.3405 184.309C85.2643 205.239 129.923 200.246 166.224 197.163C202.524 194.08 227.017 169.243 226.489 137.497C225.961 105.752 197.133 100.857 176.901 67.7414C156.669 34.6321 156.244 22.785 121.443 5.87113C86.6422 -11.0366 39.3548 9.94295 19.1287 51.239C-1.0974 92.535 6.32652 124.754 6.32652 124.754Z" fill="#184AFB"/>
</g>
<g id="Clip path group">
<mask id="mask0_96_1579" style="mask-type:luminance" maskUnits="userSpaceOnUse" x="0" y="0" width="232" height="200">
<g id="clip0">
<path id="Vector_3" d="M232 0H0V199.217H232V0Z" fill="white"/>
</g>
</mask>
<g mask="url(#mask0_96_1579)">
<g id="Group_2">
<path id="Vector_4" d="M198.459 146.395L195.164 197.578C195.091 198.099 194.651 198.546 194.139 198.546C193.552 198.546 193.113 198.099 193.113 197.503C193.113 197.503 193.113 197.503 193.113 197.429L194.504 146.32H198.459V146.395Z" fill="#2E3038" stroke="#2E3038" stroke-linecap="round" stroke-linejoin="round"/>
<path id="Vector_5" d="M207.027 146.396L210.322 197.578C210.322 198.1 210.762 198.546 211.348 198.546C211.934 198.546 212.373 198.1 212.373 197.503L210.982 146.47L207.027 146.396Z" fill="#2E3038" stroke="#2E3038" stroke-linecap="round" stroke-linejoin="round"/>
<path id="Vector_6" d="M173.633 146.396L176.928 197.578C176.928 198.1 177.368 198.546 177.953 198.546C178.539 198.546 178.978 198.1 178.978 197.503L177.587 146.47L173.633 146.396Z" fill="#2E3038" stroke="#2E3038" stroke-linecap="round" stroke-linejoin="round"/>
<path id="Vector_7" d="M160.012 146.396L156.717 197.578C156.643 198.1 156.204 198.546 155.691 198.546C155.105 198.546 154.666 198.1 154.666 197.503L156.057 146.47L160.012 146.396Z" fill="#2E3038" stroke="#2E3038" stroke-linecap="round" stroke-linejoin="round"/>
<path id="Vector_8" d="M218.012 94.7655C218.012 94.7655 184.764 93.499 181.981 93.499C179.198 93.499 178.539 94.7655 178.539 94.7655L173.779 128.812C173.779 128.812 159.059 124.492 156.13 125.088C153.201 125.684 157.594 146.991 157.594 146.991H174.292L174.585 145.725H212.3L222.332 97.2244C221.673 94.989 218.012 94.7655 218.012 94.7655Z" fill="white" stroke="#2E3038" stroke-linecap="round" stroke-linejoin="round"/>
<path id="Vector_9" d="M205.416 116.073C205.416 116.073 208.785 138.424 204.903 141.031C204.318 141.404 201.022 143.341 198.019 143.043C195.603 142.819 178.32 143.043 178.32 143.043C178.32 143.043 175.903 138.424 175.464 134.997C175.024 131.57 178.759 116.893 178.759 116.893L205.416 116.073Z" fill="white" stroke="#2E3038" stroke-linecap="round" stroke-linejoin="round"/>
<path id="Vector_10" d="M177.074 127.993C177.074 127.993 152.028 130.602 150.856 131.346C149.684 132.091 144.265 136.859 145.217 139.988C146.169 143.118 143.826 143.341 145.949 143.862C148.074 144.384 178.538 144.309 178.538 144.309" fill="#184AFB"/>
<path id="Vector_11" d="M177.074 127.993C177.074 127.993 152.028 130.602 150.856 131.346C149.684 132.091 144.265 136.859 145.217 139.988C146.169 143.118 143.826 143.341 145.949 143.862C148.074 144.384 178.538 144.309 178.538 144.309" stroke="#2E3038" stroke-linecap="round" stroke-linejoin="round"/>
<path id="Vector_12" d="M213.763 142.447H154.299V146.991H213.763V142.447Z" fill="white" stroke="#2E3038" stroke-linecap="round" stroke-linejoin="round"/>
<path id="Vector_13" d="M199.705 128.962H163.894C163.894 128.962 161.991 131.122 161.77 135.667C161.551 140.211 161.991 141.181 165.285 142.372C168.581 143.564 197.947 142.969 197.947 142.969" fill="#184AFB"/>
<path id="Vector_14" d="M199.705 128.962H163.894C163.894 128.962 161.991 131.122 161.77 135.667C161.551 140.211 161.991 141.181 165.285 142.372C168.581 143.564 197.947 142.969 197.947 142.969" stroke="#2E3038" stroke-linecap="round" stroke-linejoin="round"/>
<path id="Vector_15" d="M171.509 186.775L167.774 177.76L161.622 178.953L166.309 186.998L163.6 192.512L157.741 196.386C157.741 196.386 157.082 197.056 160.012 196.833C162.941 196.609 169.019 196.833 169.019 196.833L172.827 192.288C172.827 192.288 174.218 189.979 171.509 186.775Z" fill="white" stroke="#2E3038" stroke-linecap="round" stroke-linejoin="round"/>
<path id="Vector_16" d="M173.195 190.724L173.341 196.61H172.39L171.145 193.704L173.195 190.724Z" fill="#2E3038" stroke="#2E3038" stroke-linecap="round" stroke-linejoin="round"/>
<path id="Vector_17" d="M169.02 196.907L172.828 192.363C172.828 192.363 173.854 190.65 172.462 188.191C169.752 192.958 166.091 194.374 166.091 194.374L162.282 193.48L157.669 196.535C157.669 196.535 157.01 197.205 159.939 196.982C162.868 196.758 169.02 196.907 169.02 196.907Z" fill="#2E3038" stroke="#2E3038" stroke-linecap="round" stroke-linejoin="round"/>
<path id="Vector_18" d="M156.79 140.734L169.313 179.399L160.378 181.039L142.803 140.808C142.803 140.808 141.411 134.774 145.146 132.91C148.881 131.048 160.012 130.005 160.012 130.005" fill="#184AFB"/>
<path id="Vector_19" d="M156.79 140.734L169.313 179.399L160.378 181.039L142.803 140.808C142.803 140.808 141.411 134.774 145.146 132.91C148.881 131.048 160.012 130.005 160.012 130.005" stroke="#2E3038" stroke-linecap="round" stroke-linejoin="round"/>
<path id="Vector_20" d="M197.066 146.917C197.066 146.917 192.745 125.535 195.601 125.014C198.457 124.492 213.25 128.739 213.25 128.739L218.01 94.7661C218.01 94.7661 222.99 93.9465 223.576 98.4912C224.089 103.036 213.763 146.917 213.763 146.917H197.066Z" fill="#2E3038" stroke="#2E3038" stroke-linecap="round" stroke-linejoin="round"/>
<path id="Vector_21" d="M146.099 83.963L143.901 80.2378C143.462 79.4929 142.657 79.0458 141.851 79.1204L139.727 79.1949L136.139 78.0774C135.7 77.9284 135.187 78.0774 134.894 78.5244L134.747 78.6734L138.043 80.1634L134.747 81.4299L131.233 79.6418C130.939 79.4929 130.573 79.5673 130.427 79.8654C130.207 80.1634 130.28 80.6104 130.573 80.8339L135.479 84.708C135.772 84.9315 136.212 85.0805 136.578 85.006L141.997 83.8884L143.535 85.602L146.099 83.963Z" fill="white" stroke="#2E3038" stroke-linecap="round" stroke-linejoin="round"/>
<path id="Vector_22" d="M183.959 76.2893L163.819 97.746L144.633 81.9514L141.996 83.8885L163.087 108.251L181.396 98.1926L183.959 76.2893Z" fill="white" stroke="#2E3038" stroke-linecap="round" stroke-linejoin="round"/>
<path id="Vector_23" d="M214.058 81.8025L224.603 114.732L215.523 115.03L206.441 99.5343C206.441 99.5343 211.568 83.9631 214.058 81.8025Z" fill="white" stroke="#2E3038" stroke-linecap="round" stroke-linejoin="round"/>
<path id="Vector_24" d="M202.56 76.1403L214.056 81.8024L204.463 109.145L205.562 116.744L178.686 116.818L181.908 104.525L179.711 96.6287C179.418 95.5852 179.418 94.5422 179.637 93.4991L183.959 76.2893L195.236 74.4268L202.56 76.1403Z" fill="white" stroke="#2E3038" stroke-linecap="round" stroke-linejoin="round"/>
<path id="Vector_25" d="M202.049 74.5015C202.049 74.5015 204.319 76.066 204.392 77.4071C204.392 78.2266 204.392 79.6421 204.319 80.7596C204.245 81.5792 204.099 82.4732 203.733 83.2181L199.706 88.2097L195.018 84.4102L191.137 86.4217C191.137 86.4217 190.405 80.3126 192.089 76.066C193.773 71.8195 201.17 73.4584 202.049 74.5015Z" fill="white" stroke="#2E3038" stroke-linecap="round" stroke-linejoin="round"/>
<path id="Vector_26" d="M205.269 62.7301C205.269 62.7301 204.317 66.0827 203.878 68.3178C203.437 70.5528 202.559 75.0229 202.633 76.6619C202.705 78.301 195.748 85.4531 194.943 84.4101C194.137 83.3671 193.186 77.1834 193.186 77.1834L194.064 67.2003C193.99 67.2003 203.072 56.9935 205.269 62.7301Z" fill="white" stroke="#2E3038" stroke-linecap="round" stroke-linejoin="round"/>
<path id="Vector_27" d="M190.769 57.5152C190.769 57.5152 189.524 59.6012 189.524 60.4953C189.524 61.3892 189.964 63.1773 189.891 63.6988C189.817 64.2203 188.572 65.9339 188.426 66.5299C188.279 67.0513 188.5 67.5728 188.939 67.7964C189.232 67.9454 189.524 68.0944 189.817 68.3178C189.817 68.3178 190.184 72.937 190.769 74.129C191.355 75.321 191.868 75.8426 193.626 75.9915C195.383 76.1405 199.484 74.278 200.07 72.788C200.656 71.2979 200.729 69.5099 200.802 67.4239C200.876 65.3379 199.411 62.2088 198.313 59.3032C197.214 56.3976 192.674 54.6096 190.769 57.5152Z" fill="white" stroke="#2E3038" stroke-linecap="round" stroke-linejoin="round"/>
<path id="Vector_28" d="M209.517 72.6389C212.591 72.6389 215.082 70.1039 215.082 66.9768C215.082 63.8498 212.591 61.3147 209.517 61.3147C206.443 61.3147 203.951 63.8498 203.951 66.9768C203.951 70.1039 206.443 72.6389 209.517 72.6389Z" fill="#2E3038" stroke="#2E3038" stroke-linecap="round" stroke-linejoin="round"/>
<path id="Vector_29" d="M190.695 57.217C190.695 57.217 192.966 55.28 196.993 59.154C201.021 63.0281 199.483 68.7647 202.192 69.9567C204.902 71.1487 209.882 65.2632 210.468 62.2831C211.054 59.303 209.296 53.2684 203.877 52.0764C198.457 50.8843 191.94 51.7039 190.695 57.217Z" fill="#2E3038" stroke="#2E3038" stroke-linecap="round" stroke-linejoin="round"/>
<path id="Vector_30" d="M190.696 57.217C190.549 55.5036 191.72 54.0135 193.332 53.8645C193.552 53.8645 193.845 53.8645 194.064 53.8645C197.726 54.088 198.092 59.9736 199.996 62.2832C201.9 64.5927 202.925 64.2202 202.925 64.2202C202.925 64.2202 199.63 65.1887 197.506 63.9967C195.383 62.8046 194.43 56.1741 190.696 57.217Z" fill="#2E3038" stroke="#2E3038" stroke-linecap="round" stroke-linejoin="round"/>
<path id="Vector_31" d="M199.191 67.7219C199.191 67.7219 203.073 62.5812 203.951 66.3808C204.831 70.1804 201.754 71.1489 200.29 70.702C198.825 70.2549 199.045 69.4353 199.045 69.4353" fill="white"/>
<path id="Vector_32" d="M199.191 67.7219C199.191 67.7219 203.073 62.5812 203.951 66.3808C204.831 70.1804 201.754 71.1489 200.29 70.702C198.825 70.2549 199.045 69.4353 199.045 69.4353" stroke="#2E3038" stroke-linecap="round" stroke-linejoin="round"/>
<path id="Vector_33" d="M190.55 111.827C190.55 111.827 183.153 112.869 181.908 112.869C180.663 112.869 177.588 116.818 177.588 116.818H191.136L190.55 111.827Z" fill="white" stroke="#2E3038" stroke-linecap="round" stroke-linejoin="round"/>
<path id="Vector_34" d="M221.965 106.761L224.602 112.869C225.041 114.136 224.382 115.477 223.137 115.924C222.917 115.999 222.697 116.073 222.405 116.073L190.402 116.222L190.622 111.827L215.448 107.803" fill="white"/>
<path id="Vector_35" d="M221.965 106.761L224.602 112.869C225.041 114.136 224.382 115.477 223.137 115.924C222.917 115.999 222.697 116.073 222.405 116.073L190.402 116.222L190.622 111.827L215.448 107.803" stroke="#2E3038" stroke-linecap="round" stroke-linejoin="round"/>
<path id="Vector_36" d="M179.124 190.724L179.271 196.61H178.319L177.146 193.704L179.124 190.724Z" fill="#2E3038" stroke="#2E3038" stroke-linecap="round" stroke-linejoin="round"/>
<path id="Vector_37" d="M177.44 186.775L176.269 178.208L170.117 178.58L172.241 187.073L169.531 192.586L163.673 196.46C163.673 196.46 163.013 197.13 165.942 196.907C168.872 196.684 174.95 196.907 174.95 196.907L178.759 192.363C178.831 192.363 180.15 189.979 177.44 186.775Z" fill="white" stroke="#2E3038" stroke-linecap="round" stroke-linejoin="round"/>
<path id="Vector_38" d="M174.95 196.907L178.759 192.363C178.759 192.363 179.784 190.65 178.392 188.191C175.683 192.958 172.021 194.374 172.021 194.374L168.286 193.48L163.673 196.535C163.673 196.535 163.013 197.205 165.942 196.982C168.872 196.758 174.95 196.907 174.95 196.907Z" fill="#2E3038" stroke="#2E3038" stroke-linecap="round" stroke-linejoin="round"/>
<path id="Vector_39" d="M174.658 134.103L177.294 179.773L168.946 179.996L160.816 138.498C160.816 138.498 160.963 130.602 163.453 129.708C165.943 128.814 172.534 129.782 172.534 129.782" fill="#184AFB"/>
<path id="Vector_40" d="M174.658 134.103L177.294 179.773L168.946 179.996L160.816 138.498C160.816 138.498 160.963 130.602 163.453 129.708C165.943 128.814 172.534 129.782 172.534 129.782" stroke="#2E3038" stroke-linecap="round" stroke-linejoin="round"/>
<path id="Vector_41" d="M138.262 35.7605L148.588 65.2631C148.588 65.2631 147.196 71.8938 143.096 71.6703C138.994 71.4467 137.896 65.5612 136.797 64.7416C135.699 63.9221 134.088 57.515 134.088 57.515L138.262 35.7605Z" fill="white" stroke="#2E3038" stroke-linecap="round" stroke-linejoin="round"/>
<path id="Vector_42" d="M111.532 29.875L94.7617 35.9841L101.206 83.3671H131.451L138.261 35.7607L120.1 29.9496L111.532 29.875Z" fill="white" stroke="#2E3038" stroke-linecap="round" stroke-linejoin="round"/>
<path id="Vector_43" d="M113.145 37.9956L115.561 41.6462L113.438 73.2349L116.586 81.43L119.735 73.4584L117.026 42.1677L119.222 36.8037L116.147 32.7061L113.145 37.9956Z" fill="#184AFB" stroke="#2E3038" stroke-linecap="round" stroke-linejoin="round"/>
<path id="Vector_44" d="M116.513 36.4309L112.192 39.7089L109.336 31.1413L111.313 26.7457L120.174 26.5222L122.298 28.5337L121.858 39.4855L116.513 36.4309Z" fill="white" stroke="#2E3038" stroke-linecap="round" stroke-linejoin="round"/>
<path id="Vector_45" d="M121.052 24.5108L120.393 30.024L115.56 36.3566L111.898 29.8749V19.5938C111.898 19.5938 118.269 21.2327 121.052 24.5108Z" fill="white" stroke="#2E3038" stroke-linecap="round" stroke-linejoin="round"/>
<path id="Vector_46" d="M109.408 13.0375C109.408 7.97133 112.996 3.94824 117.463 3.94824C121.93 3.94824 124.42 8.26934 124.42 13.2609C124.42 14.9 124.055 17.6565 123.981 19.1466C123.762 21.6796 123.029 22.7226 121.491 25.0322C116.657 32.4823 112.703 21.5306 110.653 17.8801C109.847 16.39 109.408 14.7509 109.408 13.0375Z" fill="white" stroke="#2E3038" stroke-linecap="round" stroke-linejoin="round"/>
<path id="Vector_47" d="M120.977 14.6021L121.709 19.8172L119.293 19.7426" fill="white"/>
<path id="Vector_48" d="M120.977 14.6021L121.709 19.8172L119.293 19.7426" stroke="#2E3038" stroke-linecap="round" stroke-linejoin="round"/>
<path id="Vector_49" d="M126.326 13.708L114.829 13.7825C114.535 14.6765 114.755 15.7195 115.415 16.4645C116.147 17.2095 119.15 16.9116 119.589 16.7626C120.028 16.6135 120.321 14.453 120.321 14.453H121.2C121.2 14.453 121.273 16.688 122.518 16.8371C123.763 16.986 125.374 16.986 125.667 16.7626C126.985 15.794 126.326 13.708 126.326 13.708Z" fill="white" stroke="#2E3038" stroke-linecap="round" stroke-linejoin="round"/>
<path id="Vector_50" d="M110.872 18.6998C110.872 18.6998 113.435 24.0639 114.094 26.0009C114.753 27.938 117.756 29.3535 120.831 28.3104C123.907 27.2675 123.101 22.6483 123.101 22.6483C123.101 22.6483 119.806 19.8173 119.22 20.4133C118.634 21.0094 115.339 23.7659 115.119 23.0954C114.899 22.4249 113.508 18.6998 113.508 18.6998L112.849 16.0177L114.24 15.1237C114.68 14.7511 114.753 14.1551 114.386 13.7082L113.728 12.7396C113.582 12.5162 113.508 12.2181 113.582 11.9201C113.728 11.1006 114.24 9.38708 115.266 8.94007C116.73 8.34406 118.488 9.23807 120.172 9.61058C121.856 9.98312 123.614 8.49305 123.614 8.49305L124.346 10.9516C125.958 9.38708 127.129 7.37553 127.642 5.21499C128.448 1.63892 120.099 0.223389 117.389 0.223389C114.68 0.223389 110.432 1.71342 109.187 5.662C107.942 9.61057 110.139 18.0293 110.872 18.6998Z" fill="#2E3038" stroke="#2E3038" stroke-linecap="round" stroke-linejoin="round"/>
<path id="Vector_51" d="M111.239 17.0607C111.239 17.0607 108.969 14.5276 108.969 17.2842C108.969 20.0408 109.628 20.0408 111.019 21.0092C112.411 21.9778 112.85 20.7858 112.85 20.7858" fill="white"/>
<path id="Vector_52" d="M111.239 17.0607C111.239 17.0607 108.969 14.5276 108.969 17.2842C108.969 20.0408 109.628 20.0408 111.019 21.0092C112.411 21.9778 112.85 20.7858 112.85 20.7858" stroke="#2E3038" stroke-linecap="round" stroke-linejoin="round"/>
<path id="Vector_53" d="M141.484 188.786H141.558L141.338 187.743L131.452 83.4414H101.134L91.1738 188.861H91.2471L97.6917 189.457C97.6917 189.457 104.795 165.095 104.795 163.307C104.795 161.519 106.846 144.681 106.846 144.681L116.952 108.548L125.959 144.532C125.959 144.532 128.009 161.37 128.009 163.158C128.009 164.946 135.187 189.382 135.187 189.382L141.265 188.861L141.484 188.786Z" fill="#2E3038" stroke="#2E3038" stroke-linecap="round" stroke-linejoin="round"/>
<path id="Vector_54" d="M91.3206 188.786C91.3206 188.786 87.4393 191.841 85.2423 192.735C83.0454 193.629 78.8711 195.864 78.8711 195.864C78.8711 195.864 78.8711 197.28 82.4595 197.28H96.593L96.3734 188.786H91.3206Z" fill="#2E3038" stroke="#2E3038" stroke-linecap="round" stroke-linejoin="round"/>
<path id="Vector_55" d="M96.593 195.716C90.9545 196.013 85.2423 195.864 79.6035 195.417L78.8711 195.79C78.8711 195.79 78.8711 197.206 82.4595 197.206H96.6665L96.593 195.716Z" fill="white" stroke="#2E3038" stroke-linecap="round" stroke-linejoin="round"/>
<path id="Vector_56" d="M140.898 188.786C140.898 188.786 144.779 191.841 146.976 192.735C149.173 193.629 153.348 195.864 153.348 195.864C153.348 195.864 153.348 197.28 149.759 197.28H135.625L135.918 188.786H140.898Z" fill="#2E3038" stroke="#2E3038" stroke-linecap="round" stroke-linejoin="round"/>
<path id="Vector_57" d="M135.625 195.716C141.264 196.013 146.976 195.864 152.615 195.417L153.348 195.79C153.348 195.79 153.348 197.206 149.759 197.206H135.625V195.716Z" fill="white" stroke="#2E3038" stroke-linecap="round" stroke-linejoin="round"/>
<path id="Vector_58" d="M94.7631 35.9841L83.5586 66.3063H94.2506L98.2787 58.0366L94.7631 35.9841Z" fill="white" stroke="#2E3038" stroke-linecap="round" stroke-linejoin="round"/>
<path id="Vector_59" d="M143.535 61.6128C139.068 59.7503 124.715 58.7818 123.982 58.7818C123.25 58.7818 99.9622 56.8447 98.0585 56.5467C96.1538 56.2487 93.957 60.7188 93.957 60.7188L104.063 60.4208L116.366 62.9538C116.366 62.9538 141.265 72.1175 143.17 71.596C143.389 71.5215 143.682 71.3725 143.828 71.1491" fill="white"/>
<path id="Vector_60" d="M143.535 61.6128C139.068 59.7503 124.715 58.7818 123.982 58.7818C123.25 58.7818 99.9622 56.8447 98.0585 56.5467C96.1538 56.2487 93.957 60.7188 93.957 60.7188L104.063 60.4208L116.366 62.9538C116.366 62.9538 141.265 72.1175 143.17 71.596C143.389 71.5215 143.682 71.3725 143.828 71.1491" stroke="#2E3038" stroke-linecap="round" stroke-linejoin="round"/>
<path id="Vector_61" d="M91.4655 60.1971L129.986 56.323L130.278 59.6756L96.9581 69.9569C96.9581 69.9569 90.9529 71.3724 86.266 70.4783C81.5792 69.5843 83.7761 64.8907 84.8746 62.1342" fill="white"/>
<path id="Vector_62" d="M91.4655 60.1971L129.986 56.323L130.278 59.6756L96.9581 69.9569C96.9581 69.9569 90.9529 71.3724 86.266 70.4783C81.5792 69.5843 83.7761 64.8907 84.8746 62.1342" stroke="#2E3038" stroke-linecap="round" stroke-linejoin="round"/>
<path id="Vector_63" d="M129.988 56.323L137.385 56.0249L139.581 60.4951L130.281 59.6755L129.988 56.323Z" fill="white" stroke="#2E3038" stroke-linecap="round" stroke-linejoin="round"/>
<path id="Vector_64" d="M179.125 121.661L185.422 197.876C185.496 198.323 185.935 198.621 186.374 198.621C186.374 198.621 186.374 198.621 186.448 198.621C186.814 198.546 187.107 198.174 187.034 197.727L182.713 121.735L179.125 121.661Z" fill="#2E3038" stroke="#2E3038" stroke-linecap="round" stroke-linejoin="round"/>
<path id="Vector_65" d="M221.381 121.661L227.752 198.174C227.825 198.621 228.264 198.919 228.704 198.919H228.777C229.144 198.845 229.436 198.472 229.363 198.025L225.042 121.735L221.381 121.661Z" fill="#2E3038" stroke="#2E3038" stroke-linecap="round" stroke-linejoin="round"/>
<path id="Vector_66" d="M46.9415 121.661L43.6461 197.206C43.5728 197.578 43.8657 198.025 44.232 198.1C44.6713 198.174 45.1107 197.95 45.1839 197.504C45.1839 197.504 45.1839 197.429 45.1839 197.355L50.53 121.661H46.9415Z" fill="#2E3038" stroke="#2E3038" stroke-linecap="round" stroke-linejoin="round"/>
<path id="Vector_67" d="M7.98295 121.661L4.6875 196.907C4.6875 197.355 4.90719 197.727 5.34659 197.801C5.78599 197.876 6.22538 197.652 6.29861 197.206V197.131L11.5713 121.661H7.98295Z" fill="#2E3038" stroke="#2E3038" stroke-linecap="round" stroke-linejoin="round"/>
<path id="Vector_68" d="M229.654 117.489H5.63672V124.045H229.654V117.489Z" fill="#184AFB" stroke="#2E3038" stroke-linecap="round" stroke-linejoin="round"/>
<path id="Vector_69" d="M229.654 117.489H5.63672V119.723H229.654V117.489Z" fill="#2E3038" stroke="#2E3038" stroke-linecap="round" stroke-linejoin="round"/>
<path id="Vector_70" d="M229.583 117.489H173.561V124.045H229.583V117.489Z" fill="#2E3038" stroke="#2E3038" stroke-linecap="round" stroke-linejoin="round"/>
<path id="Vector_71" d="M231.633 115.328H3.66016V117.861H231.633V115.328Z" fill="#184AFB" stroke="#2E3038" stroke-linecap="round" stroke-linejoin="round"/>
<path id="Vector_72" d="M231.634 115.328H175.904V117.861H231.634V115.328Z" fill="#2E3038" stroke="#2E3038" stroke-linecap="round" stroke-linejoin="round"/>
<path id="Vector_73" d="M54.4109 115.03H85.022C85.2417 115.03 85.4614 114.881 85.6078 114.657L94.1028 94.9892C94.2493 94.6912 94.1028 94.3187 93.8099 94.1697C93.7366 94.1697 93.6634 94.0952 93.5902 94.0952H62.9058C62.6861 94.0952 62.4664 94.2442 62.3932 94.4677L53.9715 114.136C53.8251 114.434 53.9715 114.807 54.2644 114.956C54.2644 115.03 54.3377 115.03 54.4109 115.03Z" fill="white" stroke="#2E3038" stroke-linecap="round" stroke-linejoin="round"/>
<path id="Vector_74" d="M57.2664 113.54H83.337C83.5567 113.54 83.7032 113.391 83.7764 113.242L91.0265 96.4797C91.1729 96.2554 91.0265 95.8834 90.8068 95.8089C90.7335 95.7344 90.6603 95.7344 90.587 95.7344H64.5163C64.2966 95.7344 64.1502 95.8834 64.0769 96.0324L56.827 112.795C56.6805 113.019 56.827 113.391 57.1199 113.466C57.1931 113.54 57.1931 113.54 57.2664 113.54Z" fill="#184AFB" stroke="#2E3038" stroke-linecap="round" stroke-linejoin="round"/>
<path id="Vector_75" d="M85.4605 113.763H39.4707V115.253H85.4605V113.763Z" fill="white" stroke="#2E3038" stroke-linecap="round" stroke-linejoin="round"/>
<path id="Vector_76" d="M85.4619 113.763H63.1992V115.253H85.4619V113.763Z" fill="white" stroke="#2E3038" stroke-linecap="round" stroke-linejoin="round"/>
<path id="Vector_77" d="M100.254 103.11H92.125V115.328H100.254V103.11Z" fill="white" stroke="#2E3038" stroke-linecap="round" stroke-linejoin="round"/>
<path id="Vector_78" d="M99.8885 113.689H99.0102C98.6436 113.689 98.3505 113.391 98.3505 113.018C98.3505 112.646 98.6436 112.348 99.0102 112.348H99.8885C100.621 112.348 101.133 111.752 101.133 111.081V108.102C101.133 107.357 100.547 106.835 99.8885 106.835H98.7906C98.424 106.835 98.1309 106.537 98.1309 106.164C98.1309 105.792 98.424 105.493 98.7906 105.493H99.8885C101.353 105.493 102.452 106.686 102.452 108.102V111.081C102.452 112.497 101.28 113.689 99.8885 113.689Z" fill="white" stroke="#2E3038" stroke-linecap="round" stroke-linejoin="round"/>
<path id="Vector_79" d="M163.525 115.03H132.915C132.695 115.03 132.476 114.881 132.402 114.657L123.907 94.9892C123.761 94.6912 123.907 94.3187 124.2 94.1697C124.274 94.1697 124.347 94.0952 124.42 94.0952H155.031C155.251 94.0952 155.47 94.2442 155.616 94.4677L164.112 114.136C164.259 114.434 164.112 114.807 163.819 114.956C163.746 115.03 163.599 115.03 163.525 115.03Z" fill="white" stroke="#2E3038" stroke-linecap="round" stroke-linejoin="round"/>
<path id="Vector_80" d="M178.541 113.763H132.551V115.253H178.541V113.763Z" fill="white" stroke="#2E3038" stroke-linecap="round" stroke-linejoin="round"/>
<path id="Vector_81" d="M164.261 113.763H132.551V115.253H164.261V113.763Z" fill="white" stroke="#2E3038" stroke-linecap="round" stroke-linejoin="round"/>
<path id="Vector_82" d="M144.56 102.365C144.999 103.259 144.706 104.376 143.828 104.824C142.949 105.27 141.85 104.973 141.411 104.079C140.971 103.185 141.264 102.141 142.144 101.62C142.949 101.098 144.047 101.471 144.56 102.365Z" fill="white" stroke="#2E3038" stroke-linecap="round" stroke-linejoin="round"/>
<path id="Vector_83" d="M13.9868 97.4478C13.9868 97.4478 16.2571 102.291 16.4768 103.557C16.6965 104.824 16.9894 107.431 16.0373 108.623C14.8657 110.039 13.7671 108.922 13.7671 108.922C13.7671 108.922 10.7646 108.176 10.7646 105.568C10.7646 102.961 10.5449 99.4592 10.5449 99.4592L13.9868 97.4478Z" fill="white" stroke="#2E3038" stroke-linecap="round" stroke-linejoin="round"/>
<path id="Vector_84" d="M11.498 105.047L15.7455 106.164" stroke="#2E3038" stroke-linecap="round" stroke-linejoin="round"/>
<path id="Vector_85" d="M12.5216 102.142L13.6933 104.079C13.6933 104.079 10.9105 108.922 12.3751 107.655C13.8398 106.389 16.6959 104.824 16.403 103.557C15.9635 102.217 15.4509 100.95 14.7185 99.6836" fill="white"/>
<path id="Vector_86" d="M12.5216 102.142L13.6933 104.079C13.6933 104.079 10.9105 108.922 12.3751 107.655C13.8398 106.389 16.6959 104.824 16.403 103.557C15.9635 102.217 15.4509 100.95 14.7185 99.6836" stroke="#2E3038" stroke-linecap="round" stroke-linejoin="round"/>
<path id="Vector_87" d="M55.1429 51.555C55.1429 51.555 56.9738 57.3661 56.9738 58.4836C56.9738 59.3032 56.9005 60.1227 56.8273 60.9422L58.4384 63.4752C58.6581 63.8478 58.5116 64.2203 58.2187 64.4438L55.7288 65.9338C55.7288 65.9338 55.3627 71.8939 54.9965 72.6389C54.6303 73.3839 48.4056 73.2349 48.4056 73.2349L46.3551 77.1836L35.8828 73.0114L38.6657 65.3377L38.0798 53.7901C38.0798 53.7901 44.5243 47.9789 55.1429 51.555Z" fill="white" stroke="#2E3038" stroke-linecap="round" stroke-linejoin="round"/>
<path id="Vector_88" d="M47.9672 65.6355C47.9672 65.6355 46.1364 67.3491 44.745 67.4981C43.3536 67.647 38.9596 66.6041 38.5935 66.0826C38.2273 65.561 35.1516 59.0794 35.298 55.9503C35.4445 52.8212 35.5177 48.2022 38.8132 46.6376C42.1086 45.0731 47.3814 45.5947 50.0909 43.8811C52.8006 42.1676 57.1945 40.7521 59.4647 43.732C61.7349 46.7121 60.0505 50.9587 58.2197 52.6723C56.3889 54.3858 54.1188 54.9073 54.3385 55.6523C54.5581 56.3973 55.9496 57.2914 55.144 58.4089C54.3385 59.5264 51.4824 60.6439 51.4824 61.091C51.4824 61.5379 52.1415 63.177 51.4091 63.4004C50.6769 63.624 49.798 61.836 48.9925 61.836C48.1869 61.836 46.5026 64.1455 47.9672 65.6355Z" fill="#2E3038" stroke="#2E3038" stroke-linecap="round" stroke-linejoin="round"/>
<path id="Vector_89" d="M47.8203 65.9338L49.285 66.3063C49.1385 67.7218 49.5046 69.1374 50.3834 70.2548" fill="white"/>
<path id="Vector_90" d="M47.8203 65.9338L49.285 66.3063C49.1385 67.7218 49.5046 69.1374 50.3834 70.2548" stroke="#2E3038" stroke-linecap="round" stroke-linejoin="round"/>
<path id="Vector_91" d="M49.5039 61.9108L59.8297 59.3032" stroke="#2E3038" stroke-linecap="round" stroke-linejoin="round"/>
<path id="Vector_92" d="M57.1934 59.0796L59.5368 59.1542C59.5368 59.1542 60.3424 61.8362 57.9257 62.2087" stroke="#2E3038" stroke-linecap="round" stroke-linejoin="round"/>
<path id="Vector_93" d="M46.7945 187.892C46.7945 187.892 56.3147 194.002 57.999 194.002C59.6833 194.002 60.4889 195.566 59.6833 195.716C58.8777 195.864 53.6783 196.088 50.1631 196.236C46.648 196.386 44.3045 196.088 42.3273 196.088C40.35 196.088 38.0065 196.236 36.9813 195.716C35.9561 195.194 37.6404 189.382 37.6404 188.414C37.6404 187.446 45.6227 187.222 46.7945 187.892Z" fill="#2E3038" stroke="#2E3038" stroke-linecap="round" stroke-linejoin="round"/>
<path id="Vector_94" d="M59.0244 194.3C55.2895 195.567 49.3577 194.747 45.6961 194.374C42.84 194.076 38.3728 194.076 36.542 194.002C36.4688 194.896 36.542 195.567 36.8349 195.716C37.8602 196.236 40.2036 196.088 42.181 196.088C44.1582 196.088 46.5016 196.461 50.0168 196.236C53.532 196.013 58.7315 195.864 59.537 195.716C60.2693 195.641 59.9764 194.747 59.0244 194.3Z" fill="white" stroke="#2E3038" stroke-linecap="round" stroke-linejoin="round"/>
<path id="Vector_95" d="M54.2659 145.874L46.723 184.242L48.2609 188.191C47.1624 189.83 45.4048 191.022 43.5008 191.469C41.377 191.916 39.1801 192.14 36.9831 192.14C36.9831 192.14 36.1775 187.892 36.6902 187.372C37.2028 186.85 37.3493 184.839 37.3493 184.839L41.67 146.246L54.2659 145.874Z" fill="#184AFB" stroke="#2E3038" stroke-linecap="round" stroke-linejoin="round"/>
<path id="Vector_96" d="M77.1862 186.627C77.1862 186.627 83.0448 191.544 85.6811 192.438C88.3175 193.332 91.1736 194.151 91.1736 194.971C91.1736 195.79 84.8024 196.684 79.969 196.163C75.1357 195.641 67.7392 193.48 66.1281 193.48C64.517 193.48 64.8099 189.085 64.8099 188.34C64.8099 187.595 73.0119 182.231 77.1862 186.627Z" fill="#2E3038" stroke="#2E3038" stroke-linecap="round" stroke-linejoin="round"/>
<path id="Vector_97" d="M91.2474 194.97C91.2474 194.672 90.8813 194.374 90.2954 194.077C85.5353 194.747 80.6288 194.672 75.8687 194.002C71.0353 193.331 67.0075 192.363 64.957 191.841C65.1035 192.735 65.4696 193.48 66.1288 193.48C67.8131 193.48 75.1363 195.716 79.9696 196.162C84.803 196.61 91.2474 195.79 91.2474 194.97Z" fill="white" stroke="#2E3038" stroke-linecap="round" stroke-linejoin="round"/>
<path id="Vector_98" d="M48.1141 128.738C53.0939 128.366 58.1469 128.44 63.1267 129.111C71.6216 130.154 90.6621 131.347 91.0283 133.506C91.3944 135.667 76.2353 181.709 76.2353 182.901C76.2353 184.093 77.5535 185.285 77.9196 185.956C78.1394 186.403 78.2126 186.924 78.2859 187.52C78.2859 187.52 74.1848 191.99 71.0358 193.183C67.8868 194.374 65.1772 193.257 64.5181 193.257C63.8591 193.257 63.8591 188.637 64.3717 186.478C64.8843 184.317 65.6899 178.654 65.9096 178.133C66.1293 177.611 75.2101 144.906 75.2101 144.906C75.2101 144.906 50.3111 149.003 35.4449 147.29C20.5788 145.576 19.0409 143.192 18.2353 139.616C17.4298 136.039 19.0409 128.888 19.0409 128.888L48.1141 128.738Z" fill="#184AFB" stroke="#2E3038" stroke-linecap="round" stroke-linejoin="round"/>
<path id="Vector_99" d="M46.2087 139.765C45.8422 140.286 45.4758 140.733 45.1094 141.18" stroke="#2E3038" stroke-linecap="round" stroke-linejoin="round"/>
<path id="Vector_100" d="M50.7486 130.602C49.7965 133.06 48.6981 135.444 47.4531 137.753" stroke="#2E3038" stroke-linecap="round" stroke-linejoin="round"/>
<path id="Vector_101" d="M48.7713 132.315C46.7208 135.667 43.7182 138.349 40.0566 139.765" stroke="#2E3038" stroke-linecap="round" stroke-linejoin="round"/>
<path id="Vector_102" d="M86.707 141.701C87.2929 141.478 87.8055 141.255 88.3181 141.031L86.707 141.701Z" fill="white"/>
<path id="Vector_103" d="M86.707 141.701C87.2929 141.478 87.8055 141.255 88.3181 141.031" stroke="#2E3038" stroke-linecap="round" stroke-linejoin="round"/>
<path id="Vector_104" d="M75.1367 144.905C78.3589 144.309 81.5079 143.489 84.6569 142.447L75.1367 144.905Z" fill="white"/>
<path id="Vector_105" d="M75.1367 144.905C78.3589 144.309 81.5079 143.489 84.6569 142.447" stroke="#2E3038" stroke-linecap="round" stroke-linejoin="round"/>
<path id="Vector_106" d="M94.4696 88.4334C94.8358 87.0179 95.4217 87.0924 94.909 86.6454C94.25 85.9748 93.7374 86.7944 91.9066 87.8374C90.0757 88.8804 88.1716 90.2214 88.1716 90.2214C88.2449 89.849 88.3913 89.4764 88.611 89.1785C89.0505 88.3589 89.3434 87.4649 89.3434 86.5709C89.3434 85.8259 88.7576 85.9748 88.5378 86.7199C88.3181 87.4649 86.1944 88.7314 86.1212 89.3275C86.0479 89.9235 85.6086 92.233 85.6086 92.233C84.9494 93.276 84.9494 98.0446 84.9494 98.0446L71.4015 108.4L64.5176 116.595C64.5176 116.595 67.5201 121.512 69.2045 120.842C70.8888 120.171 71.6944 119.5 75.7221 116.073C79.0909 113.168 87.6591 99.9068 87.6591 99.9068C89.1237 98.9377 90.5151 97.8954 91.8333 96.703C93.3711 94.9896 94.2499 92.7545 94.3964 90.445C94.3232 89.6999 94.3232 89.0294 94.4696 88.4334Z" fill="white" stroke="#2E3038" stroke-linecap="round" stroke-linejoin="round"/>
<path id="Vector_107" d="M31.7099 72.6389C31.7099 72.6389 33.0281 67.7218 38.4472 68.6903C43.8665 69.6588 48.1139 74.2779 49.066 75.917C50.0179 77.556 31.3438 75.2464 31.3438 75.2464L31.7099 72.6389Z" fill="white" stroke="#2E3038" stroke-linecap="round" stroke-linejoin="round"/>
<path id="Vector_108" d="M63.2721 115.627C63.2721 115.627 62.0271 117.041 63.2721 119.202C64.1509 120.693 65.6887 121.884 68.618 121.363C71.4008 120.841 75.5019 113.913 75.5019 108.996C75.5019 104.079 71.9867 103.781 70.6686 104.749C69.3504 105.718 63.2721 115.627 63.2721 115.627Z" fill="white" stroke="#2E3038" stroke-linecap="round" stroke-linejoin="round"/>
<path id="Vector_109" d="M34.0524 72.1171C34.0524 72.1171 21.0169 78.3752 19.1861 79.5673C17.3553 80.7593 16.1836 95.5106 16.1836 98.1186C16.1836 100.726 18.0145 125.684 18.5271 129.931C19.0397 134.177 35.0776 137.082 40.4236 135.518C45.7695 133.954 50.969 130.154 50.969 128.738C50.969 127.323 50.4564 115.85 50.8225 113.614C51.1887 111.38 54.1912 102.066 54.1912 102.066L63.3453 116.892C63.3453 116.892 64.2972 118.68 67.6659 117.265C72.4993 115.253 72.9387 107.357 72.9387 107.357C72.9387 107.357 67.5927 97.8203 66.0548 93.052C64.5169 88.284 63.8579 84.7079 63.1988 83.8884C62.5397 83.0689 47.4539 75.9167 44.8175 74.0542C41.7417 71.5956 37.714 70.9251 34.0524 72.1171Z" fill="white" stroke="#2E3038" stroke-linecap="round" stroke-linejoin="round"/>
<path id="Vector_110" d="M54.1175 101.992L49.7969 95.5854" stroke="#2E3038" stroke-linecap="round" stroke-linejoin="round"/>
<path id="Vector_111" d="M53.3857 101.098L45.7695 97.2986" stroke="#2E3038" stroke-linecap="round" stroke-linejoin="round"/>
<path id="Vector_112" d="M30.7578 149.897L37.4219 198.174C37.4952 198.621 37.8614 198.918 38.3008 198.844H38.374C38.7401 198.769 39.0331 198.397 38.9598 197.95L34.2729 149.078L30.7578 149.897Z" fill="#2E3038" stroke="#2E3038" stroke-linecap="round" stroke-linejoin="round"/>
<path id="Vector_113" d="M11.57 150.27L0.36544 197.727C0.292208 198.174 0.511904 198.622 0.951298 198.696H1.02453C1.39069 198.77 1.83009 198.472 1.90332 198.1L14.8655 152.058L11.57 150.27Z" fill="#2E3038" stroke="#2E3038" stroke-linecap="round" stroke-linejoin="round"/>
<path id="Vector_114" d="M31.7828 149.673L24.6792 197.876C24.606 198.323 24.8989 198.77 25.3383 198.844H25.4116C25.7777 198.844 26.1438 198.621 26.2171 198.174L35.2247 151.163L31.7828 149.673Z" fill="#2E3038" stroke="#2E3038" stroke-linecap="round" stroke-linejoin="round"/>
<path id="Vector_115" d="M56.9727 149.897L63.6368 198.174C63.71 198.621 64.0762 198.918 64.5155 198.844H64.5888C64.955 198.769 65.2479 198.397 65.1747 197.95L60.4146 149.078L56.9727 149.897Z" fill="#2E3038" stroke="#2E3038" stroke-linecap="round" stroke-linejoin="round"/>
<path id="Vector_116" d="M0.953125 99.7576L9.08191 153.547H66.8623C66.8623 153.547 67.741 138.052 65.1779 132.612C62.6148 127.174 31.198 138.871 30.0264 138.572C29.2208 138.349 30.4658 110.635 32.0036 99.7576C32.443 96.8521 30.3925 94.0953 27.5364 93.6482C27.3168 93.6482 27.0239 93.5737 26.8042 93.5737H6.22586C3.29655 93.5737 0.953125 95.9578 0.953125 98.9377C0.953125 99.236 0.953125 99.4593 0.953125 99.7576Z" fill="#184AFB" stroke="#2E3038" stroke-linecap="round" stroke-linejoin="round"/>
<path id="Vector_117" d="M65.2505 132.538C62.6874 127.025 31.2707 138.796 30.099 138.498C29.2934 138.275 30.5384 110.561 32.0762 99.6826C32.5889 96.8521 30.758 94.1698 27.9753 93.6483C25.1924 93.1268 22.556 94.9893 22.0434 97.8203C21.897 98.4911 21.897 99.0868 22.0434 99.7576L30.1722 153.547H67.0081C66.9349 153.547 67.7404 138.052 65.2505 132.538Z" fill="#2E3038" stroke="#2E3038" stroke-linecap="round" stroke-linejoin="round"/>
<path id="Vector_118" d="M94.4685 88.4333C94.4685 88.4333 93.5164 89.4018 92.125 91.0409L94.4685 88.4333Z" fill="white"/>
<path id="Vector_119" d="M94.4685 88.4333C94.4685 88.4333 93.5164 89.4018 92.125 91.0409" stroke="#2E3038" stroke-linecap="round" stroke-linejoin="round"/>
<path id="Vector_120" d="M94.3231 90.2959C94.3231 90.2959 93.1513 92.6055 92.4922 93.7229L94.3231 90.2959Z" fill="white"/>
<path id="Vector_121" d="M94.3231 90.2959C94.3231 90.2959 93.1513 92.6055 92.4922 93.7229" stroke="#2E3038" stroke-linecap="round" stroke-linejoin="round"/>
</g>
</g>
</g>
</g>
</svg>
